<svg width="16" height="17" viewBox="0 0 16 17" fill="none" xmlns="http://www.w3.org/2000/svg">
<path fill-rule="evenodd" clip-rule="evenodd" d="M7.99995 1.47499C11.6439 1.47499 14.6086 4.43969 14.6086 8.08369C14.6086 11.7277 11.6439 14.6924 7.99995 14.6924C4.35577 14.6924 1.39125 11.7277 1.39125 8.08369C1.39125 4.43969 4.35577 1.47499 7.99995 1.47499ZM8 16.0835C12.4111 16.0835 16 12.4946 16 8.0835C16 3.67237 12.4111 0.0834961 8 0.0834961C3.5887 0.0834961 0 3.67237 0 8.0835C0 12.4946 3.5887 16.0835 8 16.0835ZM8.00008 5.00641C8.17516 5.00641 8.34268 5.08125 8.46401 5.21386L12.487 9.60587C12.7335 9.87481 12.7255 10.3027 12.4691 10.5613C12.2129 10.82 11.8055 10.8117 11.5591 10.5426L8.00008 6.65703L4.44104 10.5426C4.19484 10.8115 3.78739 10.82 3.53105 10.5613C3.2747 10.3027 3.26666 9.87481 3.51319 9.60587L7.53615 5.21386C7.65749 5.08125 7.825 5.00641 8.00008 5.00641Z" fill="#EB4F6B"/>
</svg>
