<svg width="16" height="17" viewBox="0 0 16 17" fill="none" xmlns="http://www.w3.org/2000/svg">
<path fill-rule="evenodd" clip-rule="evenodd" d="M8 14.692C4.356 14.692 1.3913 11.7273 1.3913 8.0833C1.3913 4.43931 4.356 1.47461 8 1.47461C11.6442 1.47461 14.6087 4.43931 14.6087 8.0833C14.6087 11.7273 11.6442 14.692 8 14.692ZM8 0.0834961C3.58887 0.0834961 0 3.67237 0 8.0835C0 12.4946 3.58887 16.0835 8 16.0835C12.4113 16.0835 16 12.4946 16 8.0835C16 3.67237 12.4113 0.0834961 8 0.0834961ZM8 11.1606C7.82492 11.1606 7.6574 11.0857 7.53607 10.9531L3.5131 6.56112C3.26658 6.29218 3.27462 5.86428 3.53096 5.60565C3.78715 5.34702 4.19459 5.35529 4.44096 5.6244L8 9.50996L11.559 5.6244C11.8052 5.35546 12.2127 5.34702 12.469 5.60565C12.7254 5.86428 12.7334 6.29218 12.4869 6.56112L8.46393 10.9531C8.34259 11.0857 8.17508 11.1606 8 11.1606Z" fill="#EB4F6B"/>
</svg>
