<svg width="66" height="64" viewBox="0 0 66 64" fill="none" xmlns="http://www.w3.org/2000/svg">
<rect width="66" height="63.9998" fill="black" fill-opacity="0"/>
<rect width="66" height="63.9998" fill="black" fill-opacity="0"/>
<rect width="50.3932" height="50.4471" fill="black" fill-opacity="0" transform="translate(14.6666 12.6113)"/>
<path d="M39.8632 63.0584C53.7789 63.0584 65.0598 51.7654 65.0598 37.8349C65.0598 23.9043 53.7789 12.6113 39.8632 12.6113C25.9475 12.6113 14.6666 23.9043 14.6666 37.8349C14.6666 51.7654 25.9475 63.0584 39.8632 63.0584Z" fill="white"/>
<rect width="3.00855" height="6.4" fill="black" fill-opacity="0" transform="translate(13.9146 30.3062)"/>
<path d="M15.7949 36.7062H13.9146C14.1026 34.4473 14.4787 32.3767 15.0428 30.3062L16.9231 30.8709C16.171 32.565 15.7949 34.6356 15.7949 36.7062Z" fill="#7B0A20"/>
<rect width="3.19658" height="6.58824" fill="black" fill-opacity="0" transform="translate(13.9146 40.0942)"/>
<path d="M15.4188 46.6825C14.6667 44.6119 14.1026 42.5413 13.9146 40.2825L15.7949 40.0942C15.9829 42.1648 16.359 44.0472 17.1111 45.9295L15.4188 46.6825Z" fill="#7B0A20"/>
<rect width="49.641" height="52.3294" fill="black" fill-opacity="0" transform="translate(16.359 11.6704)"/>
<path d="M39.8632 63.9998C30.4615 63.9998 21.6239 58.9175 17.1111 50.6351L18.8034 49.6939C23.1282 57.4116 31.2137 62.1175 40.0513 62.1175C53.4017 62.1175 64.3077 51.1998 64.3077 37.8351C64.3077 24.4704 53.4017 13.5528 40.0513 13.5528C30.6496 13.5528 22.3761 18.8234 18.2393 27.1057L16.359 26.3528C20.8718 17.3175 29.7094 11.6704 39.8632 11.6704C54.3419 11.6704 66 23.341 66 37.8351C66 52.3292 54.3419 63.9998 39.8632 63.9998Z" fill="#7B0A20"/>
<rect width="33.2821" height="39.3412" fill="black" fill-opacity="0" transform="translate(26.3248 18.2588)"/>
<path d="M39.8633 57.6C34.7864 57.6 29.8975 55.7176 26.3248 52.1411L27.6411 50.8235C31.0257 54.0235 35.3505 55.7176 39.8633 55.7176C49.6411 55.7176 57.7265 47.8117 57.7265 37.8353C57.7265 28.047 49.8291 19.9529 39.8633 19.9529C35.1624 19.9529 30.8376 21.647 27.453 24.847L26.3248 23.7176C30.0855 20.1411 34.7864 18.2588 39.8633 18.2588C50.7693 18.2588 59.6069 27.1058 59.6069 38.0235C59.6069 48.9411 50.7693 57.6 39.8633 57.6Z" fill="#7B0A20"/>
<rect width="8.08547" height="4.70588" fill="black" fill-opacity="0" transform="translate(35.9145 4.89429)"/>
<path d="M43.9999 9.60017H42.1196V6.77664H37.7948V9.60017H35.9145V4.89429H43.9999V9.60017Z" fill="#7B0A20"/>
<rect width="15.4188" height="6.77647" fill="black" fill-opacity="0" transform="translate(32.1538)"/>
<path d="M47.5726 6.77647H32.1538V0H47.5726V6.77647ZM34.0341 4.89412H45.6922V1.88235H34.0341V4.89412Z" fill="#7B0A20"/>
<rect width="17.1111" height="1.88235" fill="black" fill-opacity="0" transform="translate(6.20509 25.7881)"/>
<path d="M23.3162 25.7881H6.20509V27.6704H23.3162V25.7881Z" fill="#7B0A20"/>
<rect width="19.7436" height="1.88235" fill="black" fill-opacity="0" transform="translate(0 35.7646)"/>
<path d="M19.7436 35.7646H0V37.647H19.7436V35.7646Z" fill="#7B0A20"/>
<rect width="17.1111" height="1.88235" fill="black" fill-opacity="0" transform="translate(4.88881 45.5527)"/>
<path d="M21.9999 45.5527H4.88881V47.4351H21.9999V45.5527Z" fill="#7B0A20"/>
<rect width="8.98179" height="9.36899" fill="black" fill-opacity="0" transform="translate(42.091 26.1895)"/>
<path d="M49.7036 26.1893L42.091 34.2681L43.4602 35.5583L51.0728 27.4795L49.7036 26.1893Z" fill="#7B0A20"/>
<rect width="8.64957" height="8.65882" fill="black" fill-opacity="0" transform="translate(35.5385 33.5059)"/>
<path d="M39.8633 42.1647C37.4189 42.1647 35.5385 40.2823 35.5385 37.8353C35.5385 35.3882 37.4189 33.5059 39.8633 33.5059C42.3078 33.5059 44.1881 35.3882 44.1881 37.8353C44.1881 40.2823 42.3078 42.1647 39.8633 42.1647ZM39.8633 35.3882C38.5471 35.3882 37.4189 36.5176 37.4189 37.8353C37.4189 39.1529 38.5471 40.2823 39.8633 40.2823C41.1796 40.2823 42.3078 39.1529 42.3078 37.8353C42.3078 36.5176 41.3676 35.3882 39.8633 35.3882Z" fill="#7B0A20"/>
<rect width="6.91909" height="6.78699" fill="black" fill-opacity="0" transform="translate(17.1722 12.7314)"/>
<rect width="5.85332" height="5.85332" fill="black" fill-opacity="0" transform="translate(17.1722 12.7314)"/>
<path d="M21.6953 12.7314L17.1722 17.2544L18.5025 18.5847L23.0256 14.0617L21.6953 12.7314Z" fill="#7B0A20"/>
<rect width="4.52355" height="4.5225" fill="black" fill-opacity="0" transform="translate(19.5678 14.9961)"/>
<path d="M20.8977 14.996L19.5678 16.3267L22.7614 19.5185L24.0913 18.1878L20.8977 14.996Z" fill="#7B0A20"/>
</svg>
