<svg width="101" height="66" viewBox="0 0 101 66" fill="none" xmlns="http://www.w3.org/2000/svg">
<rect width="98.554" height="64.0004" fill="black" fill-opacity="0" transform="translate(1 1)"/>
<rect width="98.554" height="64.0004" fill="black" fill-opacity="0" transform="translate(1 1)"/>
<rect width="51.2801" height="42.0657" fill="black" fill-opacity="0" transform="translate(24.6369 13.3188)"/>
<path d="M24.7876 45.3685V45.409L24.8004 45.4475C25.2241 46.7185 26.2712 47.9336 27.782 49.0382C29.2963 50.1453 31.2973 51.1567 33.6661 52.0136C38.4044 53.7274 44.6434 54.8328 51.4789 54.8328C58.3288 54.8328 63.9745 53.2211 68.0631 51.2525C70.107 50.2684 71.7645 49.1938 72.99 48.1843C74.2083 47.1806 75.0215 46.2232 75.3456 45.4669L75.3658 45.4198V45.3685V45.3542V45.3397V45.3248V45.3096V45.2942V45.2784V45.2623V45.2459V45.2292V45.2122V45.1949V45.1773V45.1595V45.1413V45.1228V45.104V45.085V45.0656V45.046V45.026V45.0058V44.9853V44.9645V44.9434V44.9221V44.9004V44.8785V44.8563V44.8339V44.8111V44.7881V44.7648V44.7412V44.7174V44.6932V44.6689V44.6442V44.6193V44.5941V44.5687V44.5429V44.517V44.4907V44.4642V44.4375V44.4105V44.3832V44.3557V44.3279V44.2999V44.2716V44.2431V44.2143V44.1853V44.156V44.1265V44.0968V44.0668V44.0365V44.006V43.9753V43.9444V43.9132V43.8818V43.8501V43.8182V43.7861V43.7537V43.7211V43.6883V43.6553V43.622V43.5885V43.5548V43.5209V43.4867V43.4524V43.4178V43.383V43.348V43.3127V43.2773V43.2416V43.2057V43.1697V43.1334V43.0969V43.0602V43.0233V42.9862V42.9489V42.9113V42.8736V42.8357V42.7976V42.7593V42.7208V42.6821V42.6432V42.6041V42.5649V42.5254V42.4858V42.4459V42.4059V42.3657V42.3254V42.2848V42.2441V42.2031V42.162V42.1208V42.0793V42.0377V41.9959V41.9539V41.9118V41.8695V41.827V41.7843V41.7415V41.6985V41.6554V41.6121V41.5686V41.525V41.4812V41.4373V41.3932V41.349V41.3046V41.26V41.2153V41.1705V41.1255V41.0803V41.035V40.9896V40.944V40.8983V40.8524V40.8064V40.7602V40.714V40.6675V40.621V40.5743V40.5275V40.4805V40.4334V40.3862V40.3389V40.2914V40.2438V40.1961V40.1483V40.1003V40.0522V40.004V39.9557V39.9073V39.8587V39.81V39.7613V39.7124V39.6634V39.6143V39.565V39.5157V39.4663V39.4167V39.3671V39.3173V39.2675V39.2176V39.1675V39.1174V39.0671V39.0168V38.9664V38.9158V38.8652V38.8145V38.7637V38.7129V38.6619V38.6109V38.5597V38.5085V38.4572V38.4058V38.3544V38.3028V38.2512V38.1995V38.1478V38.0959V38.044V37.9921V37.94V37.8879V37.8357V37.7835V37.7312V37.6788V37.6263V37.5738V37.5213V37.4687V37.416V37.3633V37.3105V37.2576V37.2047V37.1518V37.0988V37.0458V36.9927V36.9396V36.8864V36.8331V36.7799V36.7266V36.6732V36.6198V36.5664V36.513V36.4595V36.4059V36.3524V36.2988V36.2451V36.1915V36.1378V36.0841V36.0304V35.9766V35.9228V35.869V35.8152V35.7614V35.7075V35.6536V35.5997V35.5458V35.4919V35.4379V35.384V35.33V35.2761V35.2221V35.1681V35.1141V35.0602V35.0062V34.9522V34.8982V34.8442V34.7902V34.7362V34.6823V34.6283V34.5743V34.5204V34.4664V34.4125V34.3586V34.3046V34.2507V34.1969V34.143V34.0892V34.0353V33.9815V33.9277V33.874V33.8203V33.7665V33.7129V33.6592V33.6056V33.552V33.4984V33.4449V33.3914V33.3379V33.2845V33.2311V33.1778V33.1245V33.0712V33.018V32.9648V32.9117V32.8586V32.8055V32.7526V32.6996V32.6467V32.5939V32.5411V32.4884V32.4357V32.3831V32.3305V32.278V32.2256V32.1732V32.1209V32.0686V32.0165V31.9643V31.9123V31.8603V31.8084V31.7566V31.7048V31.6531V31.6015V31.55V31.4985V31.4472V31.3959V31.3446V31.2935V31.2425V31.1915V31.1406V31.0898V31.0391V30.9885V30.938V30.8876V30.8372V30.787V30.7369V30.6868V30.6369V30.587V30.5373V30.4876V30.4381V30.3887V30.3393V30.2901V30.241V30.192V30.1431V30.0943V30.0456V29.9971V29.9487V29.9003V29.8521V29.8041V29.7561V29.7083V29.6605V29.6129V29.5655V29.5181V29.4709V29.4238V29.3769V29.3301V29.2834V29.2368V29.1904V29.1441V29.098V29.052V29.0061V28.9604V28.9148V28.8693V28.824V28.7789V28.7339V28.689V28.6443V28.5998V28.5554V28.5111V28.467V28.4231V28.3793V28.3357V28.2922V28.249V28.2058V28.1628V28.12V28.0774V28.0349V27.9926V27.9505V27.9085V27.8667V27.8251V27.7836V27.7423V27.7012V27.6603V27.6196V27.579V27.5386V27.4984V27.4584V27.4186V27.3789V27.3395V27.3002V27.2611V27.2223V27.1836V27.1451V27.1068V27.0686V27.0307V26.993V26.9555V26.9182V26.8811V26.8442V26.8075V26.771V26.7347V26.6986V26.6627V26.6271V26.5916V26.5564V26.5214V26.4866V26.452V26.4176V26.3835V26.3495V26.3158V26.2823V26.2491V26.216V26.1832V26.1506V26.1183V26.0862V26.0543V26.0226V25.9912V25.96V25.929V25.8983V25.8678V25.8376V25.8076V25.7778V25.7483V25.7191V25.69V25.6613V25.6327V25.6045V25.5764V25.5487V25.5211V25.4939V25.4669V25.4401V25.4136V25.3874V25.3614V25.3357V25.3103V25.2851V25.2602V25.2355V25.2111V25.187V25.1632V25.1396V25.1163V25.0933V25.0705V25.048V25.0258V25.0039V24.9823V24.9609V24.9398V24.919V24.8985V24.8783V24.8584V24.8387V24.8194V24.8003V24.7816V24.7631V24.7449V24.727V24.7094V24.6921V24.6751V24.6585V24.6421V24.626V24.6102V24.5947V24.5796V24.5647V24.5501V24.5359C75.3658 22.9492 74.6238 21.4867 73.3266 20.1959C72.0311 18.9069 70.1714 17.777 67.8994 16.843C63.3547 14.9746 57.1109 13.8696 50.277 13.8696C43.4431 13.8696 37.1 14.9746 32.456 16.8423C30.1346 17.7759 28.2251 18.9052 26.892 20.1934C25.5575 21.483 24.7876 22.9461 24.7876 24.5359V24.5501V24.5647V24.5796V24.5947V24.6102V24.626V24.6421V24.6585V24.6751V24.6921V24.7094V24.727V24.7449V24.7631V24.7816V24.8003V24.8194V24.8387V24.8584V24.8783V24.8985V24.919V24.9398V24.9609V24.9823V25.0039V25.0258V25.048V25.0705V25.0933V25.1163V25.1396V25.1632V25.187V25.2111V25.2355V25.2602V25.2851V25.3103V25.3357V25.3614V25.3874V25.4136V25.4401V25.4669V25.4939V25.5211V25.5487V25.5764V25.6045V25.6327V25.6613V25.69V25.7191V25.7483V25.7778V25.8076V25.8376V25.8678V25.8983V25.929V25.96V25.9912V26.0226V26.0543V26.0862V26.1183V26.1506V26.1832V26.216V26.2491V26.2823V26.3158V26.3495V26.3835V26.4176V26.452V26.4866V26.5214V26.5564V26.5916V26.6271V26.6627V26.6986V26.7347V26.771V26.8075V26.8442V26.8811V26.9182V26.9555V26.993V27.0307V27.0686V27.1068V27.1451V27.1836V27.2223V27.2611V27.3002V27.3395V27.3789V27.4186V27.4584V27.4984V27.5386V27.579V27.6196V27.6603V27.7012V27.7423V27.7836V27.8251V27.8667V27.9085V27.9505V27.9926V28.0349V28.0774V28.12V28.1628V28.2058V28.249V28.2922V28.3357V28.3793V28.4231V28.467V28.5111V28.5554V28.5998V28.6443V28.689V28.7339V28.7789V28.824V28.8693V28.9148V28.9604V29.0061V29.052V29.098V29.1441V29.1904V29.2368V29.2834V29.3301V29.3769V29.4238V29.4709V29.5181V29.5655V29.6129V29.6605V29.7083V29.7561V29.8041V29.8521V29.9003V29.9487V29.9971V30.0456V30.0943V30.1431V30.192V30.241V30.2901V30.3393V30.3887V30.4381V30.4876V30.5373V30.587V30.6369V30.6868V30.7369V30.787V30.8372V30.8876V30.938V30.9885V31.0391V31.0898V31.1406V31.1915V31.2425V31.2935V31.3446V31.3959V31.4472V31.4985V31.55V31.6015V31.6531V31.7048V31.7566V31.8084V31.8603V31.9123V31.9643V32.0165V32.0686V32.1209V32.1732V32.2256V32.278V32.3305V32.3831V32.4357V32.4884V32.5411V32.5939V32.6467V32.6996V32.7526V32.8055V32.8586V32.9117V32.9648V33.018V33.0712V33.1245V33.1778V33.2311V33.2845V33.3379V33.3914V33.4449V33.4984V33.552V33.6056V33.6592V33.7129V33.7665V33.8203V33.874V33.9277V33.9815V34.0353V34.0892V34.143V34.1969V34.2507V34.3046V34.3586V34.4125V34.4664V34.5204V34.5743V34.6283V34.6823V34.7362V34.7902V34.8442V34.8982V34.9522V35.0062V35.0602V35.1141V35.1681V35.2221V35.2761V35.33V35.384V35.4379V35.4919V35.5458V35.5997V35.6536V35.7075V35.7614V35.8152V35.869V35.9228V35.9766V36.0304V36.0841V36.1378V36.1915V36.2451V36.2988V36.3524V36.4059V36.4595V36.513V36.5664V36.6198V36.6732V36.7266V36.7799V36.8331V36.8864V36.9396V36.9927V37.0458V37.0988V37.1518V37.2047V37.2576V37.3105V37.3633V37.416V37.4687V37.5213V37.5738V37.6263V37.6788V37.7312V37.7835V37.8357V37.8879V37.94V37.9921V38.044V38.0959V38.1478V38.1995V38.2512V38.3028V38.3544V38.4058V38.4572V38.5085V38.5597V38.6109V38.6619V38.7129V38.7637V38.8145V38.8652V38.9158V38.9664V39.0168V39.0671V39.1174V39.1675V39.2176V39.2675V39.3173V39.3671V39.4167V39.4663V39.5157V39.565V39.6143V39.6634V39.7124V39.7613V39.81V39.8587V39.9073V39.9557V40.004V40.0522V40.1003V40.1483V40.1961V40.2438V40.2914V40.3389V40.3862V40.4334V40.4805V40.5275V40.5743V40.621V40.6675V40.714V40.7602V40.8064V40.8524V40.8983V40.944V40.9896V41.035V41.0803V41.1255V41.1705V41.2153V41.26V41.3046V41.349V41.3932V41.4373V41.4812V41.525V41.5686V41.6121V41.6554V41.6985V41.7415V41.7843V41.827V41.8695V41.9118V41.9539V41.9959V42.0377V42.0793V42.1208V42.162V42.2031V42.2441V42.2848V42.3254V42.3657V42.4059V42.4459V42.4858V42.5254V42.5649V42.6041V42.6432V42.6821V42.7208V42.7593V42.7976V42.8357V42.8736V42.9113V42.9489V42.9862V43.0233V43.0602V43.0969V43.1334V43.1697V43.2057V43.2416V43.2773V43.3127V43.348V43.383V43.4178V43.4524V43.4867V43.5209V43.5548V43.5885V43.622V43.6553V43.6883V43.7211V43.7537V43.7861V43.8182V43.8501V43.8818V43.9132V43.9444V43.9753V44.006V44.0365V44.0668V44.0968V44.1265V44.156V44.1853V44.2143V44.2431V44.2716V44.2999V44.3279V44.3557V44.3832V44.4105V44.4375V44.4642V44.4907V44.517V44.5429V44.5687V44.5941V44.6193V44.6442V44.6689V44.6932V44.7174V44.7412V44.7648V44.7881V44.8111V44.8339V44.8563V44.8785V44.9004V44.9221V44.9434V44.9645V44.9853V45.0058V45.026V45.046V45.0656V45.085V45.104V45.1228V45.1413V45.1595V45.1773V45.1949V45.2122V45.2292V45.2459V45.2623V45.2784V45.2942V45.3096V45.3248V45.3397V45.3542V45.3685Z" fill="white" stroke="#7B0A20" stroke-width="0.5"/>
<path d="M34.2378 51.1937C38.7136 52.8348 44.6934 53.9327 51.4788 53.9327C58.0513 53.9327 63.4232 52.4389 67.2966 50.6016C69.2336 49.6827 70.7932 48.6792 71.9397 47.7361C73.0656 46.81 73.7738 45.9579 74.0645 45.3163V45.3114V45.3016V45.2918V45.2818V45.2718V45.2618V45.2517V45.2415V45.2312V45.2209V45.2106V45.2001V45.1896V45.1791V45.1685V45.1578V45.147V45.1362V45.1254V45.1145V45.1035V45.0924V45.0813V45.0701V45.0589V45.0476V45.0363V45.0249V45.0134V45.0019V44.9903V44.9786V44.9669V44.9552V44.9433V44.9314V44.9195V44.9075V44.8954V44.8833V44.8711V44.8589V44.8466V44.8342V44.8218V44.8093V44.7968V44.7842V44.7716V44.7589V44.7461V44.7333V44.7204V44.7075V44.6945V44.6815V44.6684V44.6552V44.642V44.6287V44.6154V44.602V44.5886V44.5751V44.5616V44.548V44.5343V44.5206V44.5068V44.493V44.4791V44.4652V44.4512V44.4371V44.4231V44.4089V44.3947V44.3804V44.3661V44.3518V44.3373V44.3229V44.3083V44.2938V44.2791V44.2644V44.2497V44.2349V44.2201V44.2052V44.1902V44.1752V44.1602V44.1451V44.1299V44.1147V44.0995V44.0841V44.0688V44.0534V44.0379V44.0224V44.0068V43.9912V43.9755V43.9598V43.9441V43.9282V43.9124V43.8965V43.8805V43.8645V43.8484V43.8323V43.8161V43.7999V43.7836V43.7673V43.751V43.7346V43.7181V43.7016V43.685V43.6684V43.6518V43.6351V43.6183V43.6016V43.5847V43.5678V43.5509V43.5339V43.5169V43.4998V43.4827V43.4655V43.4483V43.431V43.4137V43.3964V43.379V43.3615V43.344V43.3265V43.3089V43.2913V43.2736V43.2559V43.2381V43.2203V43.2024V43.1845V43.1666V43.1486V43.1306V43.1125V43.0944V43.0762V43.058V43.0397V43.0214V43.0031V42.9847V42.9663V42.9478V42.9293V42.9108V42.8922V42.8735V42.8548V42.8361V42.8174V42.7985V42.7797V42.7608V42.7419V42.7229V42.7039V42.6848V42.6657V42.6466V42.6274V42.6082V42.5889V42.5696V42.5503V42.5309V42.5115V42.492V42.4725V42.453V42.4334V42.4138V42.3941V42.3744V42.3547V42.3349V42.3151V42.2952V42.2753V42.2554V42.2354V42.2154V42.1954V42.1753V42.1551V42.135V42.1148V42.0945V42.0743V42.054V42.0336V42.0132V41.9928V41.9724V41.9519V41.9313V41.9108V41.8902V41.8695V41.8488V41.8281V41.8074V41.7866V41.7658V41.7449V41.724V41.7031V41.6821V41.6611V41.6401V41.6191V41.598V41.5768V41.5557V41.5345V41.5132V41.492V41.4706V41.4493V41.4279V41.4065V41.3851V41.3636V41.3421V41.3206V41.299V41.2774V41.2558V41.2341V41.2124V41.1907V41.1689V41.1471V41.1253V41.1035V41.0816V41.0597V41.0377V41.0157V40.9937V40.9717V40.9496V40.9275V40.9054V40.8832V40.861V40.8388V40.8165V40.7942V40.7719V40.7496V40.7272V40.7048V40.6824V40.6599V40.6374V40.6149V40.5923V40.5698V40.5471V40.5245V40.5018V40.4792V40.4564V40.4337V40.4109V40.3881V40.3653V40.3424V40.3195V40.2966V40.2737V40.2507V40.2277V40.2047V40.1817V40.1586V40.1355V40.1124V40.0892V40.0661V40.0429V40.0196V39.9964V39.9731V39.9498V39.9265V39.9031V39.8798V39.8564V39.8329V39.8095V39.786V39.7625V39.739V39.7154V39.6919V39.6683V39.6447V39.621V39.5974V39.5737V39.55V39.5262V39.5025V39.4787V39.4549V39.4311V39.4072V39.3833V39.3594V39.3355V39.3116V39.2876V39.2637V39.2397V39.2156V39.1916V39.1675V39.1435V39.1194V39.0952V39.0711V39.0469V39.0227V38.9985V38.9743V38.9501V38.9258V38.9015V38.8772V38.8529V38.8285V38.8042V38.7798V38.7554V38.731V38.7065V38.6821V38.6576V38.6331V38.6086V38.584V38.5595V38.5349V38.5103V38.4857V38.4611V38.4365V38.4118V38.3872V38.3625V38.3378V38.313V38.2883V38.2636V38.2388V38.214V38.1892V38.1644V38.1395V38.1147V38.0898V38.0649V38.04V38.0151V37.9902V37.9653V37.9403V37.9153V37.8904V37.8654V37.8403V37.8153V37.7903V37.7652V37.7401V37.7151V37.69V37.6649V37.6397V37.6146V37.5894V37.5643V37.5391V37.5139V37.4887V37.4635V37.4383V37.413V37.3878V37.3625V37.3373V37.312V37.2867V37.2614V37.236V37.2107V37.1854V37.16V37.1347V37.1093V37.0839V37.0585V37.0331V37.0077V36.9823V36.9568V36.9314V36.9059V36.8805V36.855V36.8295V36.804V36.7785V36.753V36.7275V36.702V36.6764V36.6509V36.6253V36.5998V36.5742V36.5486V36.523V36.4974V36.4718V36.4462V36.4206V36.395V36.3694V36.3437V36.3181V36.2924V36.2668V36.2411V36.2155V36.1898V36.1641V36.1384V36.1127V36.087V36.0613V36.0356V36.0099V35.9842V35.9585V35.9327V35.907V35.8813V35.8555V35.8298V35.804V35.7783V35.7525V35.7267V35.701V35.6752V35.6494V35.6236V35.5979V35.5721V35.5463V35.5205V35.4947V35.4689V35.4431V35.4173V35.3915V35.3657V35.3399V35.3141V35.2883V35.2625V35.2367V35.2108V35.185V35.1592V35.1334V35.1076V35.0818V35.0559V35.0301V35.0043V34.9785V34.9527L34.2378 51.1937ZM34.2378 51.1937C31.9997 50.373 30.144 49.4189 28.753 48.4033C27.5085 47.4947 26.6516 46.5485 26.2138 45.6189L34.2378 51.1937ZM74.0645 24.5435V24.5364V24.5435ZM74.0645 24.5435V24.5506M74.0645 24.5435V24.5506M74.0645 24.5506V24.5579M74.0645 24.5506V24.5579M74.0645 24.5579V24.5652M74.0645 24.5579V24.5652M74.0645 24.5652V24.5726M74.0645 24.5652V24.5726M74.0645 24.5726V24.5801M74.0645 24.5726V24.5801M74.0645 24.5801V24.5877M74.0645 24.5801V24.5877M74.0645 24.5877V24.5953M74.0645 24.5877V24.5953M74.0645 24.5953V24.6031M74.0645 24.5953V24.6031M74.0645 24.6031V24.6109M74.0645 24.6031V24.6109M74.0645 24.6109V24.6188M74.0645 24.6109V24.6188M74.0645 24.6188V24.6268M74.0645 24.6188V24.6268M74.0645 24.6268V24.6348M74.0645 24.6268V24.6348M74.0645 24.6348V24.643M74.0645 24.6348V24.643M74.0645 24.643V24.6512M74.0645 24.643V24.6512M74.0645 24.6512V24.6595M74.0645 24.6512V24.6595M74.0645 24.6595V24.6679M74.0645 24.6595V24.6679M74.0645 24.6679V24.6763M74.0645 24.6679V24.6763M74.0645 24.6763V24.6849M74.0645 24.6763V24.6849M74.0645 24.6849V24.6935M74.0645 24.6849V24.6935M74.0645 24.6935V24.7022M74.0645 24.6935V24.7022M74.0645 24.7022V24.711M74.0645 24.7022V24.711M74.0645 24.711V24.7198M74.0645 24.711V24.7198M74.0645 24.7198V24.7287M74.0645 24.7198V24.7287M74.0645 24.7287V24.7378M74.0645 24.7287V24.7378M74.0645 24.7378V24.7468M74.0645 24.7378V24.7468M74.0645 24.7468V24.756M74.0645 24.7468V24.756M74.0645 24.756V24.7653M74.0645 24.756V24.7653M74.0645 24.7653V24.7746M74.0645 24.7653V24.7746M74.0645 24.7746V24.784M74.0645 24.7746V24.784M74.0645 24.784V24.7935M74.0645 24.784V24.7935M74.0645 24.7935V24.803M74.0645 24.7935V24.803M74.0645 24.803V24.8126M74.0645 24.803V24.8126M74.0645 24.8126V24.8223M74.0645 24.8126V24.8223M74.0645 24.8223V24.8321M74.0645 24.8223V24.8321M74.0645 24.8321V24.842M74.0645 24.8321V24.842M74.0645 24.842V24.8519M74.0645 24.842V24.8519M74.0645 24.8519V24.8619M74.0645 24.8519V24.8619M74.0645 24.8619V24.872M74.0645 24.8619V24.872M74.0645 24.872V24.8822M74.0645 24.872V24.8822M74.0645 24.8822V24.8924M74.0645 24.8822V24.8924M74.0645 24.8924V24.9027M74.0645 24.8924V24.9027M74.0645 24.9027V24.9131M74.0645 24.9027V24.9131M74.0645 24.9131V24.9236M74.0645 24.9131V24.9236M74.0645 24.9236V24.9341M74.0645 24.9236V24.9341M74.0645 24.9341V24.9447M74.0645 24.9341V24.9447M74.0645 24.9447V24.9554M74.0645 24.9447V24.9554M74.0645 24.9554V24.9662M74.0645 24.9554V24.9662M74.0645 24.9662V24.977M74.0645 24.9662V24.977M74.0645 24.977V24.9879M74.0645 24.977V24.9879M74.0645 24.9879V24.9989M74.0645 24.9879V24.9989M74.0645 24.9989V25.01M74.0645 24.9989V25.01M74.0645 25.01V25.0211M74.0645 25.01V25.0211M74.0645 25.0211V25.0323M74.0645 25.0211V25.0323M74.0645 25.0323V25.0436M74.0645 25.0323V25.0436M74.0645 25.0436V25.0549M74.0645 25.0436V25.0549M74.0645 25.0549V25.0663M74.0645 25.0549V25.0663M74.0645 25.0663V25.0778M74.0645 25.0663V25.0778M74.0645 25.0778V25.0894M74.0645 25.0778V25.0894M74.0645 25.0894V25.101M74.0645 25.0894V25.101M74.0645 25.101V25.1127M74.0645 25.101V25.1127M74.0645 25.1127V25.1245M74.0645 25.1127V25.1245M74.0645 25.1245V25.1363M74.0645 25.1245V25.1363M74.0645 25.1363V25.1483M74.0645 25.1363V25.1483M74.0645 25.1483V25.1603M74.0645 25.1483V25.1603M74.0645 25.1603V25.1723M74.0645 25.1603V25.1723M74.0645 25.1723V25.1845M74.0645 25.1723V25.1845M74.0645 25.1845V25.1967M74.0645 25.1845V25.1967M74.0645 25.1967V25.2089M74.0645 25.1967V25.2089M74.0645 25.2089V25.2213M74.0645 25.2089V25.2213M74.0645 25.2213V25.2337M74.0645 25.2213V25.2337M74.0645 25.2337V25.2462M74.0645 25.2337V25.2462M74.0645 25.2462V25.2587M74.0645 25.2462V25.2587M74.0645 25.2587V25.2714M74.0645 25.2587V25.2714M74.0645 25.2714V25.2841M74.0645 25.2714V25.2841M74.0645 25.2841V25.2968M74.0645 25.2841V25.2968M74.0645 25.2968V25.3097M74.0645 25.2968V25.3097M74.0645 25.3097V25.3226M74.0645 25.3097V25.3226M74.0645 25.3226V25.3355M74.0645 25.3226V25.3355M74.0645 25.3355V25.3486M74.0645 25.3355V25.3486M74.0645 25.3486V25.3617M74.0645 25.3486V25.3617M74.0645 25.3617V25.3748M74.0645 25.3617V25.3748M74.0645 25.3748V25.3881M74.0645 25.3748V25.3881M74.0645 25.3881V25.4014M74.0645 25.3881V25.4014M74.0645 25.4014V25.4148M74.0645 25.4014V25.4148M74.0645 25.4148V25.4282M74.0645 25.4148V25.4282M74.0645 25.4282V25.4417M74.0645 25.4282V25.4417M74.0645 25.4417V25.4553M74.0645 25.4417V25.4553M74.0645 25.4553V25.4689M74.0645 25.4553V25.4689M74.0645 25.4689V25.4827M74.0645 25.4689V25.4827M74.0645 25.4827V25.4964M74.0645 25.4827V25.4964M74.0645 25.4964V25.5103M74.0645 25.4964V25.5103M74.0645 25.5103V25.5242M74.0645 25.5103V25.5242M74.0645 25.5242V25.5382M74.0645 25.5242V25.5382M74.0645 25.5382V25.5522M74.0645 25.5382V25.5522M74.0645 25.5522V25.5663M74.0645 25.5522V25.5663M74.0645 25.5663V25.5805M74.0645 25.5663V25.5805M74.0645 25.5805V25.5947M74.0645 25.5805V25.5947M74.0645 25.5947V25.609M74.0645 25.5947V25.609M74.0645 25.609V25.6234M74.0645 25.609V25.6234M74.0645 25.6234V25.6378M74.0645 25.6234V25.6378M74.0645 25.6378V25.6523M74.0645 25.6378V25.6523M74.0645 25.6523V25.6669M74.0645 25.6523V25.6669M74.0645 25.6669V25.6815M74.0645 25.6669V25.6815M74.0645 25.6815V25.6962M74.0645 25.6815V25.6962M74.0645 25.6962V25.7109M74.0645 25.6962V25.7109M74.0645 25.7109V25.7258M74.0645 25.7109V25.7258M74.0645 25.7258V25.7406M74.0645 25.7258V25.7406M74.0645 25.7406V25.7556M74.0645 25.7406V25.7556M74.0645 25.7556V25.7706M74.0645 25.7556V25.7706M74.0645 25.7706V25.7856M74.0645 25.7706V25.7856M74.0645 25.7856V25.8008M74.0645 25.7856V25.8008M74.0645 25.8008V25.816M74.0645 25.8008V25.816M74.0645 25.816V25.8312M74.0645 25.816V25.8312M74.0645 25.8312V25.8465M74.0645 25.8312V25.8465M74.0645 25.8465V25.8619M74.0645 25.8465V25.8619M74.0645 25.8619V25.8774M74.0645 25.8619V25.8774M74.0645 25.8774V25.8929M74.0645 25.8774V25.8929M74.0645 25.8929V25.9084M74.0645 25.8929V25.9084M74.0645 25.9084V25.9241M74.0645 25.9084V25.9241M74.0645 25.9241V25.9397M74.0645 25.9241V25.9397M74.0645 25.9397V25.9555M74.0645 25.9397V25.9555M74.0645 25.9555V25.9713M74.0645 25.9555V25.9713M74.0645 25.9713V25.9872M74.0645 25.9713V25.9872M74.0645 25.9872V26.0031M74.0645 25.9872V26.0031M74.0645 26.0031V26.0191M74.0645 26.0031V26.0191M74.0645 26.0191V26.0351M74.0645 26.0191V26.0351M74.0645 26.0351V26.0512M74.0645 26.0351V26.0512M74.0645 26.0512V26.0674M74.0645 26.0512V26.0674M74.0645 26.0674V26.0836M74.0645 26.0674V26.0836M74.0645 26.0836V26.0999M74.0645 26.0836V26.0999M74.0645 26.0999V26.1163M74.0645 26.0999V26.1163M74.0645 26.1163V26.1327M74.0645 26.1163V26.1327M74.0645 26.1327V26.1491M74.0645 26.1327V26.1491M74.0645 26.1491V26.1657M74.0645 26.1491V26.1657M74.0645 26.1657V26.1822M74.0645 26.1657V26.1822M74.0645 26.1822V26.1989M74.0645 26.1822V26.1989M74.0645 26.1989V26.2156M74.0645 26.1989V26.2156M74.0645 26.2156V26.2323M74.0645 26.2156V26.2323M74.0645 26.2323V26.2491M74.0645 26.2323V26.2491M74.0645 26.2491V26.266M74.0645 26.2491V26.266M74.0645 26.266V26.2829M74.0645 26.266V26.2829M74.0645 26.2829V26.2999M74.0645 26.2829V26.2999M74.0645 26.2999V26.317M74.0645 26.2999V26.317M74.0645 26.317V26.3341M74.0645 26.317V26.3341M74.0645 26.3341V26.3512M74.0645 26.3341V26.3512M74.0645 26.3512V26.3684M74.0645 26.3512V26.3684M74.0645 26.3684V26.3857M74.0645 26.3684V26.3857M74.0645 26.3857V26.403M74.0645 26.3857V26.403M74.0645 26.403V26.4204M74.0645 26.403V26.4204M74.0645 26.4204V26.4378M74.0645 26.4204V26.4378M74.0645 26.4378V26.4553M74.0645 26.4378V26.4553M74.0645 26.4553V26.4729M74.0645 26.4553V26.4729M74.0645 26.4729V26.4905M74.0645 26.4729V26.4905M74.0645 26.4905V26.5081M74.0645 26.4905V26.5081M74.0645 26.5081V26.5258M74.0645 26.5081V26.5258M74.0645 26.5258V26.5436M74.0645 26.5258V26.5436M74.0645 26.5436V26.5614M74.0645 26.5436V26.5614M74.0645 26.5614V26.5793M74.0645 26.5614V26.5793M74.0645 26.5793V26.5972M74.0645 26.5793V26.5972M74.0645 26.5972V26.6152M74.0645 26.5972V26.6152M74.0645 26.6152V26.6332M74.0645 26.6152V26.6332M74.0645 26.6332V26.6513M74.0645 26.6332V26.6513M74.0645 26.6513V26.6695M74.0645 26.6513V26.6695M74.0645 26.6695V26.6877M74.0645 26.6695V26.6877M74.0645 26.6877V26.7059M74.0645 26.6877V26.7059M74.0645 26.7059V26.7242M74.0645 26.7059V26.7242M74.0645 26.7242V26.7426M74.0645 26.7242V26.7426M74.0645 26.7426V26.761M74.0645 26.7426V26.761M74.0645 26.761V26.7794M74.0645 26.761V26.7794M74.0645 26.7794V26.7979M74.0645 26.7794V26.7979M74.0645 26.7979V26.8165M74.0645 26.7979V26.8165M74.0645 26.8165V26.8351M74.0645 26.8165V26.8351M74.0645 26.8351V26.8538M74.0645 26.8351V26.8538M74.0645 26.8538V26.8725M74.0645 26.8538V26.8725M74.0645 26.8725V26.8913M74.0645 26.8725V26.8913M74.0645 26.8913V26.9101M74.0645 26.8913V26.9101M74.0645 26.9101V26.9289M74.0645 26.9101V26.9289M74.0645 26.9289V26.9479M74.0645 26.9289V26.9479M74.0645 26.9479V26.9668M74.0645 26.9479V26.9668M74.0645 26.9668V26.9859M74.0645 26.9668V26.9859M74.0645 26.9859V27.0049M74.0645 26.9859V27.0049M74.0645 27.0049V27.024M74.0645 27.0049V27.024M74.0645 27.024V27.0432M74.0645 27.024V27.0432M74.0645 27.0432V27.0624M74.0645 27.0432V27.0624M74.0645 27.0624V27.0817M74.0645 27.0624V27.0817M74.0645 27.0817V27.101M74.0645 27.0817V27.101M74.0645 27.101V27.1204M74.0645 27.101V27.1204M74.0645 27.1204V27.1398M74.0645 27.1204V27.1398M74.0645 27.1398V27.1593M74.0645 27.1398V27.1593M74.0645 27.1593V27.1788M74.0645 27.1593V27.1788M74.0645 27.1788V27.1983M74.0645 27.1788V27.1983M74.0645 27.1983V27.218M74.0645 27.1983V27.218M74.0645 27.218V27.2376M74.0645 27.218V27.2376M74.0645 27.2376V27.2573M74.0645 27.2376V27.2573M74.0645 27.2573V27.2771M74.0645 27.2573V27.2771M74.0645 27.2771V27.2969M74.0645 27.2771V27.2969M74.0645 27.2969V27.3167M74.0645 27.2969V27.3167M74.0645 27.3167V27.3366M74.0645 27.3167V27.3366M74.0645 27.3366V27.3566M74.0645 27.3366V27.3566M74.0645 27.3566V27.3766M74.0645 27.3566V27.3766M74.0645 27.3766V27.3966M74.0645 27.3766V27.3966M74.0645 27.3966V27.4167M74.0645 27.3966V27.4167M74.0645 27.4167V27.4368M74.0645 27.4167V27.4368M74.0645 27.4368V27.457M74.0645 27.4368V27.457M74.0645 27.457V27.4772M74.0645 27.457V27.4772M74.0645 27.4772V27.4975M74.0645 27.4772V27.4975M74.0645 27.4975V27.5178M74.0645 27.4975V27.5178M74.0645 27.5178V27.5381M74.0645 27.5178V27.5381M74.0645 27.5381V27.5585M74.0645 27.5381V27.5585M74.0645 27.5585V27.579M74.0645 27.5585V27.579M74.0645 27.579V27.5995M74.0645 27.579V27.5995M74.0645 27.5995V27.62M74.0645 27.5995V27.62M74.0645 27.62V27.6406M74.0645 27.62V27.6406M74.0645 27.6406V27.6612M74.0645 27.6406V27.6612M74.0645 27.6612V27.6819M74.0645 27.6612V27.6819M74.0645 27.6819V27.7026M74.0645 27.6819V27.7026M74.0645 27.7026V27.7233M74.0645 27.7026V27.7233M74.0645 27.7233V27.7441M74.0645 27.7233V27.7441M74.0645 27.7441V27.765M74.0645 27.7441V27.765M74.0645 27.765V27.7859M74.0645 27.765V27.7859M74.0645 27.7859V27.8068M74.0645 27.7859V27.8068M74.0645 27.8068V27.8278M74.0645 27.8068V27.8278M74.0645 27.8278V27.8488M74.0645 27.8278V27.8488M74.0645 27.8488V27.8698M74.0645 27.8488V27.8698M74.0645 27.8698V27.8909M74.0645 27.8698V27.8909M74.0645 27.8909V27.9121M74.0645 27.8909V27.9121M74.0645 27.9121V27.9333M74.0645 27.9121V27.9333M74.0645 27.9333V27.9545M74.0645 27.9333V27.9545M74.0645 27.9545V27.9757M74.0645 27.9545V27.9757M74.0645 27.9757V27.9971M74.0645 27.9757V27.9971M74.0645 27.9971V28.0184M74.0645 27.9971V28.0184M74.0645 28.0184V28.0398M74.0645 28.0184V28.0398M74.0645 28.0398V28.0612M74.0645 28.0398V28.0612M74.0645 28.0612V28.0827M74.0645 28.0612V28.0827M74.0645 28.0827V28.1042M74.0645 28.0827V28.1042M74.0645 28.1042V28.1258M74.0645 28.1042V28.1258M74.0645 28.1258V28.1473M74.0645 28.1258V28.1473M74.0645 28.1473V28.169M74.0645 28.1473V28.169M74.0645 28.169V28.1906M74.0645 28.169V28.1906M74.0645 28.1906V28.2124M74.0645 28.1906V28.2124M74.0645 28.2124V28.2341M74.0645 28.2124V28.2341M74.0645 28.2341V28.2559M74.0645 28.2341V28.2559M74.0645 28.2559V28.2777M74.0645 28.2559V28.2777M74.0645 28.2777V28.2996M74.0645 28.2777V28.2996M74.0645 28.2996V28.3215M74.0645 28.2996V28.3215M74.0645 28.3215V28.3434M74.0645 28.3215V28.3434M74.0645 28.3434V28.3654M74.0645 28.3434V28.3654M74.0645 28.3654V28.3874M74.0645 28.3654V28.3874M74.0645 28.3874V28.4095M74.0645 28.3874V28.4095M74.0645 28.4095V28.4316M74.0645 28.4095V28.4316M74.0645 28.4316V28.4537M74.0645 28.4316V28.4537M74.0645 28.4537V28.4759M74.0645 28.4537V28.4759M74.0645 28.4759V28.4981M74.0645 28.4759V28.4981M74.0645 28.4981V28.5204M74.0645 28.4981V28.5204M74.0645 28.5204V28.5426M74.0645 28.5204V28.5426M74.0645 28.5426V28.565M74.0645 28.5426V28.565M74.0645 28.565V28.5873M74.0645 28.565V28.5873M74.0645 28.5873V28.6097M74.0645 28.5873V28.6097M74.0645 28.6097V28.6321M74.0645 28.6097V28.6321M74.0645 28.6321V28.6546M74.0645 28.6321V28.6546M74.0645 28.6546V28.6771M74.0645 28.6546V28.6771M74.0645 28.6771V28.6996M74.0645 28.6771V28.6996M74.0645 28.6996V28.7222M74.0645 28.6996V28.7222M74.0645 28.7222V28.7448M74.0645 28.7222V28.7448M74.0645 28.7448V28.7674M74.0645 28.7448V28.7674M74.0645 28.7674V28.7901M74.0645 28.7674V28.7901M74.0645 28.7901V28.8128M74.0645 28.7901V28.8128M74.0645 28.8128V28.8356M74.0645 28.8128V28.8356M74.0645 28.8356V28.8584M74.0645 28.8356V28.8584M74.0645 28.8584V28.8812M74.0645 28.8584V28.8812M74.0645 28.8812V28.904M74.0645 28.8812V28.904M74.0645 28.904V28.9269M74.0645 28.904V28.9269M74.0645 28.9269V28.9498M74.0645 28.9269V28.9498M74.0645 28.9498V28.9728M74.0645 28.9498V28.9728M74.0645 28.9728V28.9957M74.0645 28.9728V28.9957M74.0645 28.9957V29.0188M74.0645 28.9957V29.0188M74.0645 29.0188V29.0418M74.0645 29.0188V29.0418M74.0645 29.0418V29.0649M74.0645 29.0418V29.0649M74.0645 29.0649V29.088M74.0645 29.0649V29.088M74.0645 29.088V29.1111M74.0645 29.088V29.1111M74.0645 29.1111V29.1343M74.0645 29.1111V29.1343M74.0645 29.1343V29.1575M74.0645 29.1343V29.1575M74.0645 29.1575V29.1808M74.0645 29.1575V29.1808M74.0645 29.1808V29.204M74.0645 29.1808V29.204M74.0645 29.204V29.2273M74.0645 29.204V29.2273M74.0645 29.2273V29.2507M74.0645 29.2273V29.2507M74.0645 29.2507V29.2741M74.0645 29.2507V29.2741M74.0645 29.2741V29.2974M74.0645 29.2741V29.2974M74.0645 29.2974V29.3209M74.0645 29.2974V29.3209M74.0645 29.3209V29.3443M74.0645 29.3209V29.3443M74.0645 29.3443V29.3678M74.0645 29.3443V29.3678M74.0645 29.3678V29.3913M74.0645 29.3678V29.3913M74.0645 29.3913V29.4149M74.0645 29.3913V29.4149M74.0645 29.4149V29.4385M74.0645 29.4149V29.4385M74.0645 29.4385V29.4621M74.0645 29.4385V29.4621M74.0645 29.4621V29.4857M74.0645 29.4621V29.4857M74.0645 29.4857V29.5094M74.0645 29.4857V29.5094M74.0645 29.5094V29.5331M74.0645 29.5094V29.5331M74.0645 29.5331V29.5568M74.0645 29.5331V29.5568M74.0645 29.5568V29.5806M74.0645 29.5568V29.5806M74.0645 29.5806V29.6044M74.0645 29.5806V29.6044M74.0645 29.6044V29.6282M74.0645 29.6044V29.6282M74.0645 29.6282V29.652M74.0645 29.6282V29.652M74.0645 29.652V29.6759M74.0645 29.652V29.6759M74.0645 29.6759V29.6998M74.0645 29.6759V29.6998M74.0645 29.6998V29.7237M74.0645 29.6998V29.7237M74.0645 29.7237V29.7477M74.0645 29.7237V29.7477M74.0645 29.7477V29.7716M74.0645 29.7477V29.7716M74.0645 29.7716V29.7956M74.0645 29.7716V29.7956M74.0645 29.7956V29.8197M74.0645 29.7956V29.8197M74.0645 29.8197V29.8437M74.0645 29.8197V29.8437M74.0645 29.8437V29.8678M74.0645 29.8437V29.8678M74.0645 29.8678V29.8919M74.0645 29.8678V29.8919M74.0645 29.8919V29.9161M74.0645 29.8919V29.9161M74.0645 29.9161V29.9402M74.0645 29.9161V29.9402M74.0645 29.9402V29.9644M74.0645 29.9402V29.9644M74.0645 29.9644V29.9886M74.0645 29.9644V29.9886M74.0645 29.9886V30.0129M74.0645 29.9886V30.0129M74.0645 30.0129V30.0372M74.0645 30.0129V30.0372M74.0645 30.0372V30.0615M74.0645 30.0372V30.0615M74.0645 30.0615V30.0858M74.0645 30.0615V30.0858M74.0645 30.0858V30.1101M74.0645 30.0858V30.1101M74.0645 30.1101V30.1345M74.0645 30.1101V30.1345M74.0645 30.1345V30.1589M74.0645 30.1345V30.1589M74.0645 30.1589V30.1833M74.0645 30.1589V30.1833M74.0645 30.1833V30.2077M74.0645 30.1833V30.2077M74.0645 30.2077V30.2322M74.0645 30.2077V30.2322M74.0645 30.2322V30.2567M74.0645 30.2322V30.2567M74.0645 30.2567V30.2812M74.0645 30.2567V30.2812M74.0645 30.2812V30.3057M74.0645 30.2812V30.3057M74.0645 30.3057V30.3303M74.0645 30.3057V30.3303M74.0645 30.3303V30.3549M74.0645 30.3303V30.3549M74.0645 30.3549V30.3795M74.0645 30.3549V30.3795M74.0645 30.3795V30.4041M74.0645 30.3795V30.4041M74.0645 30.4041V30.4288M74.0645 30.4041V30.4288M74.0645 30.4288V30.4534M74.0645 30.4288V30.4534M74.0645 30.4534V30.4781M74.0645 30.4534V30.4781M74.0645 30.4781V30.5028M74.0645 30.4781V30.5028M74.0645 30.5028V30.5276M74.0645 30.5028V30.5276M74.0645 30.5276V30.5523M74.0645 30.5276V30.5523M74.0645 30.5523V30.5771M74.0645 30.5523V30.5771M74.0645 30.5771V30.6019M74.0645 30.5771V30.6019M74.0645 30.6019V30.6268M74.0645 30.6019V30.6268M74.0645 30.6268V30.6516M74.0645 30.6268V30.6516M74.0645 30.6516V30.6765M74.0645 30.6516V30.6765M74.0645 30.6765V30.7014M74.0645 30.6765V30.7014M74.0645 30.7014V30.7263M74.0645 30.7014V30.7263M74.0645 30.7263V30.7512M74.0645 30.7263V30.7512M74.0645 30.7512V30.7761M74.0645 30.7512V30.7761M74.0645 30.7761V30.8011M74.0645 30.7761V30.8011M74.0645 30.8011V30.8261M74.0645 30.8011V30.8261M74.0645 30.8261V30.8511M74.0645 30.8261V30.8511M74.0645 30.8511V30.8761M74.0645 30.8511V30.8761M74.0645 30.8761V30.9012M74.0645 30.8761V30.9012M74.0645 30.9012V30.9262M74.0645 30.9012V30.9262M74.0645 30.9262V30.9513M74.0645 30.9262V30.9513M74.0645 30.9513V30.9764M74.0645 30.9513V30.9764M74.0645 30.9764V31.0015M74.0645 30.9764V31.0015M74.0645 31.0015V31.0267M74.0645 31.0015V31.0267M74.0645 31.0267V31.0518M74.0645 31.0267V31.0518M74.0645 31.0518V31.077M74.0645 31.0518V31.077M74.0645 31.077V31.1022M74.0645 31.077V31.1022M74.0645 31.1022V31.1274M74.0645 31.1022V31.1274M74.0645 31.1274V31.1526M74.0645 31.1274V31.1526M74.0645 31.1526V31.1779M74.0645 31.1526V31.1779M74.0645 31.1779V31.2031M74.0645 31.1779V31.2031M74.0645 31.2031V31.2284M74.0645 31.2031V31.2284M74.0645 31.2284V31.2537M74.0645 31.2284V31.2537M74.0645 31.2537V31.279M74.0645 31.2537V31.279M74.0645 31.279V31.3043M74.0645 31.279V31.3043M74.0645 31.3043V31.3297M74.0645 31.3043V31.3297M74.0645 31.3297V31.355M74.0645 31.3297V31.355M74.0645 31.355V31.3804M74.0645 31.355V31.3804M74.0645 31.3804V31.4058M74.0645 31.3804V31.4058M74.0645 31.4058V31.4312M74.0645 31.4058V31.4312M74.0645 31.4312V31.4566M74.0645 31.4312V31.4566M74.0645 31.4566V31.4821M74.0645 31.4566V31.4821M74.0645 31.4821V31.5075M74.0645 31.4821V31.5075M74.0645 31.5075V31.533M74.0645 31.5075V31.533M74.0645 31.533V31.5584M74.0645 31.533V31.5584M74.0645 31.5584V31.5839M74.0645 31.5584V31.5839M74.0645 31.5839V31.6094M74.0645 31.5839V31.6094M74.0645 31.6094V31.635M74.0645 31.6094V31.635M74.0645 31.635V31.6605M74.0645 31.635V31.6605M74.0645 31.6605V31.6861M74.0645 31.6605V31.6861M74.0645 31.6861V31.7116M74.0645 31.6861V31.7116M74.0645 31.7116V31.7372M74.0645 31.7116V31.7372M74.0645 31.7372V31.7628M74.0645 31.7372V31.7628M74.0645 31.7628V31.7884M74.0645 31.7628V31.7884M74.0645 31.7884V31.814M74.0645 31.7884V31.814M74.0645 31.814V31.8396M74.0645 31.814V31.8396M74.0645 31.8396V31.8653M74.0645 31.8396V31.8653M74.0645 31.8653V31.8909M74.0645 31.8653V31.8909M74.0645 31.8909V31.9166M74.0645 31.8909V31.9166M74.0645 31.9166V31.9422M74.0645 31.9166V31.9422M74.0645 31.9422V31.9679M74.0645 31.9422V31.9679M74.0645 31.9679V31.9936M74.0645 31.9679V31.9936M74.0645 31.9936V32.0193M74.0645 31.9936V32.0193M74.0645 32.0193V32.0451M74.0645 32.0193V32.0451M74.0645 32.0451V32.0708M74.0645 32.0451V32.0708M74.0645 32.0708V32.0965M74.0645 32.0708V32.0965M74.0645 32.0965V32.1223M74.0645 32.0965V32.1223M74.0645 32.1223V32.148M74.0645 32.1223V32.148M74.0645 32.148V32.1738M74.0645 32.148V32.1738M74.0645 32.1738V32.1996M74.0645 32.1738V32.1996M74.0645 32.1996V32.2254M74.0645 32.1996V32.2254M74.0645 32.2254V32.2512M74.0645 32.2254V32.2512M74.0645 32.2512V32.277M74.0645 32.2512V32.277M74.0645 32.277V32.3028M74.0645 32.277V32.3028M74.0645 32.3028V32.3287M74.0645 32.3028V32.3287M74.0645 32.3287V32.3545M74.0645 32.3287V32.3545M74.0645 32.3545V32.3803M74.0645 32.3545V32.3803M74.0645 32.3803V32.4062M74.0645 32.3803V32.4062M74.0645 32.4062V32.4321M74.0645 32.4062V32.4321M74.0645 32.4321V32.4579M74.0645 32.4321V32.4579M74.0645 32.4579V32.4838M74.0645 32.4579V32.4838M74.0645 32.4838V32.5097M74.0645 32.4838V32.5097M74.0645 32.5097V32.5356M74.0645 32.5097V32.5356M74.0645 32.5356V32.5615M74.0645 32.5356V32.5615M74.0645 32.5615V32.5874M74.0645 32.5615V32.5874M74.0645 32.5874V32.6133M74.0645 32.5874V32.6133M74.0645 32.6133V32.6393M74.0645 32.6133V32.6393M74.0645 32.6393V32.6652M74.0645 32.6393V32.6652M74.0645 32.6652V32.6911M74.0645 32.6652V32.6911M74.0645 32.6911V32.7171M74.0645 32.6911V32.7171M74.0645 32.7171V32.743M74.0645 32.7171V32.743M74.0645 32.743V32.769M74.0645 32.743V32.769M74.0645 32.769V32.7949M74.0645 32.769V32.7949M74.0645 32.7949V32.8209V32.7949ZM24.3869 45.3689V45.4039L24.3965 45.4376C24.8179 46.9123 25.9408 48.2806 27.5601 49.4998C29.1819 50.721 31.3218 51.808 33.8159 52.715C38.8046 54.5291 45.244 55.6346 51.8795 55.6346C58.9285 55.6346 64.6749 54.0234 68.8154 52.0036C70.8852 50.9939 72.5566 49.8808 73.7896 48.813C75.0168 47.7503 75.8292 46.7157 76.1511 45.8573L76.167 45.8149V45.7696V45.3689V45.3618V45.3547V45.3474V45.3401V45.3327V45.3252V45.3176V45.31V45.3022V45.2944V45.2865V45.2785V45.2705V45.2623V45.2541V45.2458V45.2374V45.229V45.2204V45.2118V45.2031V45.1943V45.1855V45.1766V45.1675V45.1585V45.1493V45.14V45.1307V45.1213V45.1119V45.1023V45.0927V45.083V45.0732V45.0633V45.0534V45.0434V45.0333V45.0231V45.0129V45.0026V44.9922V44.9817V44.9712V44.9606V44.9499V44.9391V44.9283V44.9174V44.9064V44.8954V44.8842V44.873V44.8617V44.8504V44.839V44.8275V44.8159V44.8043V44.7926V44.7808V44.769V44.757V44.745V44.733V44.7208V44.7086V44.6964V44.684V44.6716V44.6591V44.6466V44.6339V44.6212V44.6085V44.5956V44.5828V44.5698V44.5567V44.5436V44.5305V44.5172V44.5039V44.4905V44.4771V44.4636V44.45V44.4364V44.4227V44.4089V44.395V44.3811V44.3671V44.3531V44.339V44.3248V44.3106V44.2963V44.2819V44.2675V44.253V44.2384V44.2238V44.2091V44.1944V44.1795V44.1647V44.1497V44.1347V44.1197V44.1045V44.0893V44.0741V44.0588V44.0434V44.0279V44.0124V43.9969V43.9812V43.9656V43.9498V43.934V43.9181V43.9022V43.8862V43.8702V43.8541V43.8379V43.8217V43.8054V43.789V43.7726V43.7562V43.7396V43.7231V43.7064V43.6897V43.673V43.6562V43.6393V43.6224V43.6054V43.5883V43.5712V43.5541V43.5369V43.5196V43.5023V43.4849V43.4675V43.45V43.4324V43.4148V43.3972V43.3795V43.3617V43.3439V43.326V43.3081V43.2901V43.2721V43.254V43.2358V43.2176V43.1994V43.1811V43.1627V43.1443V43.1259V43.1074V43.0888V43.0702V43.0515V43.0328V43.014V42.9952V42.9764V42.9574V42.9385V42.9195V42.9004V42.8813V42.8621V42.8429V42.8236V42.8043V42.7849V42.7655V42.746V42.7265V42.707V42.6873V42.6677V42.648V42.6282V42.6084V42.5886V42.5687V42.5487V42.5287V42.5087V42.4886V42.4685V42.4483V42.4281V42.4078V42.3875V42.3672V42.3468V42.3263V42.3058V42.2853V42.2647V42.2441V42.2234V42.2027V42.182V42.1612V42.1403V42.1194V42.0985V42.0775V42.0565V42.0355V42.0144V41.9932V41.972V41.9508V41.9296V41.9082V41.8869V41.8655V41.8441V41.8226V41.8011V41.7796V41.758V41.7363V41.7147V41.6929V41.6712V41.6494V41.6276V41.6057V41.5838V41.5619V41.5399V41.5179V41.4958V41.4737V41.4516V41.4294V41.4072V41.3849V41.3627V41.3403V41.318V41.2956V41.2732V41.2507V41.2282V41.2057V41.1831V41.1605V41.1379V41.1152V41.0925V41.0697V41.0469V41.0241V41.0013V40.9784V40.9555V40.9325V40.9096V40.8865V40.8635V40.8404V40.8173V40.7942V40.771V40.7478V40.7245V40.7013V40.678V40.6546V40.6313V40.6079V40.5844V40.561V40.5375V40.514V40.4904V40.4668V40.4432V40.4196V40.3959V40.3722V40.3485V40.3247V40.3009V40.2771V40.2533V40.2294V40.2055V40.1816V40.1576V40.1337V40.1097V40.0856V40.0616V40.0375V40.0134V39.9892V39.9651V39.9409V39.9167V39.8924V39.8681V39.8438V39.8195V39.7952V39.7708V39.7464V39.722V39.6976V39.6731V39.6486V39.6241V39.5996V39.575V39.5504V39.5258V39.5012V39.4765V39.4519V39.4272V39.4025V39.3777V39.353V39.3282V39.3034V39.2785V39.2537V39.2288V39.204V39.179V39.1541V39.1292V39.1042V39.0792V39.0542V39.0292V39.0041V38.9791V38.954V38.9289V38.9038V38.8786V38.8535V38.8283V38.8031V38.7779V38.7527V38.7274V38.7022V38.6769V38.6516V38.6263V38.601V38.5756V38.5503V38.5249V38.4995V38.4741V38.4487V38.4233V38.3978V38.3723V38.3469V38.3214V38.2959V38.2703V38.2448V38.2193V38.1937V38.1681V38.1425V38.1169V38.0913V38.0657V38.04V38.0144V37.9887V37.9631V37.9374V37.9117V37.886V37.8602V37.8345V37.8088V37.783V37.7573V37.7315V37.7057V37.6799V37.6541V37.6283V37.6025V37.5766V37.5508V37.525V37.4991V37.4732V37.4474V37.4215V37.3956V37.3697V37.3438V37.3179V37.292V37.266V37.2401V37.2142V37.1882V37.1623V37.1363V37.1104V37.0844V37.0584V37.0324V37.0065V36.9805V36.9545V36.9285V36.9025V36.8765V36.8504V36.8244V36.7984V36.7724V36.7464V36.7203V36.6943V36.6683V36.6422V36.6162V36.5901V36.5641V36.5381V36.512V36.486V36.4599V36.4338V36.4078V36.3817V36.3557V36.3296V36.3036V36.2775V36.2515V36.2254V36.1993V36.1733V36.1472V36.1212V36.0951V36.0691V36.043V36.017V35.9909V35.9649V35.9389V35.9128V35.8868V35.8607V35.8347V35.8087V35.7827V35.7566V35.7306V35.7046V35.6786V35.6526V35.6266V35.6006V35.5746V35.5486V35.5226V35.4966V35.4707V35.4447V35.4188V35.3928V35.3668V35.3409V35.315V35.289V35.2631V35.2372V35.2113V35.1854V35.1595V35.1336V35.1077V35.0819V35.056V35.0302V35.0043V34.9785V34.9527V34.9268V34.901V34.8751V34.8493V34.8234V34.7976V34.7717V34.7458V34.7199V34.694V34.6681V34.6422V34.6163V34.5903V34.5644V34.5385V34.5125V34.4865V34.4606V34.4346V34.4087V34.3827V34.3567V34.3307V34.3047V34.2787V34.2527V34.2267V34.2007V34.1747V34.1487V34.1226V34.0966V34.0706V34.0446V34.0185V33.9925V33.9664V33.9404V33.9144V33.8883V33.8623V33.8362V33.8102V33.7841V33.7581V33.732V33.706V33.6799V33.6538V33.6278V33.6017V33.5757V33.5496V33.5236V33.4975V33.4715V33.4454V33.4193V33.3933V33.3672V33.3412V33.3152V33.2891V33.2631V33.237V33.211V33.185V33.1589V33.1329V33.1069V33.0809V33.0549V33.0288V33.0028V32.9768V32.9508V32.9248V32.8988V32.8729V32.8469V32.8209V32.7949V32.769V32.743V32.7171V32.6911V32.6652V32.6393V32.6133V32.5874V32.5615V32.5356V32.5097V32.4838V32.4579V32.4321V32.4062V32.3803V32.3545V32.3287V32.3028V32.277V32.2512V32.2254V32.1996V32.1738V32.148V32.1223V32.0965V32.0708V32.0451V32.0193V31.9936V31.9679V31.9422V31.9166V31.8909V31.8653V31.8396V31.814V31.7884V31.7628V31.7372V31.7116V31.6861V31.6605V31.635V31.6094V31.5839V31.5584V31.533V31.5075V31.4821V31.4566V31.4312V31.4058V31.3804V31.355V31.3297V31.3043V31.279V31.2537V31.2284V31.2031V31.1779V31.1526V31.1274V31.1022V31.077V31.0518V31.0267V31.0015V30.9764V30.9513V30.9262V30.9012V30.8761V30.8511V30.8261V30.8011V30.7761V30.7512V30.7263V30.7014V30.6765V30.6516V30.6268V30.6019V30.5771V30.5523V30.5276V30.5028V30.4781V30.4534V30.4288V30.4041V30.3795V30.3549V30.3303V30.3057V30.2812V30.2567V30.2322V30.2077V30.1833V30.1589V30.1345V30.1101V30.0858V30.0615V30.0372V30.0129V29.9886V29.9644V29.9402V29.9161V29.8919V29.8678V29.8437V29.8197V29.7956V29.7716V29.7477V29.7237V29.6998V29.6759V29.652V29.6282V29.6044V29.5806V29.5568V29.5331V29.5094V29.4857V29.4621V29.4385V29.4149V29.3913V29.3678V29.3443V29.3209V29.2974V29.2741V29.2507V29.2273V29.204V29.1808V29.1575V29.1343V29.1111V29.088V29.0649V29.0418V29.0188V28.9957V28.9728V28.9498V28.9269V28.904V28.8812V28.8584V28.8356V28.8128V28.7901V28.7674V28.7448V28.7222V28.6996V28.6771V28.6546V28.6321V28.6097V28.5873V28.565V28.5426V28.5204V28.4981V28.4759V28.4537V28.4316V28.4095V28.3874V28.3654V28.3434V28.3215V28.2996V28.2777V28.2559V28.2341V28.2124V28.1906V28.169V28.1473V28.1258V28.1042V28.0827V28.0612V28.0398V28.0184V27.9971V27.9757V27.9545V27.9333V27.9121V27.8909V27.8698V27.8488V27.8278V27.8068V27.7859V27.765V27.7441V27.7233V27.7026V27.6819V27.6612V27.6406V27.62V27.5995V27.579V27.5585V27.5381V27.5178V27.4975V27.4772V27.457V27.4368V27.4167V27.3966V27.3766V27.3566V27.3366V27.3167V27.2969V27.2771V27.2573V27.2376V27.218V27.1983V27.1788V27.1593V27.1398V27.1204V27.101V27.0817V27.0624V27.0432V27.024V27.0049V26.9859V26.9668V26.9479V26.9289V26.9101V26.8913V26.8725V26.8538V26.8351V26.8165V26.7979V26.7794V26.761V26.7426V26.7242V26.7059V26.6877V26.6695V26.6513V26.6332V26.6152V26.5972V26.5793V26.5614V26.5436V26.5258V26.5081V26.4905V26.4729V26.4553V26.4378V26.4204V26.403V26.3857V26.3684V26.3512V26.3341V26.317V26.2999V26.2829V26.266V26.2491V26.2323V26.2156V26.1989V26.1822V26.1657V26.1491V26.1327V26.1163V26.0999V26.0836V26.0674V26.0512V26.0351V26.0191V26.0031V25.9872V25.9713V25.9555V25.9397V25.9241V25.9084V25.8929V25.8774V25.8619V25.8465V25.8312V25.816V25.8008V25.7856V25.7706V25.7556V25.7406V25.7258V25.7109V25.6962V25.6815V25.6669V25.6523V25.6378V25.6234V25.609V25.5947V25.5805V25.5663V25.5522V25.5382V25.5242V25.5103V25.4964V25.4827V25.4689V25.4553V25.4417V25.4282V25.4148V25.4014V25.3881V25.3748V25.3617V25.3486V25.3355V25.3226V25.3097V25.2968V25.2841V25.2714V25.2587V25.2462V25.2337V25.2213V25.2089V25.1967V25.1845V25.1723V25.1603V25.1483V25.1363V25.1245V25.1127V25.101V25.0894V25.0778V25.0663V25.0549V25.0436V25.0323V25.0211V25.01V24.9989V24.9879V24.977V24.9662V24.9554V24.9447V24.9341V24.9236V24.9131V24.9027V24.8924V24.8822V24.872V24.8619V24.8519V24.842V24.8321V24.8223V24.8126V24.803V24.7935V24.784V24.7746V24.7653V24.756V24.7468V24.7378V24.7287V24.7198V24.711V24.7022V24.6935V24.6849V24.6763V24.6679V24.6595V24.6512V24.643V24.6348V24.6268V24.6188V24.6109V24.6031V24.5953V24.5877V24.5801V24.5726V24.5652V24.5579V24.5506V24.5435V24.5364C76.167 21.1713 73.2308 18.3057 68.6051 16.2946C63.9583 14.2742 57.5123 13.0688 50.277 13.0688C43.0416 13.0688 36.5956 14.2742 31.9488 16.2946C27.3232 18.3057 24.3869 21.1713 24.3869 24.5364V44.9683V45.3689Z" fill="#7B0A20" stroke="#7B0A20" stroke-width="0.5"/>
<path d="M32.4988 26.54V26.29H32.2488H30.6463H30.3963V26.54V45.3695V45.6195H30.6463H32.2488H32.4988V45.3695V26.54Z" fill="#7B0A20" stroke="#7B0A20" stroke-width="0.5"/>
<path d="M53.482 2.10174C51.8795 1.70111 50.277 1.70111 48.6745 2.10174L1.80124 15.723V20.5305L49.0751 34.9531C50.277 35.3537 51.8795 35.3537 53.0814 34.9531L98.3521 20.5305V15.723L53.482 2.10174Z" fill="white"/>
<path d="M53.482 2.10174C51.8795 1.70111 50.277 1.70111 48.6745 2.10174L1.80124 15.723V20.5305L49.0751 34.9531C50.277 35.3537 51.8795 35.3537 53.0814 34.9531L98.3521 20.5305V15.723L53.482 2.10174Z" stroke="#7B0A20"/>
<path d="M0.75 20.9311V21.1152L0.925774 21.1699L48.5812 35.9871C49.4292 36.405 50.2747 36.405 51.0584 36.4049H51.0782C51.5098 36.4049 51.9356 36.2984 52.3265 36.2007L52.3408 36.1972C52.7472 36.0955 53.1175 36.0043 53.482 36.0043H53.5206L53.5574 35.9927L85.2069 25.977L85.486 25.8887L85.3551 25.6268L84.5538 24.0243L84.4583 23.8334L84.2548 23.8978L52.6053 33.9134L52.6017 33.9146C51.4511 34.2981 50.3047 34.2981 49.1542 33.9146L49.1542 33.9146L49.1492 33.913L2.8525 19.5451V16.3124L49.1396 3.14454C50.6987 2.75525 51.8575 2.75516 53.4164 3.14426L98.1021 16.3106V19.5524L91.4583 21.8973L91.2438 21.973L91.2989 22.1937L91.6996 23.7962L91.7671 24.0664L92.0285 23.9701L99.6404 21.1657L99.804 21.1055V20.9311V14.9218V14.7354L99.6254 14.6822L53.9541 1.0609L53.9542 1.06066L53.9433 1.05793C52.3009 0.647355 50.2562 0.647355 48.6139 1.05793L48.6138 1.0578L48.6058 1.06009L0.93132 14.6814L0.75 14.7332V14.9218V20.9311Z" fill="#7B0A20" stroke="#7B0A20" stroke-width="0.5"/>
<path d="M88.3365 42.4139H88.5947L88.5863 42.1559L88.1858 29.7405C88.1843 26.8456 86.5272 24.3375 84.0086 23.498L84.0087 23.4978L84.0006 23.4954L51.5499 13.8804L51.2996 13.8063L51.2363 14.0595L50.8357 15.662L50.7776 15.8943L51.0072 15.9623L83.4579 25.5773L83.4688 25.5806L83.4799 25.5828C85.3324 25.9533 86.484 27.8224 86.484 29.7445V42.1639V42.4139H86.734H88.3365Z" fill="#7B0A20" stroke="#7B0A20" stroke-width="0.5"/>
<rect width="14.3538" height="20.0313" fill="black" fill-opacity="0" transform="translate(80.5586 44.9692)"/>
<path d="M94.1878 60.9339L94.1881 60.9338L94.1842 60.921L89.3767 45.2966L89.3224 45.1201H89.1377H85.9327H85.7435L85.6921 45.3023L81.2852 60.9267L81.2851 60.9266L81.2833 60.9339C81.0519 61.8596 81.5218 62.7486 82.2076 63.3817C82.8954 64.0166 83.8551 64.4495 84.7308 64.4495H91.1409C91.8315 64.4495 92.6926 64.0029 93.3208 63.3747C93.9511 62.7444 94.4186 61.8573 94.1878 60.9339Z" fill="white" stroke="#7B0A20" stroke-width="0.5"/>
<path d="M80.9016 63.5098L80.9197 63.5461L80.9484 63.5748C81.7659 64.3923 83.0286 65.2505 84.3302 65.2505H90.7402C91.3903 65.2505 92.1284 65.0358 92.798 64.7267C93.469 64.4171 94.0964 64.001 94.5226 63.5748L94.5513 63.5461L94.5695 63.5098L94.5761 63.4965C94.7717 63.1054 94.9823 62.6842 95.0892 62.2568C95.1979 61.8218 95.2039 61.3637 94.9799 60.9025L90.1784 44.8974L90.125 44.7192H89.939H85.5321H85.3461L85.2926 44.8974L80.4911 60.9025C80.2671 61.3637 80.2731 61.8218 80.3819 62.2568C80.4887 62.6842 80.6993 63.1054 80.8949 63.4965L80.9016 63.5098ZM82.9513 62.485L82.9332 62.4487L82.9045 62.42C82.5912 62.1068 82.5776 61.8101 82.5771 61.4303L86.9219 46.4211H88.9498L93.2934 61.4261C93.2838 61.5481 93.2196 61.6862 93.1207 61.884C93.1171 61.8912 93.1135 61.8985 93.1098 61.9058C93.0254 62.0741 92.9147 62.2952 92.8965 62.5311C92.5368 63.2055 91.8454 63.5487 91.1408 63.5487H84.7308C84.0104 63.5487 83.3037 63.1898 82.9513 62.485Z" fill="#7B0A20" stroke="#7B0A20" stroke-width="0.5"/>
<rect width="11.2175" height="11.2175" fill="black" fill-opacity="0" transform="translate(81.9264 36.5557)"/>
<path d="M87.5352 47.2215C90.3284 47.2215 92.5927 44.9571 92.5927 42.164C92.5927 39.3708 90.3284 37.1064 87.5352 37.1064C84.742 37.1064 82.4777 39.3708 82.4777 42.164C82.4777 44.9571 84.742 47.2215 87.5352 47.2215Z" fill="white" stroke="#7B0A20" stroke-width="0.5"/>
<path d="M83.3521 46.3475C83.9737 46.969 84.6034 47.3911 85.2921 47.656C85.9796 47.9204 86.7131 48.0232 87.5352 48.0232C90.8783 48.0232 93.3939 45.5075 93.3939 42.1644C93.3939 41.3423 93.2912 40.6089 93.0267 39.9213C92.7619 39.2326 92.3398 38.603 91.7182 37.9814C91.0967 37.3598 90.467 36.9378 89.7783 36.6729C89.0907 36.4084 88.3573 36.3057 87.5352 36.3057C84.1921 36.3057 81.6764 38.8214 81.6764 42.1644C81.6764 42.9866 81.7792 43.72 82.0436 44.4075C82.3085 45.0962 82.7306 45.7259 83.3521 46.3475ZM83.7789 42.5651C83.7789 40.3153 85.6536 38.8088 87.5352 38.8088C88.107 38.8088 88.5722 38.9038 88.9861 39.0877C89.401 39.2721 89.7769 39.5516 90.1628 39.9374C90.5487 40.3233 90.8281 40.6993 91.0125 41.1142C91.1964 41.528 91.2914 41.9933 91.2914 42.5651C91.2914 44.8148 89.4168 46.3213 87.5352 46.3213C86.9634 46.3213 86.4981 46.2263 86.0843 46.0424C85.6694 45.858 85.2934 45.5785 84.9076 45.1927C84.5217 44.8068 84.2423 44.4309 84.0578 44.0159C83.8739 43.6021 83.7789 43.1368 83.7789 42.5651Z" fill="#7B0A20" stroke="#7B0A20" stroke-width="0.5"/>
</svg>
