<svg width="61" height="66" viewBox="0 0 61 66" fill="none" xmlns="http://www.w3.org/2000/svg">
<rect width="59.2593" height="64" fill="black" fill-opacity="0" transform="translate(1 1)"/>
<rect width="59.2593" height="64" fill="black" fill-opacity="0" transform="translate(1 1)"/>
<rect width="23.7037" height="20.5432" fill="black" fill-opacity="0" transform="translate(33.1975 16.21)"/>
<path d="M51.2454 36.7532V36.8782H51.3704C53.9956 36.8782 57.0262 34.6606 57.0262 31.2223V24.1112C57.0262 21.5217 56.3288 19.5101 54.9649 18.1463C53.6011 16.7824 51.5895 16.085 49 16.085H43.0741C39.0505 16.085 36.6753 18.4719 34.9247 20.2311C34.845 20.3112 34.7666 20.39 34.6894 20.4673L34.6889 20.4667L34.6802 20.4776L33.0999 22.4529L33.03 22.5402L33.1092 22.6193L34.0968 23.607L34.1852 23.6954L34.2736 23.607L36.0514 21.8292L36.0515 21.8294L36.0564 21.8239C37.6359 20.047 39.7758 17.9152 43.0741 17.9152H49C51.0533 17.9152 52.5969 18.4528 53.6277 19.4835C54.6584 20.5143 55.196 22.0579 55.196 24.1112V31.2223C55.196 33.5157 53.2849 35.0479 51.3704 35.0479H51.2454V35.1729V36.7532Z" fill="#7B0A20" stroke="#7B0A20" stroke-width="0.25"/>
<rect width="4.93827" height="7.90123" fill="black" fill-opacity="0" transform="translate(36.5556 24.5059)"/>
<path d="M41.4938 32.5321H41.6188V32.4071V24.5059V24.3809H41.4938H39.1235H39.0717L39.0351 24.4175L36.4672 26.9854L36.3788 27.0738L36.4672 27.1621L37.6524 28.3473L37.7407 28.4357L37.8291 28.3473L39.7886 26.3879V32.4071V32.5321H39.9136H41.4938Z" fill="#7B0A20" stroke="#7B0A20" stroke-width="0.25"/>
<rect width="1.58025" height="14.0247" fill="black" fill-opacity="0" transform="translate(50.5803 24.1108)"/>
<path d="M52.2855 24.1108V23.9858H52.1605H50.5803H50.4553V24.1108V38.1355V38.2605H50.5803H52.1605H52.2855V38.1355V24.1108Z" fill="#7B0A20" stroke="#7B0A20" stroke-width="0.25"/>
<rect width="59.2593" height="29.8272" fill="black" fill-opacity="0" transform="translate(1 35.1729)"/>
<path d="M60.2593 65.125H60.3843V65L60.3843 64.4074L60.3843 64.4059C60.1859 48.1403 46.8959 35.0479 30.8272 35.0479C29.0425 35.0479 27.259 35.246 25.4835 35.4433L25.48 35.4437L25.3518 35.4579L25.3701 35.5856L25.5676 36.9683L25.585 37.0899L25.7069 37.0747C27.2866 36.8772 29.0577 36.6806 30.8272 36.6806C45.7273 36.6806 57.8924 48.6054 58.5486 63.2948H2.71067C2.92955 58.4274 4.49849 53.7529 7.22891 49.4622L7.29461 49.3589L7.19279 49.2911L6.00761 48.5009L5.9036 48.4316L5.83427 48.5356C2.65998 53.297 1.07337 58.6532 0.87508 64.2054L0.875 64.2054V64.2099V65V65.125H1H60.2593Z" fill="#7B0A20" stroke="#7B0A20" stroke-width="0.25"/>
<rect width="21.7284" height="20.7407" fill="black" fill-opacity="0" transform="translate(12.8519 43.2715)"/>
<path d="M14.4321 64.1372H14.5571V64.0122V61.0493C14.5571 60.1381 15.4811 59.199 16.6049 59.199H24.9012C26.9456 59.199 28.7793 57.3652 28.7793 55.3209V54.1357C28.7793 53.0195 29.711 52.0878 30.8272 52.0878C32.8715 52.0878 34.7052 50.2541 34.7052 48.2098V47.0246C34.7052 44.9802 32.8715 43.1465 30.8272 43.1465H25.4938H25.3688V43.2715V44.8517V44.9767H25.4938H30.8272C31.9433 44.9767 32.875 45.9084 32.875 47.0246V48.2098C32.875 49.3259 31.9433 50.2576 30.8272 50.2576C28.7828 50.2576 26.9491 52.0913 26.9491 54.1357V55.3209C26.9491 56.437 26.0174 57.3687 24.9012 57.3687H16.6049C14.3676 57.3687 12.7269 59.0005 12.7269 61.0493V64.0122V64.1372H12.8519H14.4321Z" fill="#7B0A20" stroke="#7B0A20" stroke-width="0.25"/>
<rect width="18.5679" height="18.5679" fill="black" fill-opacity="0" transform="translate(33.9876 45.6421)"/>
<path d="M35.5679 64.335H35.6929V64.21V61.8396C35.6929 59.7358 37.4147 58.014 39.5185 58.014H45.4444C47.2912 58.014 48.7299 56.5753 48.7299 54.7285C48.7299 52.8817 47.2912 51.443 45.4444 51.443H43.0741C42.6053 51.443 42.245 51.3029 42.002 51.0599C41.7589 50.8169 41.6188 50.4565 41.6188 49.9878V48.8026C41.6188 48.3338 41.7589 47.9735 42.002 47.7305C42.245 47.4875 42.6053 47.3473 43.0741 47.3473H52.5555H52.6805V47.2223V45.6421V45.5171H52.5555H43.0741C41.2272 45.5171 39.7886 46.9558 39.7886 48.8026V49.9878C39.7886 51.8346 41.2272 53.2733 43.0741 53.2733H45.4444C45.9132 53.2733 46.2735 53.4134 46.5165 53.6564C46.7595 53.8994 46.8997 54.2597 46.8997 54.7285C46.8997 55.1973 46.7595 55.5576 46.5165 55.8006C46.2735 56.0436 45.9132 56.1838 45.4444 56.1838H39.5185C36.4865 56.1838 33.8626 58.8076 33.8626 61.8396V64.21V64.335H33.9876H35.5679Z" fill="#7B0A20" stroke="#7B0A20" stroke-width="0.25"/>
<rect width="12.8395" height="30.2222" fill="black" fill-opacity="0" transform="translate(9.69135 23.7158)"/>
<path d="M22.0632 24.1108V23.9858H21.9382H10.0864H9.9614V24.1108V53.5429V53.6679H10.0864H21.9382H22.0632V53.5429V24.1108Z" fill="white" stroke="#7B0A20" stroke-width="0.25"/>
<path d="M22.5309 54.063H22.6559V53.938V23.7158V23.5908H22.5309H9.69135H9.56635V23.7158V53.938V54.063H9.69135H22.5309ZM21.4182 52.8254H10.804V24.8285H21.4182V52.8254Z" fill="#7B0A20" stroke="#7B0A20" stroke-width="0.25"/>
<rect width="30" height="36" fill="black" fill-opacity="0" transform="translate(5 17)"/>
<path d="M35 29.8432L35.0941 29.761L35.094 29.7608L35.0932 29.7599L35.0901 29.7564L35.0781 29.7426L35.0309 29.6885L34.8504 29.4817C34.6942 29.3027 34.4691 29.045 34.1941 28.7302C33.6441 28.1008 32.894 27.2433 32.094 26.3311C30.4943 24.5071 28.6933 22.4628 27.8923 21.586L27.8913 21.5849C27.8178 21.5063 27.744 21.427 27.6698 21.3473C25.7284 19.263 23.5042 16.875 19.4 16.875H12.2C10.5885 16.875 8.75727 17.1683 7.32632 18.2125C5.88803 19.2621 4.875 21.0547 4.875 24.0054V32.1784C4.875 34.934 7.25825 36.9059 9.675 36.9719V53V53.125H9.8H21.8H21.925V53V25.298H22.9492L23.0453 25.3914L23.4097 25.746L24.6378 26.9409L27.7128 29.9328C29.2559 31.4342 31.1077 31.4298 32.556 31.0589C33.2802 30.8735 33.908 30.5957 34.3543 30.3647C34.5777 30.2491 34.7561 30.145 34.8791 30.0695C34.9406 30.0317 34.9882 30.0011 35.0207 29.9798C35.0369 29.9692 35.0494 29.9608 35.0579 29.9551L35.0676 29.9484L35.0702 29.9466L35.071 29.9461L35.0712 29.946C35.0713 29.9459 35.0713 29.9459 35 29.8432ZM35 29.8432L35.0942 29.7611L35.1859 29.8663L35.0713 29.9459L35 29.8432Z" fill="white" stroke="#7B0A20" stroke-width="0.25"/>
<rect width="31.6049" height="37.5309" fill="black" fill-opacity="0" transform="translate(4.55556 16.0127)"/>
<path d="M21.0231 53.5436V53.6686H21.1481H22.4059H22.5309H22.7284V53.5436V53.4186H22.6559V26.2118H22.6766L27.1832 30.7184L27.1832 30.7184L27.1865 30.7216C28.6018 32.0357 30.2706 32.3376 31.7799 32.1615C33.2856 31.9859 34.6395 31.3344 35.4454 30.73L35.4525 30.7246L35.4588 30.7184L36.2489 29.9282L36.3373 29.8399L36.2489 29.7515L35.66 29.1626L35.6596 29.1621L35.6481 29.1484L35.6031 29.0952L35.4307 28.8911C35.2814 28.7144 35.0661 28.4597 34.8022 28.148C34.2744 27.5245 33.5521 26.6725 32.7742 25.7588C31.219 23.9321 29.44 21.8565 28.5497 20.8673L28.5498 20.8672L28.5452 20.8626L28.3498 20.6672C26.3754 18.4954 23.9719 15.8877 19.5679 15.8877H12.4568C9.86727 15.8877 7.85569 16.5852 6.49186 17.949C5.12803 19.3128 4.43056 21.3244 4.43056 23.9139V32.2102C4.43056 35.6485 7.46125 37.8661 10.0864 37.8661H10.2114V37.7411V36.1608V36.0358H10.0864C8.17189 36.0358 6.2608 34.5036 6.2608 32.2102V23.9139C6.2608 21.8606 6.79836 20.317 7.82913 19.2863C8.8599 18.2555 10.4035 17.7179 12.4568 17.7179H19.5679C23.0617 17.7179 25.0025 19.8458 26.9816 22.0227L26.9815 22.0228L26.9857 22.027L27.1803 22.2216C27.8712 23.0114 29.1523 24.5389 30.4351 26.0683L30.4362 26.0696C31.6554 27.5233 32.8759 28.9785 33.5883 29.7986C33.0041 30.0716 32.1516 30.3619 31.2408 30.4064C30.2537 30.4545 29.2053 30.214 28.3476 29.3564L23.4094 24.4181L23.3728 24.3815H23.321H21.1481H21.0231V24.5065V53.5436Z" fill="#7B0A20" stroke="#7B0A20" stroke-width="0.25"/>
<rect width="1.58025" height="29.4321" fill="black" fill-opacity="0" transform="translate(9.2963 24.1108)"/>
<path d="M11.0015 24.1108V23.9858H10.8765H9.2963H9.1713V24.1108V53.5429V53.6679H9.2963H10.8765H11.0015V53.5429V24.1108Z" fill="#7B0A20" stroke="#7B0A20" stroke-width="0.25"/>
<rect width="1.58025" height="17.7778" fill="black" fill-opacity="0" transform="translate(15.2222 35.7656)"/>
<path d="M16.9275 35.7656V35.6406H16.8025H15.2222H15.0972V35.7656V53.5434V53.6684H15.2222H16.8025H16.9275V53.5434V35.7656Z" fill="#7B0A20" stroke="#7B0A20" stroke-width="0.25"/>
<rect width="11.0617" height="13.4321" fill="black" fill-opacity="0" transform="translate(10.4815 1)"/>
<path d="M10.3565 8.90123C10.3565 12.1308 12.7828 14.5571 16.0124 14.5571C19.2419 14.5571 21.6682 12.1308 21.6682 8.90123V6.53086C21.6682 3.30133 19.2419 0.875 16.0124 0.875C12.7828 0.875 10.3565 3.30133 10.3565 6.53086V8.90123ZM12.1867 6.53086C12.1867 4.42706 13.9086 2.70525 16.0124 2.70525C18.1162 2.70525 19.838 4.42706 19.838 6.53086V8.90123C19.838 11.005 18.1162 12.7269 16.0124 12.7269C13.9086 12.7269 12.1867 11.005 12.1867 8.90123V6.53086Z" fill="#7B0A20" stroke="#7B0A20" stroke-width="0.25"/>
<rect width="11.0617" height="13.4321" fill="black" fill-opacity="0" transform="translate(39.9136 1)"/>
<path d="M39.7886 8.90123C39.7886 12.1308 42.2149 14.5571 45.4444 14.5571C48.674 14.5571 51.1003 12.1308 51.1003 8.90123V6.53086C51.1003 3.30133 48.674 0.875 45.4444 0.875C42.2149 0.875 39.7886 3.30133 39.7886 6.53086V8.90123ZM41.6188 6.53086C41.6188 4.42706 43.3406 2.70525 45.4444 2.70525C47.5482 2.70525 49.2701 4.42706 49.2701 6.53086V8.90123C49.2701 11.005 47.5482 12.7269 45.4444 12.7269C43.3406 12.7269 41.6188 11.005 41.6188 8.90123V6.53086Z" fill="#7B0A20" stroke="#7B0A20" stroke-width="0.25"/>
</svg>
