<svg width="62" height="66" viewBox="0 0 62 66" fill="none" xmlns="http://www.w3.org/2000/svg">
<rect width="59.5979" height="63.9999" fill="black" fill-opacity="0" transform="translate(1 1)"/>
<rect width="59.5979" height="63.9999" fill="black" fill-opacity="0" transform="translate(1 1)"/>
<rect width="49.8655" height="35.4427" fill="black" fill-opacity="0" transform="translate(5.80979 6.19238)"/>
<path d="M49.8948 40.6256L49.8979 40.6268C50.1996 40.7428 50.5051 40.8673 50.8072 40.9904C51.2188 41.1581 51.6241 41.3232 52.0049 41.461C52.6744 41.7031 53.3289 41.8851 53.9383 41.8851C54.2303 41.8851 54.5081 41.8575 54.7482 41.7282C54.9818 41.6024 55.1488 41.3981 55.2736 41.1119C55.8588 40.611 55.8414 39.8088 55.6187 38.9876C55.3856 38.1281 54.8947 37.1195 54.3902 36.1104C54.3011 35.9101 54.2093 35.7088 54.1188 35.5104C53.9763 35.198 53.837 34.8928 53.7169 34.6097C53.6193 34.3796 53.5379 34.1722 53.4812 33.9972C53.4227 33.8163 53.3982 33.6924 53.3982 33.621C53.3982 33.3503 53.5116 33.0591 53.7153 32.7196C53.867 32.4668 54.0546 32.2088 54.2596 31.927C54.3293 31.8312 54.401 31.7327 54.4739 31.6306C55.1439 30.8483 55.8814 29.8829 55.8814 28.7673C55.8814 27.6485 55.1395 26.6806 54.4679 25.897C54.1891 25.5624 53.9181 25.2089 53.7174 24.8611C53.5143 24.509 53.3982 24.1878 53.3982 23.9137C53.3982 23.6431 53.5116 23.3519 53.7153 23.0124C53.867 22.7595 54.0546 22.5015 54.2596 22.2198C54.3293 22.124 54.401 22.0254 54.4739 21.9234C55.1439 21.141 55.8814 20.1756 55.8814 19.0601C55.8814 17.9412 55.1394 16.9734 54.4679 16.1897C54.1891 15.8551 53.9181 15.5017 53.7174 15.1539C53.5143 14.8018 53.3982 14.4806 53.3982 14.2065C53.3982 13.9252 53.5188 13.5438 53.7285 13.0824C53.9351 12.6278 54.212 12.1291 54.4955 11.6189L54.4955 11.6189L54.4979 11.6145L54.5072 11.5969C55.0081 10.6506 55.5258 9.67279 55.7729 8.81539C56.0186 7.96259 56.0248 7.12144 55.3469 6.57023C54.7412 5.97397 53.8648 5.97416 52.9596 6.20404C52.0437 6.43666 51.0085 6.92642 49.998 7.4315C49.8086 7.50734 49.6183 7.58534 49.4292 7.66285C49.0494 7.81853 48.6744 7.97223 48.321 8.10242C47.7817 8.30109 47.3412 8.42563 47.0529 8.42563C46.7137 8.42563 46.331 8.30326 45.9231 8.09929C45.5176 7.89655 45.107 7.62348 44.715 7.34345L44.7087 7.33897L44.7022 7.33488C44.5968 7.269 44.4898 7.20033 44.3811 7.13052C43.5908 6.62317 42.7062 6.05526 41.6349 6.05526C40.4343 6.05526 39.4783 6.65284 38.5917 7.207L38.5677 7.22201L38.5612 7.22609L38.5549 7.23057C38.1628 7.51061 37.7522 7.78368 37.3468 7.98641C36.9388 8.19038 36.5562 8.31275 36.2169 8.31275C35.8777 8.31275 35.4951 8.19038 35.0871 7.98641C34.6817 7.78368 34.2711 7.51061 33.879 7.23057L33.8727 7.22609L33.8662 7.22201C33.7608 7.15612 33.6538 7.08746 33.5451 7.01764C32.7548 6.5103 31.8702 5.94238 30.799 5.94238C29.7277 5.94238 28.8431 6.5103 28.0528 7.01765C27.9441 7.08746 27.8371 7.15612 27.7317 7.22201L27.7252 7.22609L27.7189 7.23057C27.3269 7.51061 26.9163 7.78368 26.5108 7.98641C26.1028 8.19038 25.7202 8.31275 25.381 8.31275C25.0417 8.31275 24.6591 8.19038 24.2512 7.98641C23.8457 7.78368 23.4351 7.51061 23.043 7.23057L23.0368 7.22609L23.0302 7.22201C22.9248 7.15612 22.8179 7.08746 22.7091 7.01765C21.9189 6.5103 21.0342 5.94238 19.963 5.94238C18.8917 5.94238 18.0071 6.5103 17.2168 7.01765C17.1081 7.08746 17.0011 7.15612 16.8957 7.22201L16.8892 7.22609L16.8829 7.23057C16.4909 7.51061 16.0803 7.78368 15.6748 7.98641C15.2669 8.19038 14.8842 8.31275 14.545 8.31275C14.2567 8.31275 13.8162 8.18822 13.2769 7.98954C12.9235 7.85935 12.5485 7.70565 12.1687 7.54997C11.9779 7.47174 11.7858 7.39301 11.5946 7.31652C10.5842 6.86747 9.51972 6.40631 8.57651 6.18864C7.6467 5.97407 6.7391 5.97391 6.13303 6.57532C5.46502 7.18066 5.46412 8.03871 5.71187 8.91309C5.95895 9.78517 6.4769 10.7635 6.97795 11.7099L6.98718 11.7273L6.98714 11.7274L6.98959 11.7318C7.27053 12.2375 7.54838 12.7658 7.75541 13.2351C7.96805 13.7171 8.08688 14.096 8.08688 14.3194C8.08688 14.59 7.97348 14.8812 7.76977 15.2207C7.61808 15.4735 7.43042 15.7315 7.22548 16.0133C7.15578 16.1091 7.08408 16.2076 7.01112 16.3097C6.34115 17.0921 5.60363 18.0575 5.60363 19.173C5.60363 20.2919 6.34559 21.2597 7.01717 22.0433C7.29595 22.378 7.56694 22.7314 7.7676 23.0792C7.97072 23.4313 8.08688 23.7525 8.08688 24.0266C8.08688 24.2972 7.97348 24.5884 7.76977 24.928C7.61808 25.1808 7.43042 25.4388 7.22547 25.7205C7.15578 25.8163 7.08408 25.9149 7.01112 26.0169C6.34114 26.7993 5.60363 27.7647 5.60363 28.8802C5.60363 29.9991 6.34563 30.967 7.01722 31.7506C7.29599 32.0852 7.56695 32.4387 7.7676 32.7864C7.97072 33.1385 8.08688 33.4598 8.08688 33.7338C8.08688 34.0151 7.96628 34.3965 7.75655 34.8579C7.54989 35.3125 7.27306 35.8112 6.98959 36.3214L6.98955 36.3214L6.98718 36.3259L6.97789 36.3434C6.4769 37.2897 5.95922 38.2675 5.71217 39.1249C5.46584 39.9799 5.4602 40.8231 6.14325 41.3742C6.80094 41.9618 7.69566 41.9681 8.61967 41.7515C9.54566 41.5345 10.579 41.0752 11.5836 40.6287L11.5946 40.6238C11.7858 40.5473 11.9779 40.4686 12.1687 40.3904C12.5485 40.2347 12.9235 40.081 13.2769 39.9508C13.8162 39.7521 14.2567 39.6276 14.545 39.6276C14.8382 39.6276 15.2542 39.727 15.9333 39.9534L16.1277 40.0182L16.2294 39.8402L16.6809 39.0501L16.7967 38.8475L16.6025 38.7181C15.8798 38.2362 15.266 38.1117 14.6579 38.1117C14.1613 38.1117 13.5915 38.2654 13.0058 38.4796C12.4185 38.6945 11.7906 38.9799 11.1737 39.2603L11.1734 39.2605C10.983 39.3366 10.7915 39.4149 10.6003 39.493C9.93079 39.7667 9.26658 40.0381 8.67622 40.2098C8.29713 40.3201 7.96715 40.3833 7.70019 40.3833C7.43269 40.3833 7.26288 40.3204 7.15916 40.2167L7.15114 40.2086L7.14243 40.2014C7.05053 40.1248 6.99281 39.9982 6.99428 39.7814C6.99577 39.5611 7.05947 39.2813 7.17571 38.9531C7.40732 38.2991 7.81883 37.5291 8.21562 36.7922C8.55548 36.2255 8.87109 35.6521 9.1025 35.117C9.33247 34.5852 9.48988 34.0677 9.48988 33.621C9.48988 32.502 8.74788 31.5342 8.07629 30.7505C7.79752 30.4159 7.52656 30.0625 7.32591 29.7147C7.12278 29.3626 7.00663 29.0414 7.00663 28.7673C7.00663 28.4967 7.12003 28.2055 7.32374 27.866C7.47543 27.6132 7.66309 27.3552 7.86803 27.0734C7.93773 26.9776 8.00942 26.8791 8.08238 26.777C8.75236 25.9947 9.48988 25.0293 9.48988 23.9137C9.48988 22.7948 8.74791 21.827 8.07634 21.0434C7.79755 20.7087 7.52657 20.3553 7.32591 20.0075C7.12278 19.6554 7.00663 19.3342 7.00663 19.0601C7.00663 18.7895 7.12003 18.4983 7.32374 18.1587C7.47543 17.9059 7.66309 17.648 7.86802 17.3662C7.93772 17.2704 8.00942 17.1718 8.08238 17.0698C8.75236 16.2874 9.48988 15.322 9.48988 14.2065C9.48988 13.7598 9.33247 13.2423 9.1025 12.7104C8.87109 12.1753 8.55548 11.602 8.21562 11.0352C7.81921 10.299 7.4063 9.52676 7.16002 8.87003C7.03641 8.54039 6.96133 8.25639 6.9461 8.03091C6.93071 7.80319 6.9784 7.67866 7.04628 7.61078C7.14863 7.50843 7.32393 7.44415 7.60319 7.44415C7.87993 7.44415 8.22114 7.50776 8.60682 7.61795C9.33192 7.82512 10.1584 8.17981 10.9162 8.505C10.9645 8.52573 11.0126 8.54634 11.0603 8.56679L11.0603 8.5668L11.0626 8.56777C11.289 8.66212 11.5119 8.7577 11.7298 8.85115C12.153 9.03265 12.5575 9.20614 12.9334 9.3471C13.5041 9.5611 14.0468 9.71575 14.545 9.71575C15.6163 9.71575 16.5009 9.14783 17.2911 8.64049C17.3999 8.57067 17.5068 8.50201 17.6122 8.43613L17.6188 8.43204L17.625 8.42756C18.0171 8.14753 18.4277 7.87446 18.8332 7.67172C19.2411 7.46775 19.6238 7.34538 19.963 7.34538C20.3022 7.34538 20.6849 7.46775 21.0928 7.67172C21.4983 7.87446 21.9089 8.14753 22.3009 8.42756L22.3072 8.43204L22.3137 8.43613C22.4575 8.52598 22.604 8.6227 22.7525 8.72079C23.0469 8.91514 23.3494 9.11489 23.6552 9.27736C24.1295 9.52931 24.65 9.71575 25.2681 9.71575C26.3394 9.71575 27.224 9.14784 28.0142 8.64049C28.123 8.57068 28.2299 8.50201 28.3353 8.43613L28.3419 8.43204L28.3481 8.42756C28.7402 8.14753 29.1508 7.87446 29.5563 7.67172C29.9642 7.46775 30.3469 7.34538 30.6861 7.34538C31.0253 7.34538 31.408 7.46775 31.8159 7.67172C32.2214 7.87446 32.632 8.14753 33.024 8.42756L33.0303 8.43204L33.0368 8.43613C33.1422 8.50201 33.2492 8.57067 33.3579 8.64049C34.1482 9.14783 35.0328 9.71575 36.1041 9.71575C37.1753 9.71575 38.06 9.14783 38.8502 8.64048C38.959 8.57067 39.0659 8.50201 39.1713 8.43613L39.1779 8.43204L39.1841 8.42756C39.5762 8.14753 39.9868 7.87446 40.3922 7.67172C40.8002 7.46775 41.1828 7.34538 41.5221 7.34538C41.8613 7.34538 42.2439 7.46775 42.6519 7.67172C43.0574 7.87446 43.4679 8.14753 43.86 8.42756L43.8663 8.43204L43.8728 8.43613C43.9782 8.50201 44.0852 8.57068 44.1939 8.64049C44.9842 9.14783 45.8688 9.71575 46.9401 9.71575C47.4367 9.71575 48.0064 9.56207 48.5921 9.3478C49.1795 9.13289 49.8075 8.84745 50.4245 8.56698C50.6149 8.49079 50.8065 8.4125 50.9976 8.3344C51.6671 8.06079 52.3313 7.78936 52.9217 7.61762C53.3008 7.50734 53.6308 7.44415 53.8977 7.44415C54.1652 7.44415 54.335 7.50706 54.4388 7.61078L54.4468 7.6188L54.4555 7.62606C54.5474 7.70264 54.6051 7.82924 54.6036 8.04607C54.6021 8.2663 54.5385 8.54614 54.4222 8.87435C54.1906 9.52831 53.7791 10.2983 53.3823 11.0353C53.0421 11.6025 52.7279 12.1736 52.4836 12.7053C52.2401 13.2353 52.0592 13.7407 51.9977 14.1711L51.9952 14.1887V14.2065C51.9952 15.3254 52.7372 16.2933 53.4088 17.0769C53.6875 17.4115 53.9585 17.7649 54.1591 18.1127C54.3623 18.4648 54.4784 18.786 54.4784 19.0601C54.4784 19.3307 54.365 19.6219 54.1613 19.9615C54.0096 20.2143 53.822 20.4723 53.617 20.754C53.5473 20.8498 53.4756 20.9484 53.4027 21.0504C52.7327 21.8328 51.9952 22.7982 51.9952 23.9137C51.9952 25.0326 52.7372 26.0005 53.4088 26.7842C53.6875 27.1188 53.9585 27.4722 54.1591 27.82C54.3623 28.172 54.4784 28.4933 54.4784 28.7673C54.4784 29.038 54.365 29.3292 54.1613 29.6687C54.0096 29.9215 53.822 30.1795 53.617 30.4612C53.5473 30.557 53.4756 30.6556 53.4027 30.7576C52.7327 31.54 51.9952 32.5054 51.9952 33.621C51.9952 34.0134 52.1548 34.5057 52.3662 35.0271C52.5264 35.4222 52.7271 35.8586 52.9349 36.3105C53.005 36.4629 53.0759 36.6171 53.1463 36.772C53.4292 37.3944 53.8196 38.2593 54.0834 39.009C54.2159 39.3855 54.3117 39.7201 54.3487 39.9744C54.3674 40.1024 54.3689 40.196 54.3596 40.2584C54.355 40.29 54.3489 40.3054 54.346 40.3113L54.3293 40.3238L54.3106 40.3463C54.2392 40.432 54.0981 40.4962 53.8342 40.4962C53.5745 40.4962 53.2447 40.4331 52.8653 40.3227C52.1552 40.1161 51.3321 39.7629 50.5764 39.4386C50.5255 39.4167 50.475 39.395 50.4248 39.3735L50.4224 39.3725C50.196 39.2782 49.9732 39.1826 49.7552 39.0892C49.3321 38.9077 48.9275 38.7342 48.5516 38.5932C47.981 38.3792 47.4383 38.2246 46.9401 38.2246C46.312 38.2246 45.7015 38.4757 45.0222 38.8153L44.7859 38.9335L44.917 39.163L45.3685 39.9531L45.509 40.199L45.7356 40.0291C46.1386 39.7268 46.5358 39.6276 46.9401 39.6276C47.2283 39.6276 47.6689 39.7521 48.2081 39.9508C48.5615 40.081 48.9365 40.2347 49.3163 40.3904C49.5086 40.4692 49.7022 40.5485 49.8948 40.6256Z" fill="#7B0A20" stroke="#7B0A20" stroke-width="0.5"/>
<rect width="14.6737" height="0.902998" fill="black" fill-opacity="0" transform="translate(24.0265 15.6738)"/>
<path d="M38.9502 15.6738V15.4238H38.7002H24.0265H23.7765V15.6738V16.5768V16.8268H24.0265H38.7002H38.9502V16.5768V15.6738Z" fill="#7B0A20" stroke="#7B0A20" stroke-width="0.5"/>
<rect width="23.7037" height="0.902997" fill="black" fill-opacity="0" transform="translate(19.5115 21.3174)"/>
<path d="M43.4652 21.3174V21.0674H43.2152H19.5115H19.2615V21.3174V22.2204V22.4704H19.5115H43.2152H43.4652V22.2204V21.3174Z" fill="#7B0A20" stroke="#7B0A20" stroke-width="0.5"/>
<rect width="9.02998" height="0.902997" fill="black" fill-opacity="0" transform="translate(7.09526 46.1499)"/>
<path d="M16.3752 46.1499V45.8999H16.1252H7.09526H6.84526V46.1499V47.0529V47.3029H7.09526H16.1252H16.3752V47.0529V46.1499Z" fill="#7B0A20" stroke="#7B0A20" stroke-width="0.5"/>
<rect width="9.02998" height="0.902997" fill="black" fill-opacity="0" transform="translate(45.4727 46.1499)"/>
<path d="M54.7527 46.1499V45.8999H54.5027H45.4727H45.2227V46.1499V47.0529V47.3029H45.4727H54.5027H54.7527V47.0529V46.1499Z" fill="#7B0A20" stroke="#7B0A20" stroke-width="0.5"/>
<rect width="3.72487" height="19.5273" fill="black" fill-opacity="0" transform="translate(56.7602 27.4126)"/>
<path d="M60.485 47.1899H60.735V46.9399V27.4126V27.1626H60.485H59.6949H59.4449V27.4126V45.8998H56.7602H56.5102V46.1498V46.9399V47.1899H56.7602H60.485Z" fill="#7B0A20" stroke="#7B0A20" stroke-width="0.5"/>
<rect width="3.72487" height="19.6402" fill="black" fill-opacity="0" transform="translate(56.7602 1)"/>
<path d="M60.485 20.8902H60.735V20.6402V1V0.75H60.485H56.7602H56.5102V1V1.79012V2.04012H56.7602H59.4449V20.6402V20.8902H59.6949H60.485Z" fill="#7B0A20" stroke="#7B0A20" stroke-width="0.5"/>
<rect width="47.4074" height="0.902998" fill="black" fill-opacity="0" transform="translate(7.09526 1)"/>
<path d="M54.7527 1V0.75H54.5027H7.09526H6.84526V1V1.903V2.153H7.09526H54.5027H54.7527V1.903V1Z" fill="#7B0A20" stroke="#7B0A20" stroke-width="0.5"/>
<rect width="0.902997" height="2.2575" fill="black" fill-opacity="0" transform="translate(59.6949 22.8975)"/>
<path d="M60.8479 22.8975V22.6475H60.5979H59.6949H59.4449V22.8975V25.155V25.405H59.6949H60.5979H60.8479V25.155V22.8975Z" fill="#7B0A20" stroke="#7B0A20" stroke-width="0.5"/>
<rect width="3.83774" height="19.5273" fill="black" fill-opacity="0" transform="translate(1 27.4126)"/>
<path d="M4.83774 47.1899H5.08774V46.9399V46.1498V45.8998H4.83774H2.04012V27.4126V27.1626H1.79012H1H0.75V27.4126V46.9399V47.1899H1H4.83774Z" fill="#7B0A20" stroke="#7B0A20" stroke-width="0.5"/>
<rect width="3.83774" height="19.6402" fill="black" fill-opacity="0" transform="translate(1 1)"/>
<path d="M1.79012 20.8902H2.04012V20.6402V2.04012H4.83774H5.08774V1.79012V1V0.75H4.83774H1H0.75V1V20.6402V20.8902H1H1.79012Z" fill="#7B0A20" stroke="#7B0A20" stroke-width="0.5"/>
<rect width="0.902998" height="2.2575" fill="black" fill-opacity="0" transform="translate(1 22.8975)"/>
<path d="M2.153 22.8975V22.6475H1.903H1H0.75V22.8975V25.155V25.405H1H1.903H2.153V25.155V22.8975Z" fill="#7B0A20" stroke="#7B0A20" stroke-width="0.5"/>
<rect width="9.93298" height="17.8342" fill="black" fill-opacity="0" transform="translate(25.8325 47.1655)"/>
<path d="M35.3139 65.2497V64.9997C35.3139 65.2497 35.3141 65.2497 35.3142 65.2497H35.3144L35.3149 65.2497L35.316 65.2497L35.3182 65.2497L35.3233 65.2496L35.3356 65.249C35.3448 65.2484 35.3559 65.2473 35.3687 65.2455C35.3942 65.2418 35.4266 65.2351 35.4635 65.2228C35.5218 65.2034 35.5901 65.1704 35.6586 65.1155C35.7129 65.0956 35.756 65.065 35.7863 65.0387C35.8387 64.9933 35.8793 64.9384 35.9093 64.8885C35.9649 64.7958 36.0154 64.6661 36.0154 64.5482V47.617C36.0154 47.4228 35.9209 47.2496 35.8011 47.1298C35.6814 47.0101 35.5081 46.9155 35.3139 46.9155H26.2839C26.0898 46.9155 25.9165 47.0101 25.7968 47.1298C25.677 47.2496 25.5825 47.4228 25.5825 47.617V64.5482C25.5825 64.6863 25.6499 64.7968 25.703 64.8676C25.7562 64.9384 25.8234 65.0056 25.8758 65.058L25.8814 65.0636C25.9954 65.1776 26.1497 65.2215 26.284 65.2215C26.4121 65.2215 26.5584 65.1815 26.6705 65.0789L30.7989 62.0369L34.8683 65.0354C34.879 65.0595 34.8927 65.0831 34.9102 65.1056C34.9619 65.172 35.0279 65.2055 35.0797 65.2228C35.1624 65.2504 35.2568 65.25 35.3038 65.2498C35.3075 65.2498 35.3109 65.2497 35.3139 65.2497ZM31.2445 60.7875C31.2339 60.7635 31.2201 60.74 31.2026 60.7175C31.1509 60.6511 31.0849 60.6176 31.0332 60.6003C30.9504 60.5727 30.856 60.5731 30.8091 60.5733C30.8054 60.5734 30.802 60.5734 30.7989 60.5734L30.791 60.5734C30.6763 60.5733 30.4808 60.5731 30.2986 60.7449L26.8726 63.264V48.3185H34.6124V63.264L31.2445 60.7875Z" fill="#7B0A20" stroke="#7B0A20" stroke-width="0.5"/>
<rect width="23.6559" height="23.6798" fill="black" fill-opacity="0" transform="translate(18.971 28.001)"/>
<path d="M37.8712 46.7881C41.8578 47.2579 43.9278 42.1563 40.8195 39.7159C43.9278 37.2754 41.8578 32.1738 37.8712 32.6437C38.3413 28.6545 33.2329 26.5845 30.7943 29.7013C29.5236 28.1464 27.6055 27.9126 26.0883 28.5507C24.5763 29.1866 23.4365 30.7008 23.7162 32.6424C19.7365 32.1828 17.6729 37.2776 20.7785 39.7159C17.6702 42.1563 19.7402 47.2579 23.7267 46.7881C23.2569 50.7747 28.3585 52.8447 30.799 49.7364C33.2394 52.8447 38.341 50.7747 37.8712 46.7881Z" fill="white" stroke="#7B0A20" stroke-width="0.5"/>
<path d="M31.4539 48.9393L31.4419 48.9225L31.4272 48.9079L31.4209 48.9015C31.3053 48.7858 31.1286 48.6089 30.799 48.6089C30.4694 48.6089 30.2926 48.7858 30.177 48.9015L30.1707 48.9079L30.1517 48.9269L30.1372 48.9495C29.2096 50.3923 27.6663 50.4067 26.6026 49.9813C25.5684 49.5676 24.5357 48.4396 24.8313 46.678C24.891 46.5479 24.9309 46.3956 24.9089 46.2415C24.8825 46.0571 24.7719 45.9045 24.5898 45.8134L24.478 46.037L24.5898 45.8134C24.4606 45.7489 24.352 45.7108 24.2369 45.6917C24.1316 45.6741 24.0286 45.6741 23.9243 45.6742H23.9136H23.8917L23.8702 45.678C22.0895 45.9922 20.95 44.953 20.5337 43.9124C20.322 43.383 20.2199 42.7563 20.3488 42.1374C20.4766 41.5243 20.8345 40.9004 21.5757 40.371L21.5925 40.3589L21.6071 40.3443L21.6135 40.338C21.7292 40.2224 21.9061 40.0456 21.9061 39.716C21.9061 39.3864 21.7292 39.2097 21.6135 39.0941L21.6071 39.0878L21.5881 39.0688L21.5655 39.0542C20.1227 38.1267 20.1083 36.5833 20.5337 35.5196C20.9474 34.4855 22.0754 33.4528 23.837 33.7484C23.9671 33.8081 24.1194 33.848 24.2735 33.826C24.4579 33.7996 24.6105 33.689 24.7016 33.5069C24.7661 33.3777 24.8042 33.2691 24.8233 33.154C24.8409 33.0486 24.8409 32.9457 24.8408 32.8414L24.8408 32.8307V32.8088L24.837 32.7872C24.5228 31.0066 25.562 29.867 26.6026 29.4508C27.132 29.239 27.7587 29.137 28.3776 29.2659C28.9899 29.3935 29.6129 29.7506 30.1419 30.4898C30.4675 30.9732 31.1346 30.9719 31.4585 30.4861L31.4585 30.4861L31.4608 30.4826C32.3883 29.0398 33.9317 29.0253 34.9954 29.4508C36.0298 29.8646 37.0628 30.9931 36.7663 32.7556C36.6154 33.1032 36.7962 33.4248 36.9432 33.5718L36.9719 33.6005L37.0081 33.6187C37.1373 33.6832 37.2459 33.7212 37.361 33.7404C37.4664 33.758 37.5693 33.7579 37.6736 33.7579L37.6843 33.7579H37.7062L37.7278 33.7541C39.5084 33.4399 40.648 34.479 41.0642 35.5196L41.0681 35.5293L41.0727 35.5386C41.5857 36.5645 41.496 38.0084 40.0223 39.0611L40.0054 39.0731L39.9908 39.0878L39.9844 39.0941C39.8687 39.2097 39.6918 39.3864 39.6918 39.716C39.6918 40.0456 39.8687 40.2224 39.9845 40.338L39.9908 40.3443L40.0098 40.3633L40.0324 40.3778C41.4752 41.3054 41.4897 42.8487 41.0642 43.9124C40.6504 44.9469 39.5219 45.9799 37.7594 45.6834C37.4118 45.5325 37.0902 45.7133 36.9432 45.8602L36.9145 45.8889L36.8963 45.9252C36.8318 46.0544 36.7938 46.163 36.7746 46.2781C36.757 46.3834 36.7571 46.4864 36.7571 46.5907V46.6014V46.6233L36.7609 46.6448C37.0751 48.4255 36.036 49.565 34.9954 49.9813L34.9806 49.9872L34.9668 49.9949C34.0617 50.4977 32.5085 50.4158 31.4539 48.9393ZM23.0926 32.1226C21.0702 32.1314 19.6215 33.5188 19.0524 34.9984C18.4853 36.473 18.564 38.4033 19.9439 39.8289C18.564 41.2545 18.4853 43.1848 19.0524 44.6594C19.6282 46.1565 21.0886 47.4275 23.105 47.5229C23.2004 49.5393 24.4714 50.9997 25.9685 51.5755C27.4419 52.1422 29.3703 52.064 30.7956 50.6872C31.7217 51.615 32.8408 51.9308 33.8466 51.9308C34.4446 51.9308 35.0399 51.8111 35.631 51.5749C37.1133 51.0041 38.5024 49.5508 38.5053 47.5223C40.5153 47.4223 41.9709 46.1534 42.5455 44.6594C43.1127 43.1848 43.0339 41.2545 41.654 39.8289C43.0339 38.4033 43.1127 36.473 42.5455 34.9984C41.9752 33.5156 40.5216 32.1254 38.4923 32.1226C38.3923 30.1126 37.1235 28.657 35.6294 28.0824C34.1549 27.5152 32.2246 27.594 30.799 28.9738C29.3734 27.594 27.4431 27.5152 25.9685 28.0824C24.4888 28.6515 23.1014 30.1001 23.0926 32.1226Z" fill="#7B0A20" stroke="#7B0A20" stroke-width="0.5"/>
<rect width="1.7559" height="1.7559" fill="black" fill-opacity="0" transform="translate(23.7241 32.7144)"/>
<path d="M24.5394 32.5377L24.3626 32.361L24.1858 32.5377L23.5473 33.1763L23.3705 33.353L23.5473 33.5298L24.6647 34.6472L24.8415 34.824L25.0183 34.6472L25.6568 34.0087L25.8335 33.8319L25.6568 33.6551L24.5394 32.5377Z" fill="#7B0A20" stroke="#7B0A20" stroke-width="0.5"/>
<rect width="1.7559" height="1.7559" fill="black" fill-opacity="0" transform="translate(36.1401 45.1304)"/>
<path d="M36.9554 44.9538L36.7786 44.777L36.6019 44.9538L35.9633 45.5923L35.7866 45.769L35.9633 45.9458L37.0807 47.0632L37.2575 47.24L37.4343 47.0632L38.0728 46.4247L38.2496 46.2479L38.0728 46.0711L36.9554 44.9538Z" fill="#7B0A20" stroke="#7B0A20" stroke-width="0.5"/>
<rect width="1.7559" height="1.7559" fill="black" fill-opacity="0" transform="translate(36.1403 32.7144)"/>
<path d="M37.4344 32.5379L37.2577 32.3611L37.0809 32.5379L35.9635 33.6553L35.7867 33.832L35.9635 34.0088L36.602 34.6473L36.7788 34.8241L36.9556 34.6473L38.0729 33.5299L38.2497 33.3531L38.0729 33.1764L37.4344 32.5379Z" fill="#7B0A20" stroke="#7B0A20" stroke-width="0.5"/>
<rect width="1.7559" height="1.7559" fill="black" fill-opacity="0" transform="translate(23.724 45.1304)"/>
<path d="M25.0182 44.9534L24.8414 44.7766L24.6646 44.9534L23.5472 46.0708L23.3705 46.2476L23.5472 46.4243L24.1858 47.0628L24.3625 47.2396L24.5393 47.0628L25.6567 45.9455L25.8335 45.7687L25.6567 45.5919L25.0182 44.9534Z" fill="#7B0A20" stroke="#7B0A20" stroke-width="0.5"/>
<rect width="2.2575" height="0.902997" fill="black" fill-opacity="0" transform="translate(38.7002 39.3774)"/>
<path d="M41.2077 39.3774V39.1274H40.9577H38.7002H38.4502V39.3774V40.2804V40.5304H38.7002H40.9577H41.2077V40.2804V39.3774Z" fill="#7B0A20" stroke="#7B0A20" stroke-width="0.5"/>
<rect width="2.2575" height="0.902997" fill="black" fill-opacity="0" transform="translate(20.6402 39.3774)"/>
<path d="M23.1477 39.3774V39.1274H22.8977H20.6402H20.3902V39.3774V40.2804V40.5304H20.6402H22.8977H23.1477V40.2804V39.3774Z" fill="#7B0A20" stroke="#7B0A20" stroke-width="0.5"/>
<rect width="0.902997" height="2.2575" fill="black" fill-opacity="0" transform="translate(30.3474 29.6699)"/>
<path d="M31.5004 29.6699V29.4199H31.2504H30.3474H30.0974V29.6699V31.9274V32.1774H30.3474H31.2504H31.5004V31.9274V29.6699Z" fill="#7B0A20" stroke="#7B0A20" stroke-width="0.5"/>
<rect width="0.902997" height="2.2575" fill="black" fill-opacity="0" transform="translate(30.3474 47.73)"/>
<path d="M31.5004 47.73V47.48H31.2504H30.3474H30.0974V47.73V49.9875V50.2375H30.3474H31.2504H31.5004V49.9875V47.73Z" fill="#7B0A20" stroke="#7B0A20" stroke-width="0.5"/>
<rect width="9.93298" height="9.93298" fill="black" fill-opacity="0" transform="translate(25.8325 34.7495)"/>
<path d="M25.5825 39.716C25.5825 42.5631 27.9519 44.9325 30.7989 44.9325C33.646 44.9325 36.0154 42.5631 36.0154 39.716C36.0154 36.8689 33.646 34.4995 30.7989 34.4995C27.9519 34.4995 25.5825 36.8689 25.5825 39.716ZM26.9854 39.716C26.9854 37.5966 28.6795 35.9025 30.7989 35.9025C32.9184 35.9025 34.6124 37.5966 34.6124 39.716C34.6124 41.8354 32.9184 43.5295 30.7989 43.5295C28.6795 43.5295 26.9854 41.8354 26.9854 39.716Z" fill="#7B0A20" stroke="#7B0A20" stroke-width="0.5"/>
</svg>
