<svg width="66" height="66" viewBox="0 0 66 66" fill="none" xmlns="http://www.w3.org/2000/svg">
<rect width="64" height="64" fill="black" fill-opacity="0" transform="translate(1 1)"/>
<rect width="64" height="64" fill="black" fill-opacity="0" transform="translate(1 1)"/>
<rect width="13.9636" height="16.4848" fill="black" fill-opacity="0" transform="translate(8.17575 1)"/>
<path d="M22.2642 10.5093L22.2644 10.5093V10.503V7.98182C22.2644 4.03399 19.1054 0.875 15.1576 0.875C11.2097 0.875 8.05075 4.03399 8.05075 7.98182V10.503C8.05075 14.4509 11.2097 17.6098 15.1576 17.6098C18.9147 17.6098 22.0673 14.4488 22.2642 10.5093ZM10.2401 7.98182C10.2401 5.33254 12.3206 3.06439 15.1576 3.06439C17.8037 3.06439 20.075 5.3357 20.075 7.98182V10.503C20.075 13.1491 17.8037 15.4205 15.1576 15.4205C12.5083 15.4205 10.2401 13.34 10.2401 10.503V7.98182Z" fill="#7B0A20" stroke="#7B0A20" stroke-width="0.25"/>
<rect width="1.93939" height="36.4606" fill="black" fill-opacity="0" transform="translate(7.01213 28.5391)"/>
<path d="M9.07652 28.5391V28.4141H8.95152H7.01213H6.88713V28.5391V64.9997V65.1247H7.01213H8.95152H9.07652V64.9997V28.5391Z" fill="#7B0A20" stroke="#7B0A20" stroke-width="0.25"/>
<rect width="5.81818" height="29.0909" fill="black" fill-opacity="0" transform="translate(21.1697 35.9092)"/>
<path d="M21.0447 65.0001V65.1251H21.1697H23.1091H23.497H23.622V65.0001V45.3213C24.6767 45.103 25.5426 44.5083 26.1476 43.5645C26.7704 42.5931 27.1129 41.2583 27.1129 39.594V35.9092V35.7842H26.9879H25.0485H24.9235V35.9092V39.594C24.9235 41.5119 24.3966 42.4379 23.831 42.8904C23.2613 43.3461 22.6219 43.3478 22.3333 43.3478H21.1697H21.0447V43.4728V65.0001Z" fill="#7B0A20" stroke="#7B0A20" stroke-width="0.25"/>
<rect width="1.93939" height="20.5576" fill="black" fill-opacity="0" transform="translate(14.1879 44.4424)"/>
<path d="M16.2523 44.4424V44.3174H16.1273H14.1879H14.0629V44.4424V65V65.125H14.1879H16.1273H16.2523V65V44.4424Z" fill="#7B0A20" stroke="#7B0A20" stroke-width="0.25"/>
<rect width="12.0242" height="1.93939" fill="black" fill-opacity="0" transform="translate(15.1576 31.2549)"/>
<path d="M27.3068 31.2549V31.1299H27.1818H15.1576H15.0326V31.2549V33.1943V33.3193H15.1576H27.1818H27.3068V33.1943V31.2549Z" fill="#7B0A20" stroke="#7B0A20" stroke-width="0.25"/>
<rect width="2.32727" height="1.93939" fill="black" fill-opacity="0" transform="translate(29.5091 31.2549)"/>
<path d="M31.9614 31.2549V31.1299H31.8364H29.5091H29.3841V31.2549V33.1943V33.3193H29.5091H31.8364H31.9614V33.1943V31.2549Z" fill="#7B0A20" stroke="#7B0A20" stroke-width="0.25"/>
<rect width="8.33939" height="13.9636" fill="black" fill-opacity="0" transform="translate(12.2485 25.2422)"/>
<path d="M19.1419 39.2942L19.2303 39.3826L19.3187 39.2942L20.6763 37.9366L20.7647 37.8482L20.6763 37.7599L15.1404 32.224L20.6763 26.6882L20.7647 26.5998L20.6763 26.5114L19.3187 25.1538L19.2303 25.0654L19.1419 25.1538L12.1601 32.1356L12.0717 32.224L12.1601 32.3124L19.1419 39.2942Z" fill="#7B0A20" stroke="#7B0A20" stroke-width="0.25"/>
<rect width="2.32727" height="1.93939" fill="black" fill-opacity="0" transform="translate(34.1637 31.2549)"/>
<path d="M36.6159 31.2549V31.1299H36.4909H34.1637H34.0387V31.2549V33.1943V33.3193H34.1637H36.4909H36.6159V33.1943V31.2549Z" fill="#7B0A20" stroke="#7B0A20" stroke-width="0.25"/>
<rect width="25.7939" height="26.1818" fill="black" fill-opacity="0" transform="translate(1 19.23)"/>
<path d="M7.98182 45.5368H8.10682V45.4118V43.4724V43.3474H7.98182C6.96388 43.3474 5.73346 42.6473 4.74899 41.6628C3.76453 40.6783 3.06439 39.4479 3.06439 38.43V28.733C3.06439 26.4467 4.1116 24.588 5.54423 23.2987C6.97929 22.0071 8.79282 21.2944 10.3091 21.2944H18.6485C21.669 21.2944 24.7295 24.1333 24.7295 28.733V28.858H24.8545H26.7939H26.9189V28.733C26.9189 22.6592 22.7974 19.105 18.6485 19.105H10.3091C5.78445 19.105 0.875 23.2288 0.875 28.733V38.43C0.875 40.0281 1.8695 41.8035 3.23888 43.1729C4.60827 44.5423 6.38369 45.5368 7.98182 45.5368Z" fill="#7B0A20" stroke="#7B0A20" stroke-width="0.25"/>
<rect width="13.9636" height="16.4848" fill="black" fill-opacity="0" transform="translate(43.8606 1)"/>
<path d="M43.7356 10.503C43.7356 14.4509 46.8946 17.6098 50.8424 17.6098C54.7903 17.6098 57.9493 14.4509 57.9493 10.503V7.98182C57.9493 4.03399 54.7903 0.875 50.8424 0.875C46.8946 0.875 43.7356 4.03399 43.7356 7.98182V10.503ZM45.925 7.98182C45.925 5.3357 48.1963 3.06439 50.8424 3.06439C53.6794 3.06439 55.7599 5.33254 55.7599 7.98182V10.503C55.7599 13.1491 53.4886 15.4205 50.8424 15.4205C48.1932 15.4205 45.925 13.34 45.925 10.503V7.98182Z" fill="#7B0A20" stroke="#7B0A20" stroke-width="0.25"/>
<rect width="1.93939" height="36.4606" fill="black" fill-opacity="0" transform="translate(57.2424 28.5391)"/>
<path d="M59.3068 28.5391V28.4141H59.1818H57.2424H57.1174V28.5391V64.9997V65.1247H57.2424H59.1818H59.3068V64.9997V28.5391Z" fill="#7B0A20" stroke="#7B0A20" stroke-width="0.25"/>
<rect width="5.62424" height="29.0909" fill="black" fill-opacity="0" transform="translate(39.2061 35.9092)"/>
<path d="M42.572 65.0001V65.1251H42.697H44.6364H44.8303H44.9553V65.0001V43.4728V43.3478H44.8303H43.8606C43.2562 43.3478 42.7986 43.1741 42.4491 42.9042C42.0979 42.6329 41.8486 42.2587 41.6725 41.8478C41.319 41.0232 41.2704 40.0742 41.2704 39.594V35.9092V35.7842H41.1454H39.2061H39.0811V35.9092V39.594C39.0811 42.6769 40.4128 44.8689 42.572 45.3212V65.0001Z" fill="#7B0A20" stroke="#7B0A20" stroke-width="0.25"/>
<rect width="1.93939" height="20.5576" fill="black" fill-opacity="0" transform="translate(50.0667 44.4424)"/>
<path d="M52.1311 44.4424V44.3174H52.0061H50.0667H49.9417V44.4424V65V65.125H50.0667H52.0061H52.1311V65V44.4424Z" fill="#7B0A20" stroke="#7B0A20" stroke-width="0.25"/>
<rect width="12.0242" height="1.93939" fill="black" fill-opacity="0" transform="translate(39.0121 31.2549)"/>
<path d="M51.1614 31.2549V31.1299H51.0364H39.0121H38.8871V31.2549V33.1943V33.3193H39.0121H51.0364H51.1614V33.1943V31.2549Z" fill="#7B0A20" stroke="#7B0A20" stroke-width="0.25"/>
<rect width="8.3394" height="13.9636" fill="black" fill-opacity="0" transform="translate(45.4121 25.2422)"/>
<path d="M46.6813 39.2942L46.7697 39.3826L46.8581 39.2942L53.8399 32.3124L53.9283 32.224L53.8399 32.1356L46.8581 25.1538L46.7697 25.0654L46.6813 25.1538L45.3237 26.5114L45.2353 26.5998L45.3237 26.6882L50.8596 32.224L45.3237 37.7599L45.2353 37.8482L45.3237 37.9366L46.6813 39.2942Z" fill="#7B0A20" stroke="#7B0A20" stroke-width="0.25"/>
<rect width="25.7939" height="26.1818" fill="black" fill-opacity="0" transform="translate(39.2061 19.23)"/>
<path d="M57.8932 45.4118V45.5368H58.0182C59.7124 45.5368 61.488 44.5433 62.8346 43.1721C64.181 41.8013 65.125 40.0261 65.125 38.43V28.733C65.125 23.2288 60.2155 19.105 55.6909 19.105H47.3515C43.2009 19.105 39.0811 22.855 39.0811 28.733V28.858H39.2061H41.1454H41.2704V28.733C41.2704 24.1333 44.3309 21.2944 47.3515 21.2944H55.6909C57.1093 21.2944 58.9232 22.0064 60.3838 23.2993C61.8416 24.5898 62.9356 26.4486 62.9356 28.733V38.43C62.9356 39.4479 62.2355 40.6783 61.251 41.6628C60.2665 42.6473 59.0361 43.3474 58.0182 43.3474H57.8932V43.4724V45.4118Z" fill="#7B0A20" stroke="#7B0A20" stroke-width="0.25"/>
</svg>
