<svg width="60" height="67" viewBox="0 0 60 67" fill="none" xmlns="http://www.w3.org/2000/svg">
<rect width="57.9829" height="64" fill="black" fill-opacity="0" transform="translate(1 1)"/>
<rect width="57.9829" height="64" fill="black" fill-opacity="0" transform="translate(1 1)"/>
<rect width="44.8547" height="49.7778" fill="black" fill-opacity="0" transform="translate(1 1)"/>
<path d="M2.09402 51.0278H2.34402V50.7778V7.01709C2.34402 4.42012 4.42012 2.34402 7.01709 2.34402H44.5107V45.3077V45.5577H44.7607H45.8547H46.1047V45.3077V1V0.75H45.8547H7.01709C3.48757 0.75 0.75 3.48757 0.75 7.01709V50.7778V51.0278H1H2.09402Z" fill="#7B0A20" stroke="#7B0A20" stroke-width="0.5"/>
<rect width="44.8547" height="12.0342" fill="black" fill-opacity="0" transform="translate(1 44.7607)"/>
<path d="M45.8547 57.0449H46.1047V56.7949V44.7607V44.5107H45.8547H7.01709C3.48757 44.5107 0.75 47.2483 0.75 50.7778C0.75 54.3074 3.48757 57.0449 7.01709 57.0449H45.8547ZM2.34402 50.7778C2.34402 48.1809 4.42012 46.1048 7.01709 46.1048H44.5107V55.4509H7.01709C4.42012 55.4509 2.34402 53.3748 2.34402 50.7778Z" fill="#7B0A20" stroke="#7B0A20" stroke-width="0.5"/>
<rect width="36.6496" height="6.01709" fill="black" fill-opacity="0" transform="translate(4.82904 46.4019)"/>
<path d="M41.4786 52.6689H41.7286V52.4189V46.4019V46.1519H41.4786H40.3846H40.1346V46.4019V51.0749H4.82904H4.57904V51.3249V52.4189V52.6689H4.82904H41.4786Z" fill="#7B0A20" stroke="#7B0A20" stroke-width="0.5"/>
<rect width="9.84615" height="15.8632" fill="black" fill-opacity="0" transform="translate(9.75214 49.1367)"/>
<path d="M10.2991 49.4336H10.0491V49.6836V63.9058V64.4058L10.4491 64.1058L14.6752 60.9363L18.9013 64.1058L19.3013 64.4058V63.9058V49.6836V49.4336H19.0513H10.2991Z" fill="white" stroke="#7B0A20" stroke-width="0.5"/>
<path d="M19.4476 65.1994L19.8483 65.5022V65V49.1367V48.8867H19.5983H9.75214H9.50214V49.1367V65V65.5022L9.90284 65.1994L14.6752 61.5936L19.4476 65.1994ZM14.8243 59.7668L14.6752 59.6561L14.5261 59.7668L11.0962 62.3148V50.4807H18.2543V62.3148L14.8243 59.7668Z" fill="#7B0A20" stroke="#7B0A20" stroke-width="0.5"/>
<rect width="1.09402" height="37.1966" fill="black" fill-opacity="0" transform="translate(6.47009 4.8291)"/>
<path d="M7.81411 4.8291V4.5791H7.56411H6.47009H6.22009V4.8291V42.0257V42.2757H6.47009H7.56411H7.81411V42.0257V4.8291Z" fill="#7B0A20" stroke="#7B0A20" stroke-width="0.5"/>
<rect width="7.65812" height="56.4513" fill="black" fill-opacity="0" transform="translate(51.3248 1)"/>
<path d="M54.9302 57.5631L55.1538 58.0103L55.3774 57.5631L59.2065 49.905L59.2329 49.8522V49.7932V2.64103C59.2329 2.09191 59.0488 1.61488 58.7084 1.27451C58.368 0.934131 57.891 0.75 57.3419 0.75H52.9658C52.4167 0.75 51.9396 0.934131 51.5993 1.27451C51.2589 1.61488 51.0748 2.09191 51.0748 2.64103V49.7932V49.8522L51.1012 49.905L54.9302 57.5631ZM57.6389 49.5153L55.1538 54.4854L52.6688 49.5153V2.64103C52.6688 2.53373 52.7035 2.46375 52.746 2.42122C52.7885 2.37869 52.8585 2.34402 52.9658 2.34402H57.3419C57.4492 2.34402 57.5191 2.37869 57.5617 2.42122C57.6042 2.46375 57.6389 2.53373 57.6389 2.64103V49.5153Z" fill="#7B0A20" stroke="#7B0A20" stroke-width="0.5"/>
<rect width="6.5641" height="1.09402" fill="black" fill-opacity="0" transform="translate(51.8718 48.043)"/>
<path d="M58.6859 48.043V47.793H58.4359H51.8718H51.6218V48.043V49.137V49.387H51.8718H58.4359H58.6859V49.137V48.043Z" fill="#7B0A20" stroke="#7B0A20" stroke-width="0.5"/>
<rect width="6.5641" height="1.09402" fill="black" fill-opacity="0" transform="translate(51.8718 6.46997)"/>
<path d="M58.6859 6.46997V6.21997H58.4359H51.8718H51.6218V6.46997V7.56399V7.81399H51.8718H58.4359H58.6859V7.56399V6.46997Z" fill="#7B0A20" stroke="#7B0A20" stroke-width="0.5"/>
<rect width="17.5043" height="9.84615" fill="black" fill-opacity="0" transform="translate(17.4103 14.1284)"/>
<path d="M34.9146 24.2246H35.1646V23.9746V14.1284V13.8784H34.9146H17.4103H17.1603V14.1284V23.9746V24.2246H17.4103H34.9146ZM33.5705 22.6306H18.7543V15.4724H33.5705V22.6306Z" fill="#7B0A20" stroke="#7B0A20" stroke-width="0.5"/>
</svg>
