<svg width="75" height="64" viewBox="0 0 75 64" fill="none" xmlns="http://www.w3.org/2000/svg">
<rect width="74.5899" height="64" fill="black" fill-opacity="0"/>
<rect width="74.5899" height="64" fill="black" fill-opacity="0"/>
<rect width="74.5899" height="64" fill="black" fill-opacity="0"/>
<rect width="64.2302" height="43.0504" fill="black" fill-opacity="0" transform="translate(5.75537 11.5107)"/>
<path d="M69.7554 54.5611H5.75537V17.9568C5.75537 14.0431 8.05753 11.5107 11.741 11.5107H33.3813V13.3525H11.741C9.20861 13.3525 7.5971 15.1942 7.5971 17.9568V52.7194H68.1439V29.0071H69.9856V54.5611H69.7554Z" fill="#7B0A20"/>
<rect width="74.5899" height="11.2806" fill="black" fill-opacity="0" transform="translate(0 52.7197)"/>
<path d="M65.1511 64.0003H10.3597C4.60432 64.0003 0 59.396 0 53.6406V52.7197H74.5899V54.5615C74.5899 59.6262 70.2158 64.0003 65.1511 64.0003ZM1.84173 54.5615C2.30216 58.9356 5.98561 62.1586 10.3597 62.1586H65.1511C69.295 62.1586 72.7482 58.7053 72.7482 54.5615H1.84173Z" fill="#7B0A20"/>
<rect width="12.8921" height="1.84173" fill="black" fill-opacity="0" transform="translate(32.4604 57.3237)"/>
<path d="M45.3525 57.3237H32.4604V59.1655H45.3525V57.3237Z" fill="#7B0A20"/>
<rect width="1.84173" height="19.7986" fill="black" fill-opacity="0" transform="translate(63.0791 30.1582)"/>
<path d="M64.9208 30.1582H63.0791V49.9568H64.9208V30.1582Z" fill="#7B0A20"/>
<rect width="21.8705" height="33.6115" fill="black" fill-opacity="0" transform="translate(10.59 16.3452)"/>
<path d="M12.4317 49.9567H10.59V16.3452H32.4605V18.1869H12.4317V49.9567Z" fill="#7B0A20"/>
<rect width="39.1367" height="37.0648" fill="black" fill-opacity="0" transform="translate(35.223)"/>
<path d="M43.0504 37.0648C42.8201 37.0648 42.5899 37.0648 42.3597 37.0648C41.4388 36.8345 40.9784 35.9137 40.9784 35.223V27.6259H39.5971C37.295 27.6259 35.223 25.554 35.223 23.2518V4.3741C35.223 2.07194 37.295 0 39.5971 0H69.9856C72.2878 0 74.3597 2.07194 74.3597 4.3741V23.2518C74.3597 25.554 72.2878 27.6259 69.9856 27.6259H51.5683L44.6619 36.3741C44.2014 36.8345 43.741 37.0648 43.0504 37.0648ZM39.5971 1.84173C38.2158 1.84173 37.0647 2.99281 37.0647 4.3741V23.2518C37.0647 24.6331 38.2158 25.7842 39.5971 25.7842H42.8201V34.9928C42.8201 35.223 42.8201 35.223 43.0504 35.223C43.0504 35.223 43.2806 35.223 43.2806 34.9928L50.6475 25.554H69.9856C71.3669 25.554 72.518 24.4029 72.518 23.0216V4.3741C72.518 2.99281 71.3669 1.84173 69.9856 1.84173H39.5971Z" fill="#7B0A20"/>
<rect width="2.30216" height="1.84173" fill="black" fill-opacity="0" transform="translate(48.8057 12.8921)"/>
<path d="M51.1079 12.8921H48.8057V14.7338H51.1079V12.8921Z" fill="#7B0A20"/>
<rect width="2.30216" height="1.84173" fill="black" fill-opacity="0" transform="translate(53.6403 12.8921)"/>
<path d="M55.9425 12.8921H53.6403V14.7338H55.9425V12.8921Z" fill="#7B0A20"/>
<rect width="2.30216" height="1.84173" fill="black" fill-opacity="0" transform="translate(58.2446 12.8921)"/>
<path d="M60.5468 12.8921H58.2446V14.7338H60.5468V12.8921Z" fill="#7B0A20"/>
<rect width="23.0216" height="14.7338" fill="black" fill-opacity="0" transform="translate(15.1943 36.1436)"/>
<path d="M38.2159 50.8774H15.1943V42.5896C15.1943 38.6759 24.4029 36.1436 26.7051 36.1436C29.4677 36.1436 37.9856 38.6759 38.2159 42.3594V50.8774ZM17.036 49.0356H36.6043V42.5896C36.3741 40.5177 29.4677 37.9853 26.9353 37.9853C24.1727 37.9853 17.2662 40.5177 17.2662 42.5896V49.0356H17.036Z" fill="#7B0A20"/>
<rect width="23.0216" height="13.813" fill="black" fill-opacity="0" transform="translate(14.9641 36.1436)"/>
<path d="M37.9856 49.9565H36.1439V42.5896C36.1439 40.2874 29.0072 37.9853 26.4748 37.9853C23.7123 37.9853 16.8058 40.5177 16.8058 42.5896V49.9565H14.9641V42.5896C14.9641 38.6759 24.1727 36.1436 26.4748 36.1436C28.777 36.1436 37.9856 38.2155 37.9856 42.5896V49.9565Z" fill="#7B0A20"/>
<rect width="12.4317" height="15.8849" fill="black" fill-opacity="0" transform="translate(20.9496 22.1006)"/>
<path d="M27.1655 37.9855C23.7122 37.9855 20.9496 35.2229 20.9496 31.7697V28.3164C20.9496 24.8632 23.7122 22.1006 27.1655 22.1006C30.6187 22.1006 33.3813 24.8632 33.3813 28.3164V31.7697C33.3813 35.2229 30.6187 37.9855 27.1655 37.9855ZM27.1655 23.9423C24.6331 23.9423 22.7914 25.784 22.7914 28.3164V31.7697C22.7914 34.302 24.6331 36.1438 27.1655 36.1438C29.6978 36.1438 31.5396 34.302 31.5396 31.7697V28.3164C31.5396 25.784 29.6978 23.9423 27.1655 23.9423Z" fill="#7B0A20"/>
</svg>
