<svg width="76" height="64" viewBox="0 0 76 64" fill="none" xmlns="http://www.w3.org/2000/svg">
<rect width="75.1726" height="64.0002" fill="black" fill-opacity="0"/>
<rect width="75.1726" height="64.0002" fill="black" fill-opacity="0"/>
<rect width="19.3882" height="52.7059" fill="black" fill-opacity="0" transform="translate(50.451 10.5413)"/>
<path d="M51.204 63.2471L50.451 61.553C60.9922 57.0354 67.9569 46.306 67.9569 34.2589C67.9569 25.6001 64.3805 17.506 57.9805 11.8589L59.2981 10.5413C66.0746 16.5648 69.8393 25.2236 69.8393 34.4471C69.651 47.0589 62.4981 58.353 51.204 63.2471Z" fill="#7B0A20"/>
<rect width="8.97143" height="12.8" fill="black" fill-opacity="0" transform="translate(51.8948)"/>
<path d="M59.6746 12.8L55.9099 10.9176C52.3334 9.03529 50.8275 4.51765 52.7099 0.941176L53.0864 0L56.8511 1.88235C60.4276 3.76471 61.9334 8.28235 60.0511 11.8588L59.6746 12.8ZM54.0276 2.63529C53.2746 5.27059 54.404 8.09412 56.8511 9.22353L58.7334 10.1647C59.4864 7.52941 58.357 4.70588 55.9099 3.57647L54.0276 2.63529Z" fill="#7B0A20"/>
<rect width="7.20622" height="12.6118" fill="black" fill-opacity="0" transform="translate(66.7068 18.635)"/>
<path d="M68.1452 31.2468L67.0158 27.4821C65.8864 23.7174 67.957 19.9527 71.5334 18.8232L72.4746 18.635L73.604 22.3997C74.7334 26.1644 72.6628 29.9291 69.0864 31.0585L68.1452 31.2468ZM71.157 20.8938C69.0864 22.0232 68.1452 24.4703 68.7099 26.7291L69.2746 28.6115C71.3452 27.4821 72.2864 25.035 71.7217 22.7762L71.157 20.8938Z" fill="#7B0A20"/>
<rect width="7.0949" height="13.1765" fill="black" fill-opacity="0" transform="translate(61.5861 7.5293)"/>
<path d="M64.757 20.7058L62.6865 17.5058C60.6159 14.3058 61.557 10.1646 64.757 8.094L65.51 7.5293L67.5806 10.7293C69.6512 13.9293 68.71 18.0705 65.51 20.1411L64.757 20.7058ZM64.3806 16.3764L65.3217 17.8822C67.0159 16.1881 67.3923 13.7411 66.0747 11.6705L65.1335 10.1646C63.4394 11.8587 63.0629 14.494 64.3806 16.3764Z" fill="#7B0A20"/>
<rect width="7.22297" height="12.2353" fill="black" fill-opacity="0" transform="translate(67.9497 31.8115)"/>
<path d="M69.2746 44.0468H68.5217L68.3335 43.2939C67.5805 40.0939 67.957 37.0821 69.2746 35.0115C70.404 33.5056 71.9099 32.3762 73.7923 31.9998L74.7335 31.8115L74.9217 32.7527C74.9217 33.3174 75.4864 38.3998 74.9217 40.6586C73.9805 44.0468 70.9688 44.0468 69.2746 44.0468ZM73.2276 34.0703C72.2864 34.4468 71.5335 35.0115 70.7805 35.9527C69.8393 37.4586 69.4629 39.5292 69.8393 41.9762C71.7217 41.9762 72.6629 41.5998 73.0393 40.0939C73.604 38.9645 73.4158 35.9527 73.2276 34.0703Z" fill="#7B0A20"/>
<rect width="12.2353" height="8.42662" fill="black" fill-opacity="0" transform="translate(62.1216 45.5969)"/>
<path d="M66.4511 54.0235C65.1334 54.0235 64.004 53.6471 62.8746 52.8941L62.1216 52.3294L64.1922 48.9412C65.1334 47.2471 66.6393 46.1177 68.5216 45.7412C70.2158 45.3647 72.0981 45.7412 73.604 46.6824L74.3569 47.2471L72.2863 50.6353C71.3452 52.3294 69.8393 53.4588 67.9569 53.8353C67.3922 54.0235 66.8275 54.0235 66.4511 54.0235ZM64.7569 51.7647C65.6981 52.1412 66.6393 52.1412 67.5805 51.953C68.8981 51.5765 70.0275 50.8235 70.7805 49.6941L71.9099 48C70.9687 47.6235 70.0275 47.6235 69.0863 47.8118C67.7687 48.1882 66.6393 48.9412 65.8863 50.0706L64.7569 51.7647Z" fill="#7B0A20"/>
<rect width="14.8706" height="8.42072" fill="black" fill-opacity="0" transform="translate(54.2158 55.5796)"/>
<path d="M60.9922 64.0003C60.6158 64.0003 60.0511 64.0003 59.6746 63.8121C57.604 63.4356 55.9099 62.3062 54.7805 60.4238L54.2158 59.6709L57.7922 57.0356C59.4863 55.718 61.5569 55.3415 63.6275 55.718C65.6981 56.0944 67.3922 57.2238 68.5216 59.1062L69.0863 59.8591L65.5099 62.4944C64.1922 63.4356 62.6863 64.0003 60.9922 64.0003ZM56.8511 60.2356C57.7922 61.1768 58.7334 61.7415 60.0511 61.9297C61.5569 62.118 63.0628 61.9297 64.3805 60.9885L66.4511 59.4827C65.5099 58.5415 64.5687 57.9768 63.2511 57.7885C61.7452 57.6003 60.2393 57.7885 58.9216 58.7297L56.8511 60.2356Z" fill="#7B0A20"/>
<rect width="19.3882" height="52.8941" fill="black" fill-opacity="0" transform="translate(5.83936 10.353)"/>
<path d="M24.2864 63.2471C12.9923 58.353 5.83936 47.0589 5.83936 34.2589C5.83936 25.0354 9.60406 16.3766 16.3805 10.353L17.6982 11.6707C11.2982 17.506 7.72171 25.6001 7.72171 34.2589C7.72171 46.306 14.4982 56.8471 25.2276 61.553L24.2864 63.2471Z" fill="#7B0A20"/>
<rect width="8.77293" height="12.8" fill="black" fill-opacity="0" transform="translate(14.74)"/>
<path d="M15.8158 12.8L15.4393 12.0471C13.7452 8.28235 15.2511 3.76471 18.6393 1.88235L22.404 0L22.7805 0.941176C24.4746 4.70588 23.157 9.03529 19.5805 10.9176L15.8158 12.8ZM21.4629 2.63529L19.5805 3.57647C17.1335 4.89412 16.004 7.71765 16.757 10.1647L18.6393 9.22353C21.0864 8.09412 22.2158 5.08235 21.4629 2.63529Z" fill="#7B0A20"/>
<rect width="7.20622" height="12.6118" fill="black" fill-opacity="0" transform="translate(1.57745 18.635)"/>
<path d="M7.34527 31.2468L6.40409 31.0585C2.82762 30.1174 0.757035 26.1644 1.88645 22.3997L3.01586 18.635L3.95703 18.8232C7.53351 19.7644 9.60409 23.7174 8.47468 27.4821L7.34527 31.2468ZM4.33351 20.8938L3.7688 22.7762C3.01586 25.2232 4.14527 27.6703 6.02762 28.6115L6.59233 26.7291C7.34527 24.4703 6.21586 22.0232 4.33351 20.8938Z" fill="#7B0A20"/>
<rect width="7.01165" height="13.1765" fill="black" fill-opacity="0" transform="translate(6.80951 7.5293)"/>
<path d="M10.7334 20.7058L9.98049 20.1411C6.78049 18.2587 5.83931 13.9293 7.9099 10.7293L9.98049 7.5293L10.7334 8.094C13.9334 10.1646 14.6864 14.3058 12.804 17.5058L10.7334 20.7058ZM10.357 10.1646L9.41578 11.8587C8.09814 13.7411 8.47461 16.3764 10.1687 18.0705L11.1099 16.5646C12.4275 14.494 12.0511 11.8587 10.357 10.1646Z" fill="#7B0A20"/>
<rect width="7.35251" height="12.0471" fill="black" fill-opacity="0" transform="translate(0 32)"/>
<path d="M6.96876 44.0471H6.21582C4.33347 44.0471 1.3217 44.0471 0.380524 40.8471C-0.372417 38.5882 0.192289 33.5059 0.380524 32.9412L0.56876 32H1.50994C3.39229 32.3765 5.08641 33.3176 6.02758 35.0118C7.34523 37.0824 7.7217 40.0941 6.96876 43.2941V44.0471ZM2.26288 34.0706C2.07464 35.9529 1.88641 38.7765 2.26288 40.0941C2.63935 41.4118 3.58052 41.7882 5.46288 41.9765C5.83935 39.5294 5.65111 37.4588 4.5217 35.9529C3.95699 35.2 3.20405 34.4471 2.26288 34.0706Z" fill="#7B0A20"/>
<rect width="12.2353" height="8.42662" fill="black" fill-opacity="0" transform="translate(1.13348 45.5969)"/>
<path d="M9.03937 54.0235C8.47466 54.0235 8.09819 54.0235 7.53348 53.8353C5.65113 53.4588 4.14525 52.3294 3.20407 50.6353L1.13348 47.2471L2.07466 46.6824C3.58054 45.7412 5.27466 45.3647 7.15701 45.7412C9.03937 46.1177 10.5452 47.2471 11.4864 48.9412L13.3688 52.5177L12.6158 53.0824C11.4864 53.6471 10.357 54.0235 9.03937 54.0235ZM3.95701 48L5.08643 49.6941C5.83937 50.8235 6.96878 51.7647 8.28643 51.953C9.2276 52.1412 10.1688 52.1412 11.11 51.7647L10.1688 50.0706C9.41584 48.9412 8.28643 48 6.96878 47.8118C5.65113 47.4353 4.70995 47.6235 3.95701 48Z" fill="#7B0A20"/>
<rect width="15.0588" height="8.3985" fill="black" fill-opacity="0" transform="translate(6.40405 55.6016)"/>
<path d="M14.4982 64.0001C12.9923 64.0001 11.2982 63.4354 9.98052 62.4942L6.40405 59.8589L6.96876 59.1059C8.09817 57.4118 9.98052 56.0942 12.0511 55.7177C14.1217 55.3412 16.1923 55.9059 17.8864 57.0354L21.4629 59.6707L20.8982 60.4236C19.7688 62.1177 17.8864 63.4354 16.0041 63.8118C15.4393 64.0001 14.8746 64.0001 14.4982 64.0001ZM9.03935 59.4824L11.1099 60.9883C12.4276 61.9295 13.9335 62.306 15.4393 61.9295C16.757 61.7412 17.6982 61.1765 18.6393 60.2354L16.5688 58.7295C15.2511 57.7883 13.7452 57.4118 12.2393 57.7883C11.1099 57.9765 9.98052 58.5412 9.03935 59.4824Z" fill="#7B0A20"/>
<rect width="39.9211" height="35.0118" fill="black" fill-opacity="0" transform="translate(14.4982 18.2588)"/>
<path d="M52.3334 38.9644L40.2863 26.9173H32.9451L25.604 19.5762L15.6275 29.9291L19.0157 33.3174C18.8275 34.4468 18.6393 35.9526 19.7687 37.0821L31.4393 49.6938L32.9451 51.1997C35.204 53.4585 38.404 52.1409 38.9687 50.0703C41.0393 51.1997 43.4863 49.6938 43.8628 47.6232C46.4981 48.5644 49.3216 47.0585 49.8863 45.1762C52.7099 44.7997 54.2157 41.5997 52.3334 38.9644Z" fill="white"/>
<path d="M35.5805 53.0823C34.4511 53.0823 33.1335 52.5176 32.1923 51.5764L30.6864 50.0706L19.0158 37.4588C17.8864 36.3294 17.8864 34.6353 18.0746 33.5058L14.4982 29.9294L25.7923 18.2588L33.5099 25.9764H40.8511L53.2746 38.4C54.4041 39.9058 54.7805 41.7882 54.0276 43.4823C53.4629 44.8 52.1452 45.7411 50.8276 45.9294C50.2629 46.8706 49.3217 47.6235 48.1923 48.1882C47.0629 48.7529 45.9335 48.7529 44.8041 48.7529C44.4276 49.6941 43.6746 50.447 42.9217 50.8235C41.9805 51.3882 40.8511 51.3882 39.9099 51.2C39.3452 52.1411 38.4041 52.8941 37.2746 53.2705C36.3335 53.0823 35.957 53.0823 35.5805 53.0823ZM17.1335 29.7411L20.1452 32.7529V33.1294C19.957 34.447 19.957 35.3882 20.5217 35.9529L33.6982 50.0706C34.8276 51.2 35.7688 51.0117 36.3335 50.8235C37.2746 50.6353 37.8393 49.8823 38.0276 49.1294L38.404 48L39.5335 48.5647C40.2864 48.9411 41.0393 48.9411 41.7923 48.5647C42.5452 48.1882 42.9217 47.6235 43.1099 46.8706L43.2982 45.7411L44.4276 46.1176C45.3688 46.4941 46.4982 46.3058 47.4393 45.9294C48.3805 45.5529 48.9452 44.9882 49.1335 44.2353L49.3217 43.6706H49.8864C50.8276 43.6706 51.7688 43.1058 52.1452 42.1647C52.5217 41.2235 52.3335 40.0941 51.7688 39.1529L39.7217 27.6706H32.3805L25.6041 20.8941L17.1335 29.7411Z" fill="#7B0A20"/>
<rect width="35.3684" height="19.0118" fill="black" fill-opacity="0" transform="translate(26.5651 19.7646)"/>
<path d="M52.1453 20.8943C52.1453 20.8943 48.5688 22.9649 47.8159 23.1531C46.6864 23.3413 40.4747 21.2708 39.3453 21.0825C38.4041 20.8943 28.4276 23.9061 27.6747 25.2237C26.9217 26.3531 30.1217 29.7413 32.9453 29.3649C35.7688 28.9884 39.91 27.6708 41.2276 28.8002C41.2276 28.8002 48.3806 35.2002 51.2041 37.6472C53.4629 39.7178 57.7923 33.8825 58.7335 32.7531L61.1806 29.9296L52.1453 20.8943Z" fill="white"/>
<path d="M52.1453 38.7764C51.5805 38.7764 50.8276 38.5882 50.4511 38.2117C47.8158 35.7646 40.4747 29.3646 40.4747 29.3646C39.91 28.7999 37.2747 29.3646 35.5805 29.7411C34.6394 29.9294 33.8864 30.1176 32.9453 30.1176C30.6864 30.3058 28.2394 28.7999 27.11 27.1058C26.357 25.7882 26.5453 25.0352 26.7335 24.6588C27.6747 22.9646 38.2158 19.9529 39.3453 20.1411C39.5335 20.1411 40.0982 20.3294 40.8511 20.5176C42.357 20.8941 46.4982 22.2117 47.2511 22.2117C47.6276 22.2117 49.6982 21.0823 51.3923 20.1411L51.957 19.7646L61.9335 29.7411L58.9217 33.1294C58.7335 33.3176 58.5453 33.5058 58.357 33.6941C57.0394 35.3882 54.4041 38.5882 51.957 38.7764C52.3335 38.7764 52.1453 38.7764 52.1453 38.7764ZM41.7923 28.047C41.7923 28.047 48.9453 34.447 51.7688 36.8941C51.957 37.0823 52.1453 37.0823 52.3335 37.0823C53.8394 36.8941 56.4747 33.8823 57.4158 32.7529C57.6041 32.3764 57.7923 32.1882 57.9805 31.9999L59.8629 29.9294L52.1453 22.2117C50.8276 22.9646 48.757 24.0941 48.0041 24.0941C47.0629 24.2823 44.8041 23.5294 40.6629 22.3999C39.91 22.2117 39.3453 22.0235 39.157 22.0235C37.8394 22.0235 29.3688 24.847 28.4276 25.7882C28.4276 25.7882 28.6158 26.3529 29.3688 27.1058C30.1217 27.8588 31.4394 28.6117 32.757 28.4235C33.51 28.4235 34.2629 28.2352 35.2041 28.047C38.0276 27.2941 40.4747 26.7294 41.7923 28.047Z" fill="#7B0A20"/>
<rect width="16.7124" height="16.1515" fill="black" fill-opacity="0" transform="translate(16.0446 35.425)"/>
<path d="M29.7452 44.6119C29.557 43.2943 28.2393 41.9766 26.9217 41.6001C26.5452 40.4707 25.604 38.7766 23.5334 38.7766C23.157 37.2707 20.7099 35.5766 19.3923 36.706L17.8864 38.2119C16.5687 39.5295 17.3217 41.7884 19.204 42.1648C19.3923 43.106 20.1452 44.8001 22.404 45.3648C22.9687 46.8707 23.7217 47.8119 25.7923 48.1884C26.5452 50.0707 28.6158 51.7648 30.4982 50.0707L31.6276 48.9413C32.5687 47.4354 31.4393 45.1766 29.7452 44.6119Z" fill="white"/>
<path d="M28.804 51.5766C28.6158 51.5766 28.4275 51.5766 28.0511 51.5766C26.7334 51.2001 25.604 50.0707 25.0393 48.9413C23.157 48.3766 22.2158 47.2472 21.6511 46.1178C19.7687 45.5531 18.6393 44.2354 18.2628 42.9178C17.3217 42.5413 16.5687 41.7884 16.1922 40.8472C15.8158 39.7178 16.1922 38.5884 16.9452 37.6472L18.4511 36.1413C19.0158 35.5766 19.957 35.2001 21.0864 35.5766C22.2158 35.9531 23.5334 36.8942 23.9099 38.0237C25.7922 38.4001 26.9217 39.7178 27.4864 41.0354C28.804 41.6001 30.1217 42.9178 30.4981 44.2354C31.4393 44.8001 32.3805 45.7413 32.5687 46.6825C32.9452 47.8119 32.757 48.7531 32.004 49.506L30.8746 50.6354C30.4981 51.2001 29.557 51.5766 28.804 51.5766ZM20.3334 37.2707C20.1452 37.2707 19.957 37.4589 19.957 37.4589L18.4511 38.9648C18.0746 39.3413 18.0746 39.906 18.2628 40.2825C18.4511 40.8472 18.8275 41.2236 19.3922 41.2236L20.1452 41.4119V42.1648C20.1452 42.3531 20.5217 44.0472 22.5922 44.4236L23.157 44.6119L23.3452 45.1766C23.7217 46.306 24.2864 47.0589 25.9805 47.4354L26.5452 47.6236L26.7334 48.1884C27.1099 49.1295 27.8628 49.8825 28.6158 50.0707C28.9922 50.2589 29.557 50.0707 29.9334 49.6942L31.0628 48.5648C31.2511 48.1884 31.2511 47.8119 31.0628 47.4354C30.8746 46.6825 30.3099 46.1178 29.557 45.9295L28.9922 45.7413V45.1766C28.804 44.2354 27.8628 43.2942 26.7334 42.9178L26.1687 42.7295L25.9805 42.1648C25.7922 41.7884 25.2275 40.0942 23.3452 39.906H22.5922L22.404 39.1531C22.2158 38.5884 21.4628 37.6472 20.5217 37.4589C20.5217 37.2707 20.5217 37.2707 20.3334 37.2707Z" fill="#7B0A20"/>
<rect width="4.9241" height="4.92538" fill="black" fill-opacity="0" transform="translate(34.6082 45.5051)"/>
<path d="M35.9395 45.5051L34.6082 46.8357L38.2009 50.4304L39.5323 49.0998L35.9395 45.5051Z" fill="#7B0A20"/>
<rect width="6.12265" height="6.12265" fill="black" fill-opacity="0" transform="translate(38.2545 41.7568)"/>
<path d="M39.5855 41.7569L38.2545 43.0879L43.0461 47.8795L44.3771 46.5485L39.5855 41.7569Z" fill="#7B0A20"/>
<rect width="7.32056" height="7.32056" fill="black" fill-opacity="0" transform="translate(43.1872 38.1997)"/>
<path d="M44.5182 38.1997L43.1872 39.5308L49.1767 45.5203L50.5078 44.1893L44.5182 38.1997Z" fill="#7B0A20"/>
</svg>
