<svg width="9" height="12" viewBox="0 0 9 12" fill="none" xmlns="http://www.w3.org/2000/svg">
<path fill-rule="evenodd" clip-rule="evenodd" d="M4.50012 5.55604C3.82934 5.55604 3.28375 5.0193 3.28375 4.35956C3.28375 3.69983 3.82934 3.16309 4.50012 3.16309C5.17089 3.16309 5.71675 3.69983 5.71675 4.35956C5.71675 5.0193 5.17089 5.55604 4.50012 5.55604ZM4.50013 2.25C3.30313 2.25 2.32922 3.1963 2.32922 4.35952C2.32922 5.52274 3.30313 6.46904 4.50013 6.46904C5.69727 6.46904 6.67131 5.52274 6.67131 4.35952C6.67131 3.1963 5.69727 2.25 4.50013 2.25ZM4.49962 10.7129C4.13103 10.3216 3.54862 9.6694 2.96853 8.88249C1.74017 7.21619 1.09094 5.72232 1.09094 4.56236C1.09094 1.29679 3.70026 1.04297 4.50003 1.04297C7.66326 1.04297 7.90912 3.73671 7.90912 4.56236C7.90912 6.85893 5.46644 9.68453 4.49962 10.7129ZM7.56123 1.03539C6.77795 0.367826 5.69073 0 4.5 0C3.30927 0 2.22205 0.367826 1.43877 1.03539C0.497455 1.83783 0 3.05752 0 4.56287C0 7.84174 3.94486 11.6838 4.11273 11.8457C4.21514 11.9446 4.35464 12 4.5 12C4.64536 12 4.78486 11.9446 4.88727 11.8457C5.05514 11.6838 9 7.84174 9 4.56287C9 3.05752 8.50255 1.83783 7.56123 1.03539Z" fill="#4F4F4F"/>
</svg>
