<svg width="12" height="12" viewBox="0 0 12 12" fill="none" xmlns="http://www.w3.org/2000/svg">
<path fill-rule="evenodd" clip-rule="evenodd" d="M4.01094 7.991C1.54201 5.52248 0.870945 2.75475 1.09828 2.28275L2.48721 1.07422C2.48854 1.07462 2.48988 1.07502 2.49121 1.07555L3.86921 2.81515L3.16587 3.28301C3.15201 3.29221 3.13854 3.30208 3.12574 3.31248C2.93014 3.47075 2.81468 3.70408 2.80081 3.96941C2.78694 4.22808 2.74587 5.01394 4.86734 7.13501C5.392 7.65954 6.98853 9.2558 8.03293 9.201C8.29853 9.187 8.53186 9.07167 8.69026 8.8762C8.7008 8.86327 8.71053 8.84994 8.71973 8.83607L9.18786 8.1326L10.9273 9.51047C10.9279 9.51193 10.9284 9.5134 10.9289 9.515L9.72013 10.9031C9.24786 11.1305 6.48027 10.4597 4.01094 7.991ZM10.4685 11.6649C10.4772 11.6562 10.4856 11.6471 10.4936 11.6379L11.7414 10.205C11.9289 10.0079 12.0214 9.72966 11.9957 9.43806C11.973 9.17806 11.8574 8.9266 11.6788 8.74806C11.6642 8.73366 11.649 8.72006 11.633 8.7074L9.85611 7.2998C9.46118 6.93233 8.84065 6.94073 8.45598 7.32487C8.43092 7.34993 8.40852 7.3774 8.38892 7.40673L7.90985 8.12646C7.66039 8.06926 6.93639 7.69367 5.62186 6.37954C4.30733 5.06527 3.93159 4.34114 3.87426 4.09167L4.59399 3.61287C4.62346 3.59327 4.65093 3.57087 4.67586 3.54581C5.06039 3.16114 5.06879 2.54061 4.70106 2.14581L3.2936 0.369015C3.28066 0.352748 3.26693 0.337415 3.25226 0.322748C2.84573 -0.082984 2.18413 -0.109117 1.79533 0.261015L0.362135 1.50835C0.352801 1.51635 0.343735 1.52475 0.335068 1.53341C0.0886688 1.77981 1.90725e-06 2.14941 1.90725e-06 2.55421C1.90725e-06 3.28528 0.289601 4.13074 0.462401 4.57021C0.796667 5.41967 1.60413 7.0914 3.25679 8.7438C4.48173 9.96846 5.96426 10.9607 7.43119 11.5377C8.11398 11.8062 9.77691 12.3563 10.4685 11.6649Z" fill="#4F4F4F"/>
</svg>
