<svg width="120" height="120" viewBox="0 0 120 120" fill="none" xmlns="http://www.w3.org/2000/svg">
<rect width="120" height="120" fill="black" fill-opacity="0"/>
<rect width="120" height="120" fill="black" fill-opacity="0"/>
<rect width="120" height="120" fill="black" fill-opacity="0"/>
<path d="M111.938 30.0286C103.923 16.1544 91.0095 6.21752 75.5182 2.06933C60.0503 -2.07887 43.8794 0.0538199 30.0052 8.06898C16.1544 16.0841 6.21752 29.0209 2.06933 44.4887C-2.07887 59.9566 0.0538199 76.1275 8.06898 90.0017C16.0841 103.876 29.0209 113.789 44.4887 117.938C49.6447 119.32 54.8944 120 60.0972 120C70.4794 120 80.7444 117.281 89.9783 111.938C103.852 103.923 113.766 90.986 117.914 75.5182C122.086 60.0503 119.953 43.8794 111.938 30.0286ZM111.891 73.9011C108.188 87.7518 99.2824 99.3527 86.8613 106.524C74.4401 113.696 59.9566 115.594 46.0824 111.891C32.2316 108.188 20.6307 99.2824 13.4593 86.8613C6.28783 74.4401 4.3895 59.9566 8.09241 46.0824C11.8188 32.2316 20.7011 20.6542 33.1456 13.4827C41.4186 8.70175 50.6056 6.2644 59.9097 6.2644C64.5735 6.2644 69.2842 6.87373 73.9011 8.11585C87.7518 11.8188 99.3527 20.7245 106.524 33.1456C113.696 45.5668 115.617 60.0503 111.891 73.9011Z" fill="white"/>
<path opacity="0.22" fill-rule="evenodd" clip-rule="evenodd" d="M60 120C93.1372 120 120 93.1371 120 60C120 26.8629 93.1372 0 60 0C26.8628 0 0 26.8629 0 60C0 93.1371 26.8628 120 60 120ZM47.1135 82.5255L85.666 60.2611C85.7129 60.2377 85.8066 60.1674 85.8066 60.0033C85.8066 59.8392 85.7129 59.7689 85.666 59.7455L47.1135 37.4812C47.0901 37.4578 47.0432 37.4343 46.9729 37.4343C46.9495 37.4343 46.8792 37.4578 46.8323 37.4812C46.6917 37.575 46.6917 37.6921 46.6917 37.739V82.2677C46.6917 82.338 46.6917 82.4318 46.8323 82.5255C46.9587 82.6097 47.0474 82.5615 47.0979 82.5338L47.1135 82.5255Z" fill="white"/>
<rect width="51.5833" height="57.5943" fill="black" fill-opacity="0" transform="translate(40.4343 31.2122)"/>
<rect width="51.5833" height="57.5943" fill="black" fill-opacity="0" transform="translate(40.4343 31.2122)"/>
<path d="M88.7831 54.3553L50.2306 32.091C48.1917 30.9192 45.7309 30.9192 43.6919 32.091C41.653 33.2628 40.4343 35.3955 40.4343 37.7391V82.2678C40.4343 84.6348 41.653 86.7441 43.6919 87.9159C44.7231 88.5018 45.8481 88.8065 46.9496 88.8065C48.0745 88.8065 49.1994 88.5018 50.2072 87.9159L88.7596 65.6516C90.7986 64.4798 92.0173 62.3471 92.0173 59.98C92.0407 57.6364 90.822 55.5271 88.7831 54.3553ZM85.6661 60.2613L47.1136 82.5256C47.0668 82.549 46.973 82.6193 46.8324 82.5256C46.6918 82.4318 46.6918 82.3381 46.6918 82.2678V37.7391C46.6918 37.6923 46.6918 37.5751 46.8324 37.4813C46.8793 37.4579 46.9496 37.4345 46.973 37.4345C47.0433 37.4345 47.0902 37.4579 47.1136 37.4813L85.6661 59.7457C85.7129 59.7691 85.8067 59.8394 85.8067 60.0035C85.8067 60.1675 85.7129 60.2378 85.6661 60.2613Z" fill="white"/>
<rect width="34.8241" height="22.7624" fill="black" fill-opacity="0" transform="translate(62.6926 13.8049)"/>
<rect width="34.8241" height="22.7624" fill="black" fill-opacity="0" transform="translate(62.6926 13.8049)"/>
<path d="M96.8684 31.5051C89.4392 21.9197 78.2836 15.4748 66.2374 13.8343C64.5265 13.5999 62.9563 14.7952 62.722 16.506C62.4876 18.2168 63.6828 19.787 65.3937 20.0214C75.8228 21.451 85.5019 27.0288 91.9234 35.3486C92.5327 36.1455 93.4702 36.5673 94.3842 36.5673C95.0404 36.5673 95.72 36.3564 96.2825 35.9111C97.6652 34.833 97.923 32.8878 96.8684 31.5051Z" fill="white"/>
</svg>
