<svg width="65" height="45" viewBox="0 0 65 45" fill="none" xmlns="http://www.w3.org/2000/svg">
<rect width="65" height="45" fill="black" fill-opacity="0" transform="translate(65 45) rotate(-180)"/>
<rect width="65" height="45" fill="black" fill-opacity="0" transform="translate(65 45) rotate(-180)"/>
<path d="M37.4215 14.1509C37.4215 4.81132 45.5811 0 50.927 0C56.5543 0 64.9953 5.66038 64.9953 16.1321C65.2767 32.2642 52.8966 43.8679 44.1743 45C43.6116 43.8679 42.7675 42.1698 42.7675 42.1698C46.7066 40.4717 57.3984 32.8302 57.9612 25.7547C54.8662 27.7358 53.7407 28.5849 50.0829 28.5849C42.7675 28.5849 37.4215 21.5094 37.4215 14.1509ZM0 14.1509C0 4.81132 8.15958 0 13.5055 0C19.1328 0 27.5738 5.66038 27.5738 16.1321C27.5738 32.2642 15.1937 43.8679 6.47139 45C5.90866 43.8679 5.06457 42.1698 5.06457 42.1698C9.00368 40.4717 19.6955 32.8302 20.2583 25.7547C17.1633 27.7358 16.0378 28.5849 12.3801 28.5849C5.06457 28.5849 0 21.5094 0 14.1509Z" fill="#E2E1E4"/>
</svg>
