<svg width="65" height="45" viewBox="0 0 65 45" fill="none" xmlns="http://www.w3.org/2000/svg">
<rect width="65" height="45" fill="black" fill-opacity="0"/>
<rect width="65" height="45" fill="black" fill-opacity="0"/>
<path d="M27.5785 30.8491C27.5785 40.1887 19.4189 45 14.073 45C8.44566 45 0.00471204 39.3396 0.00471204 28.8679C-0.276653 12.7358 12.1034 1.13208 20.8257 0C21.3884 1.13208 22.2325 2.83019 22.2325 2.83019C18.2934 4.5283 7.60156 12.1698 7.03883 19.2453C10.1338 17.2642 11.2593 16.4151 14.9171 16.4151C22.2325 16.4151 27.5785 23.4906 27.5785 30.8491ZM65 30.8491C65 40.1887 56.8404 45 51.4945 45C45.8672 45 37.4262 39.3396 37.4262 28.8679C37.4262 12.7358 49.8063 1.13208 58.5286 0C59.0913 1.13208 59.9354 2.83019 59.9354 2.83019C55.9963 4.5283 45.3045 12.1698 44.7417 19.2453C47.8367 17.2642 48.9622 16.4151 52.6199 16.4151C59.9354 16.4151 65 23.4906 65 30.8491Z" fill="#E2E1E4"/>
</svg>
