<svg width="64" height="64" viewBox="0 0 64 64" fill="none" xmlns="http://www.w3.org/2000/svg">
<rect width="64" height="64" fill="black" fill-opacity="0"/>
<rect width="64" height="64" fill="black" fill-opacity="0"/>
<rect width="64" height="64" fill="black" fill-opacity="0"/>
<path d="M8.25806 9.29032V9.26348C9.504 8.32103 10.3226 6.84077 10.3226 5.16129C10.3226 2.31535 8.00723 0 5.16129 0C2.31535 0 0 2.31535 0 5.16129C0 6.84077 0.818581 8.32103 2.06452 9.26348V64H4.12903V10.2183C4.46245 10.2865 4.80826 10.3226 5.16129 10.3226C5.51432 10.3226 5.86013 10.2865 6.19355 10.2183V64H8.25806V54.7097H64V9.29032H8.25806ZM40.2581 11.3548H56.3892L40.2581 21.8395V11.3548ZM29.9355 11.3548V21.8395L13.8044 11.3548H29.9355ZM10.017 11.3548L29.9355 24.3025V26.8387H28.1765L8.25806 13.8911V11.3548H10.017ZM24.3892 26.8387H8.25806V16.3541L24.3892 26.8387ZM5.16129 8.25806C3.45394 8.25806 2.06452 6.86865 2.06452 5.16129C2.06452 3.45394 3.45394 2.06452 5.16129 2.06452C6.86865 2.06452 8.25806 3.45394 8.25806 5.16129C8.25806 6.86865 6.86865 8.25806 5.16129 8.25806ZM29.9355 52.6452H13.8054L29.9355 42.1605V52.6452ZM29.9355 39.6975L10.016 52.6452H8.25806V50.1089L10.8852 48.4015L9.76 46.6694L8.25806 47.6459V37.1613H24.3881L11.5221 45.5246L12.6472 47.2568L28.1775 37.1613H29.9355V39.6975ZM40.2581 52.6452V42.1605L56.3881 52.6452H40.2581ZM61.9355 52.6452H60.1775L40.2581 39.6975V37.1613H42.016L61.9355 50.1089V52.6452ZM61.9355 35.0968H59.871V37.1613H61.9355V47.6459L45.8054 37.1613H57.8064V35.0968H38.1936V52.6452H32V35.0968H8.25806V28.9032H32V11.3548H38.1936V28.9032H61.9355V35.0968ZM61.9355 26.8387H45.8044L61.9355 16.3541V26.8387ZM61.9355 13.8911L42.017 26.8387H40.2581V24.3025L60.1765 11.3548H61.9355V13.8911Z" fill="#7B0A20"/>
</svg>
