<svg width="38" height="40" viewBox="0 0 38 40" fill="none" xmlns="http://www.w3.org/2000/svg">
<rect width="38" height="40" fill="black" fill-opacity="0"/>
<rect width="38" height="40" fill="black" fill-opacity="0"/>
<g opacity="0.3">
<rect width="34.018" height="2.27579" fill="black" fill-opacity="0" transform="translate(3.01541 37.7246)"/>
<path opacity="0.0243902" d="M20.0245 40.0004C29.1984 40.0004 36.6353 39.4909 36.6353 38.8625C36.6353 38.2341 29.1984 37.7246 20.0245 37.7246C10.8506 37.7246 3.4137 38.2341 3.4137 38.8625C3.4137 39.4909 10.8506 40.0004 20.0245 40.0004Z" fill="url(#paint0_radial)"/>
<path opacity="0.0487805" d="M20.0245 39.9442C28.9785 39.9442 36.2371 39.4602 36.2371 38.8632C36.2371 38.2662 28.9785 37.7822 20.0245 37.7822C11.0706 37.7822 3.81195 38.2662 3.81195 38.8632C3.81195 39.4602 11.0706 39.9442 20.0245 39.9442Z" fill="url(#paint1_radial)"/>
<path opacity="0.0731707" d="M20.0246 39.9442C28.7586 39.9442 35.8389 39.4602 35.8389 38.8632C35.8389 38.2662 28.7586 37.7822 20.0246 37.7822C11.2905 37.7822 4.21021 38.2662 4.21021 38.8632C4.21021 39.4602 11.2905 39.9442 20.0246 39.9442Z" fill="url(#paint2_radial)"/>
<path opacity="0.097561" d="M20.0246 39.8871C28.5387 39.8871 35.4408 39.4286 35.4408 38.863C35.4408 38.2974 28.5387 37.8389 20.0246 37.8389C11.5105 37.8389 4.60846 38.2974 4.60846 38.863C4.60846 39.4286 11.5105 39.8871 20.0246 39.8871Z" fill="url(#paint3_radial)"/>
<path opacity="0.122" d="M20.0247 39.8871C28.3189 39.8871 35.0426 39.4286 35.0426 38.863C35.0426 38.2974 28.3189 37.8389 20.0247 37.8389C11.7305 37.8389 5.00671 38.2974 5.00671 38.863C5.00671 39.4286 11.7305 39.8871 20.0247 39.8871Z" fill="url(#paint4_radial)"/>
<path opacity="0.1463" d="M20.0248 39.8299C28.0991 39.8299 34.6446 39.3969 34.6446 38.8627C34.6446 38.3285 28.0991 37.8955 20.0248 37.8955C11.9505 37.8955 5.40503 38.3285 5.40503 38.8627C5.40503 39.3969 11.9505 39.8299 20.0248 39.8299Z" fill="url(#paint5_radial)"/>
<path opacity="0.1707" d="M20.0248 39.8299C27.8792 39.8299 34.2464 39.3969 34.2464 38.8627C34.2464 38.3285 27.8792 37.8955 20.0248 37.8955C12.1705 37.8955 5.80328 38.3285 5.80328 38.8627C5.80328 39.3969 12.1705 39.8299 20.0248 39.8299Z" fill="url(#paint6_radial)"/>
<path opacity="0.1951" d="M20.0249 39.7728C27.6593 39.7728 33.8482 39.3652 33.8482 38.8625C33.8482 38.3597 27.6593 37.9521 20.0249 37.9521C12.3905 37.9521 6.20154 38.3597 6.20154 38.8625C6.20154 39.3652 12.3905 39.7728 20.0249 39.7728Z" fill="url(#paint7_radial)"/>
<path opacity="0.2195" d="M20.0249 39.7728C27.4394 39.7728 33.4501 39.3652 33.4501 38.8625C33.4501 38.3597 27.4394 37.9521 20.0249 37.9521C12.6104 37.9521 6.59979 38.3597 6.59979 38.8625C6.59979 39.3652 12.6104 39.7728 20.0249 39.7728Z" fill="url(#paint8_radial)"/>
<path opacity="0.2439" d="M20.024 39.7166C27.2185 39.7166 33.0509 39.3345 33.0509 38.8632C33.0509 38.3919 27.2185 38.0098 20.024 38.0098C12.8294 38.0098 6.99701 38.3919 6.99701 38.8632C6.99701 39.3345 12.8294 39.7166 20.024 39.7166Z" fill="url(#paint9_radial)"/>
<path opacity="0.2683" d="M20.0239 39.7166C26.9986 39.7166 32.6527 39.3345 32.6527 38.8632C32.6527 38.3919 26.9986 38.0098 20.0239 38.0098C13.0493 38.0098 7.3952 38.3919 7.3952 38.8632C7.3952 39.3345 13.0493 39.7166 20.0239 39.7166Z" fill="url(#paint10_radial)"/>
<path opacity="0.2927" d="M20.0239 39.6595C26.7787 39.6595 32.2545 39.3028 32.2545 38.8629C32.2545 38.423 26.7787 38.0664 20.0239 38.0664C13.2692 38.0664 7.7934 38.423 7.7934 38.8629C7.7934 39.3028 13.2692 39.6595 20.0239 39.6595Z" fill="url(#paint11_radial)"/>
<path opacity="0.3171" d="M20.024 39.6595C26.5588 39.6595 31.8563 39.3028 31.8563 38.8629C31.8563 38.423 26.5588 38.0664 20.024 38.0664C13.4892 38.0664 8.19165 38.423 8.19165 38.8629C8.19165 39.3028 13.4892 39.6595 20.024 39.6595Z" fill="url(#paint12_radial)"/>
<path opacity="0.3415" d="M20.0239 39.6023C26.3388 39.6023 31.458 39.2712 31.458 38.8627C31.458 38.4542 26.3388 38.123 20.0239 38.123C13.709 38.123 8.58978 38.4542 8.58978 38.8627C8.58978 39.2712 13.709 39.6023 20.0239 39.6023Z" fill="url(#paint13_radial)"/>
<path opacity="0.3659" d="M20.024 39.6023C26.1189 39.6023 31.0599 39.2712 31.0599 38.8627C31.0599 38.4542 26.1189 38.123 20.024 38.123C13.929 38.123 8.98804 38.4542 8.98804 38.8627C8.98804 39.2712 13.929 39.6023 20.024 39.6023Z" fill="url(#paint14_radial)"/>
<path opacity="0.3902" d="M20.024 39.6023C25.899 39.6023 30.6617 39.2712 30.6617 38.8627C30.6617 38.4542 25.899 38.123 20.024 38.123C14.1489 38.123 9.38626 38.4542 9.38626 38.8627C9.38626 39.2712 14.1489 39.6023 20.024 39.6023Z" fill="url(#paint15_radial)"/>
<path opacity="0.4146" d="M20.0239 39.5452C25.6791 39.5452 30.2635 39.2395 30.2635 38.8624C30.2635 38.4854 25.6791 38.1797 20.0239 38.1797C14.3688 38.1797 9.78442 38.4854 9.78442 38.8624C9.78442 39.2395 14.3688 39.5452 20.0239 39.5452Z" fill="url(#paint16_radial)"/>
<path opacity="0.439" d="M20.0239 39.5452C25.4277 39.5452 29.8084 39.2395 29.8084 38.8624C29.8084 38.4854 25.4277 38.1797 20.0239 38.1797C14.6201 38.1797 10.2395 38.4854 10.2395 38.8624C10.2395 39.2395 14.6201 39.5452 20.0239 39.5452Z" fill="url(#paint17_radial)"/>
<path opacity="0.4634" d="M20.0239 39.489C25.2078 39.489 29.4102 39.2088 29.4102 38.8632C29.4102 38.5175 25.2078 38.2373 20.0239 38.2373C14.8401 38.2373 10.6377 38.5175 10.6377 38.8632C10.6377 39.2088 14.8401 39.489 20.0239 39.489Z" fill="url(#paint18_radial)"/>
<path opacity="0.4878" d="M20.024 39.489C24.9879 39.489 29.012 39.2088 29.012 38.8632C29.012 38.5175 24.9879 38.2373 20.024 38.2373C15.06 38.2373 11.0359 38.5175 11.0359 38.8632C11.0359 39.2088 15.06 39.489 20.024 39.489Z" fill="url(#paint19_radial)"/>
<path opacity="0.5122" d="M20.024 39.4309C24.768 39.4309 28.6138 39.1761 28.6138 38.8619C28.6138 38.5477 24.768 38.293 20.024 38.293C15.2799 38.293 11.4341 38.5477 11.4341 38.8619C11.4341 39.1761 15.2799 39.4309 20.024 39.4309Z" fill="url(#paint20_radial)"/>
<path opacity="0.5366" d="M20.024 39.4309C24.5481 39.4309 28.2156 39.1761 28.2156 38.8619C28.2156 38.5477 24.5481 38.293 20.024 38.293C15.4998 38.293 11.8323 38.5477 11.8323 38.8619C11.8323 39.1761 15.4998 39.4309 20.024 39.4309Z" fill="url(#paint21_radial)"/>
<path opacity="0.561" d="M20.0239 39.3747C24.3281 39.3747 27.8174 39.1454 27.8174 38.8626C27.8174 38.5798 24.3281 38.3506 20.0239 38.3506C15.7198 38.3506 12.2305 38.5798 12.2305 38.8626C12.2305 39.1454 15.7198 39.3747 20.0239 39.3747Z" fill="url(#paint22_radial)"/>
<path opacity="0.5854" d="M20.024 39.3747C24.1082 39.3747 27.4192 39.1454 27.4192 38.8626C27.4192 38.5798 24.1082 38.3506 20.024 38.3506C15.9397 38.3506 12.6288 38.5798 12.6288 38.8626C12.6288 39.1454 15.9397 39.3747 20.024 39.3747Z" fill="url(#paint23_radial)"/>
<path opacity="0.6098" d="M20.024 39.3175C23.8883 39.3175 27.021 39.1138 27.021 38.8624C27.021 38.611 23.8883 38.4072 20.024 38.4072C16.1596 38.4072 13.0269 38.611 13.0269 38.8624C13.0269 39.1138 16.1596 39.3175 20.024 39.3175Z" fill="url(#paint24_radial)"/>
<path opacity="0.6341" d="M20.0239 39.3175C23.6684 39.3175 26.6227 39.1138 26.6227 38.8624C26.6227 38.611 23.6684 38.4072 20.0239 38.4072C16.3795 38.4072 13.4251 38.611 13.4251 38.8624C13.4251 39.1138 16.3795 39.3175 20.0239 39.3175Z" fill="url(#paint25_radial)"/>
<path opacity="0.6585" d="M20.024 39.2614C23.4485 39.2614 26.2246 39.0831 26.2246 38.8631C26.2246 38.6432 23.4485 38.4648 20.024 38.4648C16.5995 38.4648 13.8234 38.6432 13.8234 38.8631C13.8234 39.0831 16.5995 39.2614 20.024 39.2614Z" fill="url(#paint26_radial)"/>
<path opacity="0.6829" d="M20.024 39.2614C23.2285 39.2614 25.8263 39.0831 25.8263 38.8631C25.8263 38.6432 23.2285 38.4648 20.024 38.4648C16.8194 38.4648 14.2216 38.6432 14.2216 38.8631C14.2216 39.0831 16.8194 39.2614 20.024 39.2614Z" fill="url(#paint27_radial)"/>
<path opacity="0.7073" d="M20.0239 39.2042C23.0086 39.2042 25.4281 39.0514 25.4281 38.8629C25.4281 38.6743 23.0086 38.5215 20.0239 38.5215C17.0393 38.5215 14.6198 38.6743 14.6198 38.8629C14.6198 39.0514 17.0393 39.2042 20.0239 39.2042Z" fill="url(#paint28_radial)"/>
<path opacity="0.7317" d="M20.024 39.2042C22.7887 39.2042 25.03 39.0514 25.03 38.8629C25.03 38.6743 22.7887 38.5215 20.024 38.5215C17.2592 38.5215 15.018 38.6743 15.018 38.8629C15.018 39.0514 17.2592 39.2042 20.024 39.2042Z" fill="url(#paint29_radial)"/>
<path opacity="0.7561" d="M20.0239 39.1471C22.5687 39.1471 24.6317 39.0197 24.6317 38.8626C24.6317 38.7055 22.5687 38.5781 20.0239 38.5781C17.4791 38.5781 15.4161 38.7055 15.4161 38.8626C15.4161 39.0197 17.4791 39.1471 20.0239 39.1471Z" fill="url(#paint30_radial)"/>
<path opacity="0.7805" d="M20.024 39.1471C22.3489 39.1471 24.2336 39.0197 24.2336 38.8626C24.2336 38.7055 22.3489 38.5781 20.024 38.5781C17.6991 38.5781 15.8144 38.7055 15.8144 38.8626C15.8144 39.0197 17.6991 39.1471 20.024 39.1471Z" fill="url(#paint31_radial)"/>
<path opacity="0.8049" d="M20.0239 39.0899C22.1289 39.0899 23.8353 38.988 23.8353 38.8623C23.8353 38.7367 22.1289 38.6348 20.0239 38.6348C17.919 38.6348 16.2126 38.7367 16.2126 38.8623C16.2126 38.988 17.919 39.0899 20.0239 39.0899Z" fill="url(#paint32_radial)"/>
<path opacity="0.8293" d="M20.024 39.0899C21.909 39.0899 23.4371 38.988 23.4371 38.8623C23.4371 38.7367 21.909 38.6348 20.024 38.6348C18.1389 38.6348 16.6108 38.7367 16.6108 38.8623C16.6108 38.988 18.1389 39.0899 20.024 39.0899Z" fill="url(#paint33_radial)"/>
<path opacity="0.8537" d="M20.0244 39.0328C21.6898 39.0328 23.0398 38.9564 23.0398 38.8621C23.0398 38.7678 21.6898 38.6914 20.0244 38.6914C18.359 38.6914 17.009 38.7678 17.009 38.8621C17.009 38.9564 18.359 39.0328 20.0244 39.0328Z" fill="url(#paint34_radial)"/>
<path opacity="0.878" d="M20.0244 39.0328C21.4698 39.0328 22.6415 38.9564 22.6415 38.8621C22.6415 38.7678 21.4698 38.6914 20.0244 38.6914C18.5789 38.6914 17.4072 38.7678 17.4072 38.8621C17.4072 38.9564 18.5789 39.0328 20.0244 39.0328Z" fill="url(#paint35_radial)"/>
<path opacity="0.9024" d="M20.0243 38.9756C21.2183 38.9756 22.1863 38.9247 22.1863 38.8618C22.1863 38.799 21.2183 38.748 20.0243 38.748C18.8302 38.748 17.8623 38.799 17.8623 38.8618C17.8623 38.9247 18.8302 38.9756 20.0243 38.9756Z" fill="url(#paint36_radial)"/>
<path opacity="0.9268" d="M20.0242 38.9756C20.9983 38.9756 21.788 38.9247 21.788 38.8618C21.788 38.799 20.9983 38.748 20.0242 38.748C19.0502 38.748 18.2605 38.799 18.2605 38.8618C18.2605 38.9247 19.0502 38.9756 20.0242 38.9756Z" fill="url(#paint37_radial)"/>
<path opacity="0.9512" d="M20.0242 38.9195C20.7783 38.9195 21.3896 38.894 21.3896 38.8626C21.3896 38.8311 20.7783 38.8057 20.0242 38.8057C19.27 38.8057 18.6587 38.8311 18.6587 38.8626C18.6587 38.894 19.27 38.9195 20.0242 38.9195Z" fill="url(#paint38_radial)"/>
<path opacity="0.9756" d="M20.0241 38.9195C20.5583 38.9195 20.9913 38.894 20.9913 38.8626C20.9913 38.8311 20.5583 38.8057 20.0241 38.8057C19.4899 38.8057 19.0569 38.8311 19.0569 38.8626C19.0569 38.894 19.4899 38.9195 20.0241 38.9195Z" fill="url(#paint39_radial)"/>
</g>
<path d="M19 37.6674C29.4671 37.6674 38 29.1901 38 18.6645V0.0599427C32.1407 3.98569 25.485 1.76679 20.9341 0.515101C18.3174 -0.224531 15.5868 -0.167636 13.0269 0.685786C5.46108 3.18916 0 10.301 0 18.7214C0 29.1901 8.47605 37.6674 19 37.6674Z" fill="url(#paint40_linear)"/>
<g opacity="0.7">
<rect width="33.5061" height="32.7147" fill="black" fill-opacity="0" transform="translate(3.24301 3.5293)"/>
<path opacity="0.0140845" d="M20.4797 36.1874C11.4917 36.1874 4.15335 28.9049 4.15335 19.9155C4.15335 10.9261 11.4917 3.64355 20.4797 3.64355C29.4677 3.64355 36.7492 10.9261 36.7492 19.9155C36.7492 28.9049 29.4108 36.1874 20.4797 36.1874Z" fill="black"/>
<path opacity="0.028169" d="M20.4228 36.1874C11.4348 36.1874 4.15335 28.9049 4.15335 19.9155C4.15335 10.9261 11.4348 3.64355 20.4228 3.64355C29.4108 3.64355 36.6923 10.9261 36.6923 19.9155C36.6923 28.9049 29.4108 36.1874 20.4228 36.1874Z" fill="black"/>
<path opacity="0.0422535" d="M20.4228 36.1874C11.4348 36.1874 4.15335 28.848 4.15335 19.9155C4.15335 10.9261 11.4348 3.64355 20.4228 3.64355C29.4108 3.64355 36.6923 10.9261 36.6923 19.9155C36.6923 28.848 29.354 36.1874 20.4228 36.1874Z" fill="black"/>
<path opacity="0.056338" d="M20.3659 36.1305C11.4348 36.1305 4.15335 28.848 4.15335 19.9155C4.15335 10.9261 11.4348 3.64355 20.4228 3.64355C29.4108 3.64355 36.6923 10.9261 36.6923 19.9155C36.6354 28.848 29.354 36.1305 20.3659 36.1305Z" fill="black"/>
<path opacity="0.0704225" d="M20.3659 36.1307C11.4348 36.1307 4.09647 28.8482 4.09647 19.8588C4.09647 10.9263 11.3779 3.58691 20.3659 3.58691C29.2971 3.58691 36.6354 10.8695 36.6354 19.8588C36.6354 28.8482 29.354 36.1307 20.3659 36.1307Z" fill="black"/>
<path opacity="0.084507" d="M20.3659 36.1305C11.3779 36.1305 4.09647 28.848 4.09647 19.8586C4.09647 10.9261 11.3779 3.64355 20.3659 3.64355C29.2971 3.64355 36.5785 10.9261 36.5785 19.8586C36.5785 28.848 29.2971 36.1305 20.3659 36.1305Z" fill="black"/>
<path opacity="0.0985916" d="M20.309 36.0736C11.3779 36.0736 4.09647 28.7911 4.09647 19.8586C4.09647 10.9261 11.3779 3.64355 20.309 3.64355C29.2402 3.64355 36.5216 10.9261 36.5216 19.8586C36.5785 28.7911 29.2971 36.0736 20.309 36.0736Z" fill="black"/>
<path opacity="0.1127" d="M20.309 36.0736C11.3779 36.0736 4.09647 28.7911 4.09647 19.8586C4.09647 10.9261 11.3779 3.64355 20.309 3.64355C29.2402 3.64355 36.5216 10.9261 36.5216 19.8586C36.5216 28.7911 29.2402 36.0736 20.309 36.0736Z" fill="black"/>
<path opacity="0.1268" d="M20.2521 36.0736C11.321 36.0736 4.03955 28.7911 4.03955 19.8586C4.03955 10.9261 11.321 3.64355 20.2521 3.64355C29.1833 3.64355 36.4647 10.9261 36.4647 19.8586C36.4647 28.7911 29.2402 36.0736 20.2521 36.0736Z" fill="black"/>
<path opacity="0.1408" d="M20.2521 36.017C11.321 36.017 4.03955 28.7344 4.03955 19.8019C4.03955 10.8695 11.321 3.58691 20.2521 3.58691C29.1833 3.58691 36.4647 10.8695 36.4647 19.8019C36.4647 28.7913 29.1833 36.017 20.2521 36.017Z" fill="black"/>
<path opacity="0.1549" d="M20.2521 36.017C11.321 36.017 4.03955 28.7344 4.03955 19.8019C4.03955 10.8695 11.321 3.58691 20.2521 3.58691C29.1833 3.64381 36.4078 10.8695 36.4078 19.8019C36.4078 28.7344 29.1833 36.017 20.2521 36.017Z" fill="black"/>
<path opacity="0.169" d="M20.1952 36.0158C11.2641 36.0158 4.03955 28.7333 4.03955 19.8577C4.03955 10.9252 11.321 3.69955 20.1952 3.69955C29.1264 3.64266 36.4078 10.8683 36.4078 19.8008C36.4078 28.7333 29.1264 36.0158 20.1952 36.0158Z" fill="black"/>
<path opacity="0.1831" d="M20.1952 35.9598C11.2641 35.9598 4.03955 28.6773 4.03955 19.8017C4.03955 10.8692 11.321 3.64355 20.1952 3.64355C29.1264 3.64355 36.3509 10.9261 36.3509 19.8017C36.3509 28.7342 29.1264 35.9598 20.1952 35.9598Z" fill="black"/>
<path opacity="0.1972" d="M20.1952 35.9598C11.2641 35.9598 3.98264 28.6773 3.98264 19.8017C3.98264 10.8692 11.2641 3.64355 20.1952 3.64355C29.1264 3.64355 36.3509 10.8692 36.3509 19.8017C36.3509 28.6773 29.0695 35.9598 20.1952 35.9598Z" fill="black"/>
<path opacity="0.2113" d="M20.1383 35.9598C11.2641 35.9598 3.98264 28.6773 3.98264 19.8017C3.98264 10.8692 11.2641 3.64355 20.1383 3.64355C29.0695 3.64355 36.294 10.8692 36.294 19.8017C36.294 28.6773 29.0695 35.9598 20.1383 35.9598Z" fill="black"/>
<path opacity="0.2254" d="M20.1383 35.9029C11.2072 35.9029 3.98264 28.6773 3.98264 19.7448C3.98264 10.8692 11.2072 3.64355 20.1383 3.64355C29.0695 3.64355 36.294 10.8692 36.294 19.8017C36.294 28.6773 29.0126 35.9029 20.1383 35.9029Z" fill="black"/>
<path opacity="0.2394" d="M20.0814 35.9029C11.2072 35.9029 3.98264 28.6773 3.98264 19.7448C3.98264 10.8692 11.2072 3.64355 20.0814 3.64355C28.9557 3.64355 36.2371 10.8692 36.2371 19.8017C36.2371 28.6773 29.0126 35.9029 20.0814 35.9029Z" fill="black"/>
<path opacity="0.2535" d="M20.0815 35.9032C11.2072 35.9032 3.92578 28.6775 3.92578 19.745C3.92578 10.8695 11.1503 3.58691 20.0815 3.58691C28.9557 3.58691 36.2372 10.8126 36.2372 19.745C36.1803 28.6206 28.9557 35.9032 20.0815 35.9032Z" fill="black"/>
<path opacity="0.2676" d="M20.0815 35.846C11.1503 35.846 3.92578 28.6204 3.92578 19.7448C3.92578 10.8692 11.1503 3.64355 20.0246 3.64355C28.8988 3.64355 36.1234 10.8692 36.1234 19.7448C36.1803 28.6204 28.9557 35.846 20.0815 35.846Z" fill="black"/>
<path opacity="0.2817" d="M20.0246 35.846C11.1503 35.846 3.92578 28.6204 3.92578 19.7448C3.92578 10.8692 11.1503 3.64355 20.0246 3.64355C28.8988 3.64355 36.1234 10.8692 36.1234 19.7448C36.1234 28.6204 28.8988 35.846 20.0246 35.846Z" fill="black"/>
<path opacity="0.2958" d="M20.0246 35.8463C11.1503 35.8463 3.92578 28.6206 3.92578 19.745C3.92578 10.8126 11.1503 3.58691 20.0246 3.58691C28.8988 3.58691 36.1234 10.8126 36.1234 19.6881C36.1234 28.6206 28.8988 35.8463 20.0246 35.8463Z" fill="black"/>
<path opacity="0.3099" d="M19.9677 35.7894C11.0934 35.7894 3.8689 28.5637 3.8689 19.6881C3.92578 10.8126 11.0934 3.58691 19.9677 3.58691C28.8419 3.58691 36.0665 10.8126 36.0665 19.6881C36.0665 28.5637 28.8419 35.7894 19.9677 35.7894Z" fill="black"/>
<path opacity="0.3239" d="M19.9677 35.7894C11.0934 35.7894 3.8689 28.5637 3.8689 19.6881C3.8689 10.8126 11.0934 3.58691 19.9677 3.58691C28.8419 3.58691 36.0665 10.8126 36.0665 19.6881C36.0665 28.5637 28.8419 35.7894 19.9677 35.7894Z" fill="black"/>
<path opacity="0.338" d="M19.9677 35.7894C11.0934 35.7894 3.8689 28.5637 3.8689 19.6881C3.8689 10.8126 11.0934 3.58691 19.9677 3.58691C28.8419 3.58691 36.0665 10.8126 36.0665 19.6881C36.0096 28.5637 28.7851 35.7894 19.9677 35.7894Z" fill="black"/>
<path opacity="0.3521" d="M19.9108 35.7325C11.0366 35.7325 3.8689 28.5068 3.8689 19.6881C3.8689 10.8126 11.0934 3.58691 19.9108 3.58691C28.7851 3.58691 35.9527 10.8126 35.9527 19.6313C36.0096 28.5068 28.7851 35.7325 19.9108 35.7325Z" fill="black"/>
<path opacity="0.3662" d="M19.9108 35.7325C11.0366 35.7325 3.8689 28.5068 3.8689 19.6881C3.8689 10.8126 11.0366 3.58691 19.9108 3.58691C28.7851 3.58691 35.9527 10.8126 35.9527 19.6313C35.9527 28.5068 28.7282 35.7325 19.9108 35.7325Z" fill="black"/>
<path opacity="0.3803" d="M19.8539 35.6756C10.9796 35.6756 3.81198 28.4499 3.81198 19.6313C3.81198 10.8126 11.0365 3.58691 19.8539 3.58691C28.7282 3.58691 35.8958 10.8126 35.8958 19.6313C35.9527 28.5068 28.7282 35.6756 19.8539 35.6756Z" fill="black"/>
<path opacity="0.3944" d="M19.8539 35.6756C11.0365 35.6756 3.81198 28.5068 3.81198 19.6313C3.81198 10.8126 11.0365 3.58691 19.8539 3.58691C28.6713 3.58691 35.8958 10.8126 35.8958 19.6313C35.8958 28.5068 28.7281 35.6756 19.8539 35.6756Z" fill="black"/>
<path opacity="0.4085" d="M19.8539 35.6756C10.9796 35.6756 3.81198 28.4499 3.81198 19.6313C3.81198 10.8126 10.9796 3.58691 19.8539 3.58691C28.7282 3.58691 35.8389 10.8126 35.8389 19.6313C35.8389 28.4499 28.6713 35.6756 19.8539 35.6756Z" fill="black"/>
<path opacity="0.4225" d="M19.797 35.6187C10.9796 35.6187 3.81198 28.4499 3.81198 19.6313C3.81198 10.8126 10.9796 3.58691 19.797 3.58691C28.6713 3.58691 35.8389 10.8126 35.8389 19.6313C35.8389 28.4499 28.6713 35.6187 19.797 35.6187Z" fill="black"/>
<path opacity="0.4366" d="M19.797 35.6187C10.9796 35.6187 3.81198 28.4499 3.81198 19.6313C3.81198 10.8126 10.9796 3.58691 19.797 3.58691C28.6144 3.58691 35.782 10.7557 35.782 19.5744C35.782 28.4499 28.6144 35.6187 19.797 35.6187Z" fill="black"/>
<path opacity="0.4507" d="M19.797 35.6184C10.9227 35.6184 3.75507 28.4497 3.75507 19.631C3.75507 10.8123 10.9227 3.64355 19.7401 3.64355C28.5575 3.64355 35.7251 10.8123 35.7251 19.631C35.782 28.4497 28.6143 35.6184 19.797 35.6184Z" fill="black"/>
<path opacity="0.4648" d="M19.7401 35.5618C10.9227 35.5618 3.75507 28.3931 3.75507 19.5744C3.75507 10.7557 10.9227 3.58691 19.7401 3.58691C28.5575 3.58691 35.7251 10.7557 35.7251 19.5744C35.7251 28.3931 28.5575 35.5618 19.7401 35.5618Z" fill="black"/>
<path opacity="0.4789" d="M19.7401 35.5618C10.9227 35.5618 3.75507 28.3931 3.75507 19.5744C3.75507 10.7557 10.9227 3.58691 19.7401 3.58691C28.5575 3.58691 35.7251 10.7557 35.7251 19.5744C35.7251 28.3931 28.5575 35.5618 19.7401 35.5618Z" fill="black"/>
<path opacity="0.493" d="M19.6832 35.5618C10.8658 35.5618 3.69818 28.3931 3.69818 19.5744C3.69818 10.7557 10.8658 3.58691 19.6832 3.58691C28.5006 3.58691 35.6682 10.7557 35.6682 19.5744C35.6682 28.3931 28.5006 35.5618 19.6832 35.5618Z" fill="black"/>
<path opacity="0.507" d="M19.6832 35.5042C10.8658 35.5042 3.69818 28.3354 3.69818 19.5167C3.69818 10.698 10.8658 3.5293 19.6832 3.5293C28.5006 3.5293 35.6682 10.698 35.6682 19.5167C35.6682 28.3923 28.5006 35.5042 19.6832 35.5042Z" fill="black"/>
<path opacity="0.5211" d="M19.6832 35.5047C10.8658 35.5047 3.75507 28.3359 3.75507 19.5741C3.75507 10.7554 10.9227 3.64355 19.6832 3.64355C28.5006 3.64355 35.6114 10.8123 35.6114 19.5741C35.6114 28.3359 28.4437 35.5047 19.6832 35.5047Z" fill="black"/>
<path opacity="0.5352" d="M19.6263 35.5047C10.809 35.5047 3.69818 28.3359 3.69818 19.5741C3.69818 10.7554 10.8658 3.64355 19.6263 3.64355C28.4437 3.64355 35.5545 10.8123 35.5545 19.5741C35.5545 28.3359 28.4437 35.5047 19.6263 35.5047Z" fill="black"/>
<path opacity="0.5493" d="M19.6263 35.448C10.8658 35.448 3.69818 28.2793 3.69818 19.5175C3.69818 10.7557 10.8658 3.58691 19.6263 3.58691C28.3868 3.58691 35.5545 10.7557 35.5545 19.5175C35.5545 28.3362 28.3868 35.448 19.6263 35.448Z" fill="black"/>
<path opacity="0.5634" d="M19.5694 35.448C10.809 35.448 3.6413 28.2793 3.6413 19.5175C3.6413 10.7557 10.809 3.58691 19.5694 3.58691C28.3299 3.58691 35.4976 10.7557 35.4976 19.5175C35.4976 28.2793 28.3868 35.448 19.5694 35.448Z" fill="black"/>
<path opacity="0.5775" d="M19.5694 35.448C10.809 35.448 3.6413 28.2793 3.6413 19.5175C3.6413 10.7557 10.809 3.58691 19.5694 3.58691C28.3299 3.58691 35.4976 10.7557 35.4976 19.5175C35.4976 28.2793 28.3299 35.448 19.5694 35.448Z" fill="black"/>
<path opacity="0.5915" d="M19.5694 35.3904C10.809 35.3904 3.6413 28.2785 3.6413 19.4598C3.6413 10.698 10.7521 3.5293 19.5694 3.5293C28.3299 3.5293 35.4976 10.6411 35.4976 19.4598C35.4407 28.2785 28.3299 35.3904 19.5694 35.3904Z" fill="black"/>
<path opacity="0.6056" d="M19.5126 35.3909C10.7521 35.3909 3.6413 28.279 3.6413 19.5172C3.6413 10.7554 10.7521 3.64355 19.5126 3.64355C28.273 3.64355 35.3838 10.7554 35.3838 19.5172C35.4407 28.279 28.273 35.3909 19.5126 35.3909Z" fill="black"/>
<path opacity="0.6197" d="M19.5126 35.3909C10.7521 35.3909 3.6413 28.279 3.6413 19.5172C3.6413 10.7554 10.7521 3.64355 19.5126 3.64355C28.273 3.64355 35.3838 10.7554 35.3838 19.5172C35.3838 28.2221 28.273 35.3909 19.5126 35.3909Z" fill="black"/>
<path opacity="0.6338" d="M19.4557 35.3342C10.6952 35.3342 3.58441 28.2224 3.58441 19.4606C3.58441 10.6988 10.6952 3.58691 19.4557 3.58691C28.2162 3.58691 35.3269 10.6988 35.3269 19.4606C35.3838 28.2224 28.2162 35.3342 19.4557 35.3342Z" fill="black"/>
<path opacity="0.6479" d="M19.4557 35.3342C10.6952 35.3342 3.58441 28.2224 3.58441 19.4606C3.58441 10.6988 10.6952 3.58691 19.4557 3.58691C28.2162 3.58691 35.3269 10.6988 35.3269 19.4606C35.3269 28.2224 28.2162 35.3342 19.4557 35.3342Z" fill="black"/>
<path opacity="0.662" d="M19.4557 35.3342C10.6952 35.3342 3.58441 28.2224 3.58441 19.4606C3.58441 10.6988 10.6952 3.58691 19.4557 3.58691C28.1593 3.58691 35.27 10.6988 35.27 19.4606C35.27 28.2224 28.1593 35.3342 19.4557 35.3342Z" fill="black"/>
<path opacity="0.6761" d="M19.3988 35.2773C10.6952 35.2773 3.58441 28.1655 3.58441 19.4606C3.58441 10.6988 10.6952 3.58691 19.4557 3.58691C28.1593 3.58691 35.27 10.6988 35.27 19.4606C35.27 28.1655 28.1593 35.2773 19.3988 35.2773Z" fill="black"/>
<path opacity="0.6901" d="M19.3988 35.2773C10.6383 35.2773 3.5275 28.1655 3.5275 19.4037C3.5275 10.6419 10.6383 3.58691 19.3419 3.58691C28.1023 3.58691 35.1562 10.6988 35.1562 19.4037C35.2131 28.1655 28.1023 35.2773 19.3988 35.2773Z" fill="black"/>
<path opacity="0.7042" d="M19.3988 35.2773C10.6383 35.2773 3.5275 28.1655 3.5275 19.4037C3.5275 10.6988 10.6383 3.58691 19.3419 3.58691C28.0455 3.58691 35.1562 10.6988 35.1562 19.4037C35.2131 28.1655 28.1023 35.2773 19.3988 35.2773Z" fill="black"/>
<path opacity="0.7183" d="M19.3419 35.2204C10.6383 35.2204 3.5275 28.1086 3.5275 19.4037C3.5275 10.6988 10.6383 3.58691 19.3419 3.58691C28.0455 3.58691 35.1562 10.6988 35.1562 19.4037C35.1562 28.1086 28.0455 35.2204 19.3419 35.2204Z" fill="black"/>
<path opacity="0.7324" d="M19.3419 35.2204C10.6383 35.2204 3.5275 28.1086 3.5275 19.4037C3.5275 10.6988 10.5814 3.58691 19.3419 3.58691C28.0455 3.58691 35.1562 10.6988 35.1562 19.4037C35.1562 28.1086 28.0455 35.2204 19.3419 35.2204Z" fill="black"/>
<path opacity="0.7465" d="M19.285 35.2204C10.5814 35.2204 3.47061 28.1086 3.47061 19.4037C3.47061 10.6988 10.5814 3.58691 19.285 3.58691C27.9886 3.58691 35.0994 10.6988 35.0994 19.4037C35.0994 28.1086 28.0455 35.2204 19.285 35.2204Z" fill="black"/>
<path opacity="0.7606" d="M19.285 35.1628C10.5814 35.1628 3.47061 28.051 3.47061 19.3461C3.47061 10.6411 10.5814 3.5293 19.285 3.5293C27.9886 3.5293 35.0994 10.6411 35.0994 19.3461C35.0994 28.1079 27.9886 35.1628 19.285 35.1628Z" fill="black"/>
<path opacity="0.7746" d="M19.285 35.1635C10.5814 35.1635 3.47061 28.0517 3.47061 19.3468C3.47061 10.6419 10.5245 3.58691 19.2281 3.58691C27.9317 3.58691 34.9856 10.6419 34.9856 19.3468C35.0425 28.0517 27.9886 35.1635 19.285 35.1635Z" fill="black"/>
<path opacity="0.7887" d="M19.2281 35.1635C10.5245 35.1635 3.47061 28.0517 3.47061 19.3468C3.47061 10.6419 10.5245 3.58691 19.2281 3.58691C27.9317 3.58691 34.9856 10.6419 34.9856 19.3468C34.9856 28.0517 27.9317 35.1635 19.2281 35.1635Z" fill="black"/>
<path opacity="0.8028" d="M19.2281 35.1066C10.5245 35.1066 3.47061 28.0517 3.47061 19.3468C3.47061 10.6419 10.5245 3.58691 19.2281 3.58691C27.9317 3.58691 34.9856 10.6419 34.9856 19.3468C34.9856 28.0517 27.9317 35.1066 19.2281 35.1066Z" fill="black"/>
<path opacity="0.8169" d="M19.1712 35.1066C10.5245 35.1066 3.4137 28.0517 3.4137 19.3468C3.4137 10.6419 10.5245 3.58691 19.1712 3.58691C27.8748 3.58691 34.9287 10.6419 34.9287 19.3468C34.9287 28.0517 27.8748 35.1066 19.1712 35.1066Z" fill="black"/>
<path opacity="0.831" d="M19.1712 35.0497C10.4676 35.0497 3.4137 27.9948 3.4137 19.3468C3.4137 10.6419 10.4676 3.58691 19.1712 3.58691C27.8748 3.58691 34.9287 10.6419 34.9287 19.3468C34.9287 27.9948 27.8748 35.0497 19.1712 35.0497Z" fill="black"/>
<path opacity="0.8451" d="M19.1712 35.0497C10.4676 35.0497 3.4137 27.9948 3.4137 19.2899C3.4137 10.6419 10.4676 3.58691 19.1712 3.58691C27.8748 3.58691 34.9287 10.6419 34.9287 19.3468C34.8718 27.9948 27.8179 35.0497 19.1712 35.0497Z" fill="black"/>
<path opacity="0.8592" d="M19.1143 35.0497C10.4676 35.0497 3.4137 27.9948 3.4137 19.2899C3.4137 10.6419 10.4676 3.58691 19.1143 3.58691C27.761 3.58691 34.8149 10.6419 34.8149 19.3468C34.8718 27.9948 27.8179 35.0497 19.1143 35.0497Z" fill="black"/>
<path opacity="0.8732" d="M19.1143 34.9929C10.4107 34.9929 3.4137 27.9379 3.4137 19.2899C3.4137 10.6419 10.4107 3.58691 19.1143 3.58691C27.761 3.58691 34.8149 10.6419 34.8149 19.2899C34.8149 27.9379 27.761 34.9929 19.1143 34.9929Z" fill="black"/>
<path opacity="0.8873" d="M19.0574 34.9929C10.4107 34.9929 3.35681 27.9379 3.35681 19.2899C3.35681 10.6419 10.4107 3.58691 19.0574 3.58691C27.7041 3.58691 34.758 10.6419 34.758 19.2899C34.8149 27.9379 27.761 34.9929 19.0574 34.9929Z" fill="black"/>
<path opacity="0.9014" d="M19.0574 34.9929C10.4107 34.9929 3.35681 27.9379 3.35681 19.2899C3.35681 10.6419 10.4107 3.58691 19.0574 3.58691C27.7041 3.58691 34.758 10.6419 34.758 19.2899C34.758 27.9379 27.7041 34.9929 19.0574 34.9929Z" fill="black"/>
<path opacity="0.9155" d="M19.0574 34.9352C10.4107 34.9352 3.35681 27.8803 3.35681 19.2323C3.35681 10.5843 10.4107 3.5293 19.0574 3.5293C27.7041 3.5293 34.758 10.5843 34.758 19.2323C34.758 27.9372 27.7041 34.9352 19.0574 34.9352Z" fill="black"/>
<path opacity="0.9296" d="M19.0005 34.9352C10.3538 34.9352 3.35681 27.8803 3.35681 19.2323C3.35681 10.5843 10.4107 3.5293 19.0574 3.5293C27.6472 3.58619 34.7011 10.5843 34.7011 19.2323C34.7011 27.8803 27.6472 34.9352 19.0005 34.9352Z" fill="black"/>
<path opacity="0.9437" d="M19.0005 34.9352C10.3538 34.9352 3.29993 27.8803 3.29993 19.2323C3.29993 10.5843 10.3538 3.5293 19.0005 3.5293C27.6472 3.5293 34.7011 10.5843 34.7011 19.2323C34.6442 27.8803 27.6472 34.9352 19.0005 34.9352Z" fill="black"/>
<path opacity="0.9577" d="M19.0005 34.8791C10.3538 34.8791 3.29993 27.881 3.29993 19.233C3.29993 10.585 10.3538 3.58691 18.9436 3.58691C27.5903 3.58691 34.5874 10.6419 34.5874 19.233C34.6442 27.881 27.5903 34.8791 19.0005 34.8791Z" fill="black"/>
<path opacity="0.9718" d="M18.9436 34.8791C10.2969 34.8791 3.29993 27.881 3.29993 19.233C3.29993 10.585 10.2969 3.58691 18.9436 3.58691C27.5903 3.58691 34.5874 10.585 34.5874 19.233C34.5874 27.881 27.5903 34.8791 18.9436 34.8791Z" fill="black"/>
<path opacity="0.9859" d="M18.9436 34.8791C10.2969 34.8791 3.29993 27.881 3.29993 19.233C3.29993 10.585 10.2969 3.58691 18.9436 3.58691C27.5903 3.58691 34.5874 10.585 34.5874 19.233C34.5874 27.8241 27.5335 34.8791 18.9436 34.8791Z" fill="black"/>
<path opacity="0.7" d="M18.8867 34.8224C10.24 34.8224 3.24301 27.8244 3.24301 19.1763C3.24301 10.5283 10.24 3.53027 18.8867 3.53027C27.5334 3.53027 34.5304 10.5283 34.5304 19.1763C34.5304 27.8244 27.5334 34.8224 18.8867 34.8224Z" fill="black"/>
</g>
<path d="M18.8867 34.8234C10.24 34.8234 3.24301 27.8253 3.24301 19.1773C3.24301 10.5293 10.24 3.53125 18.8867 3.53125C27.5334 3.53125 34.5304 10.5293 34.5304 19.1773C34.5304 27.8253 27.5334 34.8234 18.8867 34.8234Z" fill="url(#paint41_linear)" stroke="white" stroke-width="0.7398" stroke-miterlimit="10"/>
<path fill-rule="evenodd" clip-rule="evenodd" d="M26.8503 16.1611C26.8503 14.8525 25.7695 13.7715 24.4611 13.7715H13.2545C11.9461 13.7715 10.8653 14.8525 10.8653 16.1611V22.5333C10.8653 23.8419 11.9461 24.9229 13.2545 24.9229H24.4611C25.7695 24.9229 26.8503 23.8419 26.8503 22.5333V16.1611ZM17.2365 22.0781V16.0473L21.7874 19.0627L17.2365 22.0781Z" fill="#B51218"/>
<defs>
<radialGradient id="paint0_radial" cx="0" cy="0" r="1" gradientUnits="userSpaceOnUse" gradientTransform="translate(20.0498 38.8351) scale(19.4094 1.00102)">
<stop/>
<stop offset="1"/>
</radialGradient>
<radialGradient id="paint1_radial" cx="0" cy="0" r="1" gradientUnits="userSpaceOnUse" gradientTransform="translate(20.0494 38.8349) scale(18.9164 0.977277)">
<stop/>
<stop offset="1"/>
</radialGradient>
<radialGradient id="paint2_radial" cx="0" cy="0" r="1" gradientUnits="userSpaceOnUse" gradientTransform="translate(20.0497 38.834) scale(18.423 0.953532)">
<stop/>
<stop offset="1"/>
</radialGradient>
<radialGradient id="paint3_radial" cx="0" cy="0" r="1" gradientUnits="userSpaceOnUse" gradientTransform="translate(20.0499 38.8326) scale(17.93 0.92982)">
<stop/>
<stop offset="1"/>
</radialGradient>
<radialGradient id="paint4_radial" cx="0" cy="0" r="1" gradientUnits="userSpaceOnUse" gradientTransform="translate(20.0496 38.8314) scale(17.4366 0.906102)">
<stop/>
<stop offset="1"/>
</radialGradient>
<radialGradient id="paint5_radial" cx="0" cy="0" r="1" gradientUnits="userSpaceOnUse" gradientTransform="translate(20.05 38.8405) scale(16.9431 0.882106)">
<stop/>
<stop offset="1"/>
</radialGradient>
<radialGradient id="paint6_radial" cx="0" cy="0" r="1" gradientUnits="userSpaceOnUse" gradientTransform="translate(20.0499 38.8397) scale(16.4495 0.858415)">
<stop/>
<stop offset="1"/>
</radialGradient>
<radialGradient id="paint7_radial" cx="0" cy="0" r="1" gradientUnits="userSpaceOnUse" gradientTransform="translate(20.05 38.8384) scale(15.9557 0.834733)">
<stop/>
<stop offset="1"/>
</radialGradient>
<radialGradient id="paint8_radial" cx="0" cy="0" r="1" gradientUnits="userSpaceOnUse" gradientTransform="translate(20.0501 38.8373) scale(15.4617 0.811064)">
<stop/>
<stop offset="1"/>
</radialGradient>
<radialGradient id="paint9_radial" cx="0" cy="0" r="1" gradientUnits="userSpaceOnUse" gradientTransform="translate(20.0491 38.8368) scale(14.9675 0.787405)">
<stop/>
<stop offset="1"/>
</radialGradient>
<radialGradient id="paint10_radial" cx="0" cy="0" r="1" gradientUnits="userSpaceOnUse" gradientTransform="translate(20.049 38.8354) scale(14.4732 0.763769)">
<stop/>
<stop offset="1"/>
</radialGradient>
<radialGradient id="paint11_radial" cx="0" cy="0" r="1" gradientUnits="userSpaceOnUse" gradientTransform="translate(20.049 38.8337) scale(13.9786 0.740156)">
<stop/>
<stop offset="1"/>
</radialGradient>
<radialGradient id="paint12_radial" cx="0" cy="0" r="1" gradientUnits="userSpaceOnUse" gradientTransform="translate(20.049 38.8319) scale(13.4838 0.716565)">
<stop/>
<stop offset="1"/>
</radialGradient>
<radialGradient id="paint13_radial" cx="0" cy="0" r="1" gradientUnits="userSpaceOnUse" gradientTransform="translate(20.049 38.8297) scale(12.9887 0.692997)">
<stop/>
<stop offset="1"/>
</radialGradient>
<radialGradient id="paint14_radial" cx="0" cy="0" r="1" gradientUnits="userSpaceOnUse" gradientTransform="translate(20.0489 38.8275) scale(12.4932 0.669459)">
<stop/>
<stop offset="1"/>
</radialGradient>
<radialGradient id="paint15_radial" cx="0" cy="0" r="1" gradientUnits="userSpaceOnUse" gradientTransform="translate(20.0491 38.8444) scale(11.9971 0.645638)">
<stop/>
<stop offset="1"/>
</radialGradient>
<radialGradient id="paint16_radial" cx="0" cy="0" r="1" gradientUnits="userSpaceOnUse" gradientTransform="translate(20.0491 38.8427) scale(11.5007 0.622165)">
<stop/>
<stop offset="1"/>
</radialGradient>
<radialGradient id="paint17_radial" cx="0" cy="0" r="1" gradientUnits="userSpaceOnUse" gradientTransform="translate(20.049 38.841) scale(11.004 0.598745)">
<stop/>
<stop offset="1"/>
</radialGradient>
<radialGradient id="paint18_radial" cx="0" cy="0" r="1" gradientUnits="userSpaceOnUse" gradientTransform="translate(20.0489 38.8398) scale(10.5065 0.575374)">
<stop/>
<stop offset="1"/>
</radialGradient>
<radialGradient id="paint19_radial" cx="0" cy="0" r="1" gradientUnits="userSpaceOnUse" gradientTransform="translate(20.049 38.8375) scale(10.0084 0.552068)">
<stop/>
<stop offset="1"/>
</radialGradient>
<radialGradient id="paint20_radial" cx="0" cy="0" r="1" gradientUnits="userSpaceOnUse" gradientTransform="translate(20.0489 38.8338) scale(9.50947 0.528837)">
<stop/>
<stop offset="1"/>
</radialGradient>
<radialGradient id="paint21_radial" cx="0" cy="0" r="1" gradientUnits="userSpaceOnUse" gradientTransform="translate(20.049 38.8308) scale(9.00969 0.505708)">
<stop/>
<stop offset="1"/>
</radialGradient>
<radialGradient id="paint22_radial" cx="0" cy="0" r="1" gradientUnits="userSpaceOnUse" gradientTransform="translate(20.0489 38.828) scale(8.50875 0.482696)">
<stop/>
<stop offset="1"/>
</radialGradient>
<radialGradient id="paint23_radial" cx="0" cy="0" r="1" gradientUnits="userSpaceOnUse" gradientTransform="translate(20.049 38.8238) scale(8.00644 0.459835)">
<stop/>
<stop offset="1"/>
</radialGradient>
<radialGradient id="paint24_radial" cx="0" cy="0" r="1" gradientUnits="userSpaceOnUse" gradientTransform="translate(20.049 38.8186) scale(7.50257 0.437174)">
<stop/>
<stop offset="1"/>
</radialGradient>
<radialGradient id="paint25_radial" cx="0" cy="0" r="1" gradientUnits="userSpaceOnUse" gradientTransform="translate(20.049 38.8551) scale(6.99666 0.414405)">
<stop/>
<stop offset="1"/>
</radialGradient>
<radialGradient id="paint26_radial" cx="0" cy="0" r="1" gradientUnits="userSpaceOnUse" gradientTransform="translate(20.0489 38.8534) scale(6.4883 0.392349)">
<stop/>
<stop offset="1"/>
</radialGradient>
<radialGradient id="paint27_radial" cx="0" cy="0" r="1" gradientUnits="userSpaceOnUse" gradientTransform="translate(20.049 38.8362) scale(5.97668 0.370892)">
<stop/>
<stop offset="1"/>
</radialGradient>
<radialGradient id="paint28_radial" cx="0" cy="0" r="1" gradientUnits="userSpaceOnUse" gradientTransform="translate(20.049 38.8359) scale(5.46087 0.350026)">
<stop/>
<stop offset="1"/>
</radialGradient>
<radialGradient id="paint29_radial" cx="0" cy="0" r="1" gradientUnits="userSpaceOnUse" gradientTransform="translate(20.049 38.8359) scale(4.9396 0.330306)">
<stop/>
<stop offset="1"/>
</radialGradient>
<radialGradient id="paint30_radial" cx="0" cy="0" r="1" gradientUnits="userSpaceOnUse" gradientTransform="translate(20.0489 38.8356) scale(4.41091 0.312517)">
<stop/>
<stop offset="1"/>
</radialGradient>
<radialGradient id="paint31_radial" cx="0" cy="0" r="1" gradientUnits="userSpaceOnUse" gradientTransform="translate(20.049 38.8356) scale(3.87221 0.298383)">
<stop/>
<stop offset="1"/>
</radialGradient>
<radialGradient id="paint32_radial" cx="0" cy="0" r="1" gradientUnits="userSpaceOnUse" gradientTransform="translate(20.0489 38.8353) scale(3.32013 0.292418)">
<stop/>
<stop offset="1"/>
</radialGradient>
<radialGradient id="paint33_radial" cx="0" cy="0" r="1" gradientUnits="userSpaceOnUse" gradientTransform="translate(20.049 38.8353) scale(2.75355 0.311244)">
<stop/>
<stop offset="1"/>
</radialGradient>
<radialGradient id="paint34_radial" cx="0" cy="0" r="1" gradientUnits="userSpaceOnUse" gradientTransform="translate(20.0494 38.8351) scale(2.19766 0.492218)">
<stop/>
<stop offset="1"/>
</radialGradient>
<radialGradient id="paint35_radial" cx="0" cy="0" r="1" gradientUnits="userSpaceOnUse" gradientTransform="translate(20.0493 38.8351) rotate(180) scale(1.92354 0.372972)">
<stop/>
<stop offset="1"/>
</radialGradient>
<radialGradient id="paint36_radial" cx="0" cy="0" r="1" gradientUnits="userSpaceOnUse" gradientTransform="translate(20.0493 38.8348) rotate(180) scale(4.3715 0.10083)">
<stop/>
<stop offset="1"/>
</radialGradient>
<radialGradient id="paint37_radial" cx="0" cy="0" r="1" gradientUnits="userSpaceOnUse" gradientTransform="translate(20.0492 38.8348) rotate(180) scale(11.4682 0.0752543)">
<stop/>
<stop offset="1"/>
</radialGradient>
<radialGradient id="paint38_radial" cx="0" cy="0" r="1" gradientUnits="userSpaceOnUse" gradientTransform="translate(20.0491 38.8355) rotate(180) scale(3.0913 0.0583077)">
<stop/>
<stop offset="1"/>
</radialGradient>
<radialGradient id="paint39_radial" cx="0" cy="0" r="1" gradientUnits="userSpaceOnUse" gradientTransform="translate(20.049 38.8355) rotate(180) scale(1.5625 0.0399933)">
<stop/>
<stop offset="1"/>
</radialGradient>
<linearGradient id="paint40_linear" x1="0" y1="18.8425" x2="37.956" y2="18.8425" gradientUnits="userSpaceOnUse">
<stop stop-color="#F41B1A"/>
<stop offset="1" stop-color="#8F0707"/>
</linearGradient>
<linearGradient id="paint41_linear" x1="7.94568" y1="8.24294" x2="30.0515" y2="30.3455" gradientUnits="userSpaceOnUse">
<stop stop-color="#C3C4C3"/>
<stop offset="0.2166" stop-color="#DADADA"/>
<stop offset="0.4838" stop-color="#EEEFEE"/>
<stop offset="0.7471" stop-color="#FBFBFB"/>
<stop offset="1" stop-color="white"/>
</linearGradient>
</defs>
</svg>
